SplineFontDB: 3.2
FontName: IRKhorasan
FullName: IRKhorasan
FamilyName: IRKhorasan
Weight: Book
Copyright: Copyright (c) 2022, Information Technology Organization of Iran (ito.gov.ir)
Version: 1.001
ItalicAngle: 0
UnderlinePosition: -100
UnderlineWidth: 60
Ascent: 1638
Descent: 410
InvalidEm: 0
sfntRevision: 0x00010042
LayerCount: 2
Layer: 0 1 "Back" 1
Layer: 1 1 "Fore" 0
XUID: [1021 420 722297922 7412493]
StyleMap: 0x0040
FSType: 0
OS2Version: 3
OS2_WeightWidthSlopeOnly: 0
OS2_UseTypoMetrics: 0
CreationTime: 1355088942
ModificationTime: 1662627547
PfmFamily: 17
TTFWeight: 400
TTFWidth: 5
LineGap: 100
VLineGap: 0
Panose: 2 0 5 6 0 0 0 2 0 2
OS2TypoAscent: 1942
OS2TypoAOffset: 0
OS2TypoDescent: -1147
OS2TypoDOffset: 0
OS2TypoLinegap: 1500
OS2WinAscent: 1942
OS2WinAOffset: 0
OS2WinDescent: 1147
OS2WinDOffset: 0
HheadAscent: 1942
HheadAOffset: 0
HheadDescent: -1147
HheadDOffset: 0
OS2SubXSize: 1434
OS2SubYSize: 1331
OS2SubXOff: 0
OS2SubYOff: 293
OS2SupXSize: 1434
OS2SupYSize: 1331
OS2SupXOff: 0
OS2SupYOff: 930
OS2StrikeYSize: 50
OS2StrikeYPos: 250
OS2CapHeight: 1942
OS2XHeight: 594
OS2FamilyClass: 2048
OS2Vendor: 'PARS'
OS2CodePages: 20000041.00000000
OS2UnicodeRanges: 00002003.00000000.00000000.00000000
Lookup: 1 1 0 "'isol' Isolated Forms in Arabic lookup 0" { "'isol' Isolated Forms in Arabic lookup 0 subtable"  } ['isol' ('arab' <'dflt' > ) ]
Lookup: 1 1 0 "'init' Initial Forms in Arabic lookup 1" { "'init' Initial Forms in Arabic lookup 1 subtable"  } ['init' ('arab' <'dflt' > ) ]
Lookup: 1 1 0 "'fina' Terminal Forms in Arabic lookup 2" { "'fina' Terminal Forms in Arabic lookup 2 subtable"  } ['fina' ('arab' <'dflt' > ) ]
Lookup: 1 1 0 "'medi' Medial Forms in Arabic lookup 3" { "'medi' Medial Forms in Arabic lookup 3 subtable"  } ['medi' ('arab' <'dflt' > ) ]
Lookup: 4 1 0 "'ccmp' Glyph Composition/Decomposition in Arabic lookup 4" { "'ccmp' Glyph Composition/Decomposition in Arabic lookup 4 subtable"  } ['ccmp' ('arab' <'dflt' > ) ]

StartChar: quotedbl
Encoding: 34 34 4
Width: 653
Flags: W
LayerCount: 2
Fore
SplineSet
112 1157 m 1,0,1
 117 1194 117 1194 141 1213.5 c 128,-1,2
 165 1233 165 1233 193.5 1234 c 128,-1,3
 222 1235 222 1235 247.5 1216 c 128,-1,4
 273 1197 273 1197 279 1157 c 1,5,-1
 231 752 l 1,6,-1
 147 752 l 1,7,-1
 112 1157 l 1,0,1
392 1157 m 1,8,9
 397 1194 397 1194 421 1213.5 c 128,-1,10
 445 1233 445 1233 473.5 1234 c 128,-1,11
 502 1235 502 1235 527.5 1216 c 128,-1,12
 553 1197 553 1197 559 1157 c 1,13,-1
 511 752 l 1,14,-1
 427 752 l 1,15,-1
 392 1157 l 1,8,9
EndSplineSet
EndChar

StartChar: quotesingle
Encoding: 39 39 5
Width: 361
Flags: W
LayerCount: 2
Fore
SplineSet
112 1157 m 1,0,1
 117 1194 117 1194 141 1213.5 c 128,-1,2
 165 1233 165 1233 193.5 1234 c 128,-1,3
 222 1235 222 1235 247.5 1216 c 128,-1,4
 273 1197 273 1197 279 1157 c 1,5,-1
 231 752 l 1,6,-1
 147 752 l 1,7,-1
 112 1157 l 1,0,1
EndSplineSet
EndChar

StartChar: asterisk
Encoding: 42 42 6
Width: 1126
Flags: W
LayerCount: 2
Fore
SplineSet
568 347 m 1,0,-1
 574 687 l 1,1,-1
 355 467 l 1,2,-1
 250 467 l 1,3,-1
 527 746 l 1,4,-1
 203 746 l 1,5,-1
 223 839 l 1,6,-1
 547 839 l 1,7,-1
 277 1104 l 1,8,-1
 370 1104 l 1,9,-1
 579 899 l 1,10,-1
 585 1199 l 1,11,-1
 704 1239 l 1,12,-1
 699 912 l 1,13,-1
 905 1104 l 1,14,-1
 1013 1104 l 1,15,-1
 730 839 l 1,16,-1
 1065 839 l 1,17,-1
 1043 746 l 1,18,-1
 729 746 l 1,19,-1
 1002 467 l 1,20,-1
 910 467 l 1,21,-1
 696 687 l 1,22,-1
 688 386 l 1,23,-1
 568 347 l 1,0,-1
EndSplineSet
EndChar

StartChar: plus
Encoding: 43 43 7
Width: 864
GlyphClass: 2
Flags: W
LayerCount: 2
Fore
SplineSet
356 387 m 1,0,-1
 96 387 l 1,1,-1
 96 520 l 1,2,-1
 356 520 l 1,3,-1
 356 784 l 1,4,-1
 489 784 l 1,5,-1
 489 520 l 1,6,-1
 762 520 l 1,7,-1
 762 387 l 1,8,-1
 489 387 l 1,9,-1
 489 124 l 1,10,-1
 356 124 l 1,11,-1
 356 387 l 1,0,-1
EndSplineSet
EndChar

StartChar: hyphen
Encoding: 45 45 8
Width: 1100
Flags: W
LayerCount: 2
Fore
SplineSet
196 591 m 1,0,-1
 901 591 l 1,1,-1
 901 453 l 1,2,-1
 196 453 l 1,3,-1
 196 591 l 1,0,-1
EndSplineSet
EndChar

StartChar: period
Encoding: 46 46 9
Width: 634
GlyphClass: 2
Flags: W
LayerCount: 2
Fore
SplineSet
558 123 m 0,0,1
 558 69 558 69 522.5 34.5 c 128,-1,2
 487 0 487 0 433 0 c 0,3,4
 380 0 380 0 345.5 34.5 c 128,-1,5
 311 69 311 69 311 123 c 0,6,7
 311 176 311 176 345.5 210.5 c 128,-1,8
 380 245 380 245 433 245 c 0,9,10
 483 245 483 245 520.5 209 c 128,-1,11
 558 173 558 173 558 123 c 0,0,1
EndSplineSet
EndChar

StartChar: slash
Encoding: 47 47 10
Width: 685
Flags: W
LayerCount: 2
Fore
SplineSet
493 1108 m 1,0,-1
 642 1108 l 1,1,-1
 210 -108 l 1,2,-1
 60 -108 l 1,3,-1
 493 1108 l 1,0,-1
EndSplineSet
EndChar

StartChar: less
Encoding: 60 60 11
Width: 1117
Flags: W
LayerCount: 2
Fore
SplineSet
955 58 m 1,0,-1
 150 444 l 1,1,-1
 150 534 l 1,2,-1
 955 918 l 1,3,-1
 955 784 l 1,4,-1
 331 489 l 1,5,-1
 955 192 l 1,6,-1
 955 58 l 1,0,-1
EndSplineSet
EndChar

StartChar: equal
Encoding: 61 61 12
Width: 1117
Flags: W
LayerCount: 2
Fore
SplineSet
182 801 m 1,0,-1
 997 801 l 1,1,-1
 997 653 l 1,2,-1
 182 653 l 1,3,-1
 182 801 l 1,0,-1
182 511 m 1,4,-1
 997 511 l 1,5,-1
 997 363 l 1,6,-1
 182 363 l 1,7,-1
 182 511 l 1,4,-1
EndSplineSet
EndChar

StartChar: greater
Encoding: 62 62 13
Width: 1117
Flags: W
LayerCount: 2
Fore
SplineSet
966 444 m 1,0,-1
 160 58 l 1,1,-1
 160 192 l 1,2,-1
 786 489 l 1,3,-1
 160 784 l 1,4,-1
 160 918 l 1,5,-1
 966 534 l 1,6,-1
 966 444 l 1,0,-1
EndSplineSet
EndChar

StartChar: bracketleft
Encoding: 91 91 14
Width: 579
GlyphClass: 2
Flags: W
LayerCount: 2
Fore
SplineSet
181 -317 m 1,0,-1
 181 1150 l 1,1,-1
 523 1150 l 1,2,-1
 523 1114 l 1,3,-1
 484 1114 l 2,4,5
 428 1114 428 1114 409 1103 c 128,-1,6
 390 1092 390 1092 380.5 1069 c 128,-1,7
 371 1046 371 1046 371 960 c 2,8,-1
 371 -134 l 2,9,10
 371 -215 371 -215 374 -227 c 0,11,12
 382 -258 382 -258 402.5 -272 c 128,-1,13
 423 -286 423 -286 484 -286 c 2,14,-1
 523 -286 l 1,15,-1
 523 -317 l 1,16,-1
 181 -317 l 1,0,-1
EndSplineSet
EndChar

StartChar: bracketright
Encoding: 93 93 15
Width: 579
GlyphClass: 2
Flags: W
LayerCount: 2
Fore
SplineSet
397 1150 m 1,0,-1
 397 -317 l 1,1,-1
 57 -317 l 1,2,-1
 57 -285 l 1,3,-1
 95 -285 l 2,4,5
 151 -285 151 -285 170 -274 c 128,-1,6
 189 -263 189 -263 199 -240 c 128,-1,7
 209 -217 209 -217 209 -133 c 2,8,-1
 209 964 l 2,9,10
 209 1045 209 1045 206 1057 c 0,11,12
 197 1086 197 1086 176.5 1101 c 128,-1,13
 156 1116 156 1116 95 1116 c 2,14,-1
 57 1116 l 1,15,-1
 57 1150 l 1,16,-1
 397 1150 l 1,0,-1
EndSplineSet
EndChar

StartChar: grave
Encoding: 96 96 16
Width: 615
Flags: W
LayerCount: 2
Fore
SplineSet
373 935 m 1,0,-1
 88 1114 l 2,1,2
 64 1132 64 1132 49.5 1151.5 c 128,-1,3
 35 1171 35 1171 35 1194 c 0,4,5
 35 1220 35 1220 52 1236 c 128,-1,6
 69 1252 69 1252 99 1252 c 0,7,8
 118 1252 118 1252 134.5 1242.5 c 128,-1,9
 151 1233 151 1233 176 1208 c 2,10,-1
 447 935 l 1,11,-1
 373 935 l 1,0,-1
EndSplineSet
EndChar

StartChar: braceleft
Encoding: 123 123 17
Width: 685
GlyphClass: 2
Flags: W
LayerCount: 2
Fore
SplineSet
611 1177 m 1,0,-1
 611 1138 l 1,1,2
 526 1121 526 1121 485.5 1078 c 128,-1,3
 445 1035 445 1035 445 978 c 0,4,5
 445 922 445 922 465 837.5 c 128,-1,6
 485 753 485 753 485 690 c 0,7,8
 485 633 485 633 451.5 573 c 128,-1,9
 418 513 418 513 353 471 c 0,10,11
 307 441 307 441 210 414 c 1,12,13
 315 382 315 382 363 350 c 0,14,15
 425 306 425 306 456.5 247.5 c 128,-1,16
 488 189 488 189 488 137 c 0,17,18
 488 86 488 86 467 1 c 128,-1,19
 446 -84 446 -84 446 -146 c 0,20,21
 446 -207 446 -207 485 -251 c 128,-1,22
 524 -295 524 -295 611 -312 c 1,23,-1
 611 -351 l 1,24,-1
 581 -351 l 2,25,26
 494 -352 494 -352 416.5 -311 c 128,-1,27
 339 -270 339 -270 300 -206 c 128,-1,28
 261 -142 261 -142 261 -83 c 0,29,30
 261 -23 261 -23 286 78 c 0,31,32
 306 154 306 154 306 213 c 0,33,34
 306 280 306 280 264 327 c 128,-1,35
 222 374 222 374 140 388 c 1,36,-1
 140 439 l 1,37,38
 222 453 222 453 264 502 c 128,-1,39
 306 551 306 551 306 621 c 0,40,41
 306 679 306 679 287 752 c 0,42,43
 261 852 261 852 261 905 c 0,44,45
 261 960 261 960 294.5 1017 c 128,-1,46
 328 1074 328 1074 377.5 1109.5 c 128,-1,47
 427 1145 427 1145 487 1161 c 0,48,49
 532 1173 532 1173 611 1177 c 1,0,-1
EndSplineSet
EndChar

StartChar: bar
Encoding: 124 124 18
Width: 383
Flags: W
LayerCount: 2
Fore
SplineSet
135 -375 m 1,0,-1
 135 1177 l 1,1,-1
 245 1177 l 1,2,-1
 245 -375 l 1,3,-1
 135 -375 l 1,0,-1
EndSplineSet
EndChar

StartChar: asciitilde
Encoding: 126 126 19
Width: 903
Flags: W
LayerCount: 2
Fore
SplineSet
885 601 m 1,0,-1
 934 601 l 1,1,2
 929 466 929 466 864 397 c 128,-1,3
 799 328 799 328 706 328 c 0,4,5
 660 328 660 328 610 342 c 128,-1,6
 560 356 560 356 388 428 c 0,7,8
 264 480 264 480 209 480 c 0,9,10
 151 480 151 480 112.5 444.5 c 128,-1,11
 74 409 74 409 59 329 c 1,12,-1
 11 329 l 1,13,14
 17 467 17 467 79.5 534.5 c 128,-1,15
 142 602 142 602 231 602 c 0,16,17
 276 602 276 602 319 590 c 0,18,19
 405 566 405 566 555 501 c 0,20,21
 637 465 637 465 681 454 c 0,22,23
 706 447 706 447 736 447 c 0,24,25
 795 447 795 447 836.5 487 c 128,-1,26
 878 527 878 527 885 601 c 1,0,-1
EndSplineSet
EndChar

StartChar: agrave
Encoding: 224 224 20
Width: 1075
Flags: W
LayerCount: 2
Fore
SplineSet
741 331 m 1,0,1
 720 266 720 266 690.5 213 c 128,-1,2
 661 160 661 160 626 114 c 0,3,4
 519 -19 519 -19 400 -19 c 0,5,6
 208 -19 208 -19 159 214 c 0,7,8
 133 334 133 334 157 451 c 128,-1,9
 181 568 181 568 252 683 c 0,10,11
 325 801 325 801 433 860 c 128,-1,12
 541 919 541 919 684 919 c 0,13,14
 712 919 712 919 746 918.5 c 128,-1,15
 780 918 780 918 815.5 916 c 128,-1,16
 851 914 851 914 886 912 c 128,-1,17
 921 910 921 910 952 908 c 1,18,-1
 946 646 l 1,19,-1
 946 647 l 1,20,-1
 950 254 l 2,21,22
 952 209 952 209 954.5 179.5 c 128,-1,23
 957 150 957 150 958 139 c 0,24,25
 961 114 961 114 985 114 c 0,26,27
 1053 114 1053 114 1214 346 c 1,28,-1
 1218 179 l 1,29,30
 1073 -19 1073 -19 925 -19 c 0,31,32
 785 -19 785 -19 753 126 c 0,33,34
 749 146 749 146 747 182 c 128,-1,35
 745 218 745 218 745 264 c 2,36,-1
 741 331 l 1,0,1
737 758 m 1,37,38
 688 775 688 775 647 783.5 c 128,-1,39
 606 792 606 792 561 792 c 0,40,41
 497 792 497 792 453.5 749.5 c 128,-1,42
 410 707 410 707 387 625 c 0,43,44
 362 522 362 522 357 425 c 128,-1,45
 352 328 352 328 368 248 c 0,46,47
 388 146 388 146 437 146 c 0,48,49
 493 146 493 146 589 280 c 0,50,51
 637 352 637 352 674 430 c 128,-1,52
 711 508 711 508 739 599 c 1,53,-1
 737 758 l 1,37,38
662 590 m 1,54,-1
 377 769 l 2,55,56
 353 787 353 787 338.5 806.5 c 128,-1,57
 324 826 324 826 324 849 c 0,58,59
 324 875 324 875 341 891 c 128,-1,60
 358 907 358 907 388 907 c 0,61,62
 407 907 407 907 423.5 897.5 c 128,-1,63
 440 888 440 888 465 863 c 2,64,-1
 736 590 l 1,65,-1
 662 590 l 1,54,-1
EndSplineSet
EndChar

StartChar: ocircumflex.001
Encoding: 65539 -1 26
Width: 1112
Flags: W
LayerCount: 2
Fore
SplineSet
416 -19 m 0,0,1
 301 -19 301 -19 205 70 c 0,2,3
 110 160 110 160 85 288 c 0,4,5
 32 528 32 528 170 726 c 0,6,7
 307 928 307 928 522 928 c 0,8,9
 643 928 643 928 742 842 c 1,10,11
 837 753 837 753 864 626 c 0,12,13
 890 499 890 499 869 388.5 c 128,-1,14
 848 278 848 278 781 179 c 0,15,16
 711 79 711 79 619.5 30 c 128,-1,17
 528 -19 528 -19 416 -19 c 0,0,1
483 98 m 0,18,19
 536 98 536 98 573.5 133 c 128,-1,20
 611 168 611 168 637 236 c 0,21,22
 665 310 665 310 668.5 393.5 c 128,-1,23
 672 477 672 477 652 574 c 0,24,25
 602 813 602 813 466 813 c 0,26,27
 365 813 365 813 313 670 c 0,28,29
 284 595 284 595 281 510.5 c 128,-1,30
 278 426 278 426 298 332 c 0,31,32
 324 213 324 213 370 155.5 c 128,-1,33
 416 98 416 98 483 98 c 0,18,19
EndSplineSet
EndChar

StartChar: dagger
Encoding: 8224 8224 30
Width: 932
Flags: W
LayerCount: 2
Fore
SplineSet
347 -231 m 1,0,-1
 567 622 l 1,1,-1
 248 592 l 1,2,-1
 297 700 l 1,3,-1
 576 668 l 1,4,-1
 607 1066 l 1,5,-1
 755 1093 l 1,6,-1
 621 668 l 1,7,-1
 941 700 l 1,8,-1
 895 592 l 1,9,-1
 612 622 l 1,10,-1
 496 -213 l 1,11,-1
 347 -231 l 1,0,-1
EndSplineSet
EndChar

StartChar: degree
Encoding: 176 176 31
Width: 409
Flags: W
LayerCount: 2
Fore
SplineSet
395 844 m 0,0,1
 344 844 344 844 307.5 880 c 128,-1,2
 271 916 271 916 271 968 c 0,3,4
 271 1021 271 1021 307.5 1057 c 128,-1,5
 344 1093 344 1093 395 1093 c 0,6,7
 447 1093 447 1093 483 1057 c 128,-1,8
 519 1021 519 1021 519 968 c 0,9,10
 519 916 519 916 483 880 c 128,-1,11
 447 844 447 844 395 844 c 0,0,1
395 888 m 256,12,13
 427 888 427 888 450.5 912 c 128,-1,14
 474 936 474 936 474 968 c 256,15,16
 474 1000 474 1000 450.5 1024 c 128,-1,17
 427 1048 427 1048 395 1048 c 256,18,19
 363 1048 363 1048 339 1024 c 128,-1,20
 315 1000 315 1000 315 968 c 256,21,22
 315 936 315 936 339 912 c 128,-1,23
 363 888 363 888 395 888 c 256,12,13
EndSplineSet
EndChar

StartChar: bullet
Encoding: 8226 8226 32
Width: 931
Flags: W
LayerCount: 2
Fore
SplineSet
817 662 m 256,0,1
 817 517 817 517 713.5 414 c 128,-1,2
 610 311 610 311 465 311 c 256,3,4
 320 311 320 311 217 414 c 128,-1,5
 114 517 114 517 114 662 c 256,6,7
 114 807 114 807 217 910 c 128,-1,8
 320 1013 320 1013 465 1013 c 256,9,10
 610 1013 610 1013 713.5 910 c 128,-1,11
 817 807 817 807 817 662 c 256,0,1
EndSplineSet
EndChar

StartChar: registered
Encoding: 174 174 33
Width: 897
Flags: W
LayerCount: 2
Fore
SplineSet
580 445 m 0,0,1
 448 445 448 445 354.5 538.5 c 128,-1,2
 261 632 261 632 261 764 c 256,3,4
 261 896 261 896 354.5 990 c 128,-1,5
 448 1084 448 1084 580 1084 c 0,6,7
 714 1084 714 1084 807 990 c 128,-1,8
 900 896 900 896 900 764 c 256,9,10
 900 632 900 632 806.5 538.5 c 128,-1,11
 713 445 713 445 580 445 c 0,0,1
580 484 m 0,12,13
 695 484 695 484 777.5 567 c 128,-1,14
 860 650 860 650 860 764 c 256,15,16
 860 878 860 878 777.5 961 c 128,-1,17
 695 1044 695 1044 580 1044 c 0,18,19
 466 1044 466 1044 383.5 961 c 128,-1,20
 301 878 301 878 301 764 c 256,21,22
 301 650 301 650 383.5 567 c 128,-1,23
 466 484 466 484 580 484 c 0,12,13
529 737 m 1,24,-1
 501 596 l 1,25,-1
 394 596 l 1,26,-1
 403 639 l 1,27,-1
 456 639 l 1,28,-1
 511 915 l 1,29,-1
 458 915 l 1,30,-1
 466 959 l 1,31,-1
 598 959 l 2,32,33
 751 959 751 959 751 875 c 0,34,35
 751 800 751 800 650 750 c 1,36,-1
 685 639 l 1,37,-1
 747 639 l 1,38,-1
 738 596 l 1,39,-1
 641 596 l 1,40,-1
 591 737 l 1,41,-1
 529 737 l 1,24,-1
538 782 m 1,42,-1
 574 782 l 2,43,44
 697 782 697 782 697 866 c 0,45,46
 697 915 697 915 607 915 c 2,47,-1
 564 915 l 1,48,-1
 538 782 l 1,42,-1
EndSplineSet
EndChar

StartChar: copyright
Encoding: 169 169 34
Width: 1244
Flags: W
LayerCount: 2
Fore
SplineSet
725 -27 m 0,0,1
 495 -27 495 -27 330.5 137 c 128,-1,2
 166 301 166 301 166 533 c 256,3,4
 166 765 166 765 330.5 929 c 128,-1,5
 495 1093 495 1093 725 1093 c 0,6,7
 958 1093 958 1093 1122 929 c 128,-1,8
 1286 765 1286 765 1286 533 c 256,9,10
 1286 301 1286 301 1122 137 c 128,-1,11
 958 -27 958 -27 725 -27 c 0,0,1
725 18 m 0,12,13
 939 18 939 18 1090 169 c 128,-1,14
 1241 320 1241 320 1241 533 c 256,15,16
 1241 746 1241 746 1090 897 c 128,-1,17
 939 1048 939 1048 725 1048 c 0,18,19
 513 1048 513 1048 362 897 c 128,-1,20
 211 746 211 746 211 533 c 256,21,22
 211 320 211 320 362 169 c 128,-1,23
 513 18 513 18 725 18 c 0,12,13
890 246 m 1,24,25
 785 213 785 213 704 213 c 0,26,27
 580 213 580 213 508 279.5 c 128,-1,28
 436 346 436 346 436 462 c 0,29,30
 436 625 436 625 541 734.5 c 128,-1,31
 646 844 646 844 805 844 c 0,32,33
 896 844 896 844 1003 814 c 1,34,-1
 967 675 l 1,35,-1
 915 684 l 1,36,-1
 923 766 l 1,37,38
 854 798 854 798 792 798 c 0,39,40
 688 798 688 798 616 700 c 128,-1,41
 544 602 544 602 544 462 c 0,42,43
 544 271 544 271 722 271 c 0,44,45
 823 271 823 271 902 307 c 1,46,-1
 890 246 l 1,24,25
EndSplineSet
EndChar

StartChar: trademark
Encoding: 8482 8482 35
Width: 1333
Flags: W
LayerCount: 2
Fore
SplineSet
440 1021 m 1,0,-1
 307 1021 l 1,1,-1
 288 923 l 1,2,-1
 225 923 l 1,3,-1
 254 1066 l 1,4,-1
 751 1066 l 1,5,-1
 723 923 l 1,6,-1
 661 923 l 1,7,-1
 679 1021 l 1,8,-1
 546 1021 l 1,9,-1
 456 569 l 1,10,-1
 554 569 l 1,11,-1
 545 524 l 1,12,-1
 243 524 l 1,13,-1
 253 569 l 1,14,-1
 350 569 l 1,15,-1
 440 1021 l 1,0,-1
1011 569 m 1,16,-1
 942 956 l 1,17,-1
 857 524 l 1,18,-1
 688 524 l 1,19,-1
 697 569 l 1,20,-1
 794 569 l 1,21,-1
 884 1021 l 1,22,-1
 787 1021 l 1,23,-1
 796 1066 l 1,24,-1
 1036 1066 l 1,25,-1
 1092 747 l 1,26,-1
 1265 1066 l 1,27,-1
 1481 1066 l 1,28,-1
 1473 1021 l 1,29,-1
 1375 1021 l 1,30,-1
 1285 569 l 1,31,-1
 1383 569 l 1,32,-1
 1373 524 l 1,33,-1
 1178 524 l 1,34,-1
 1270 985 l 1,35,-1
 1041 569 l 1,36,-1
 1011 569 l 1,16,-1
EndSplineSet
EndChar

StartChar: logicalnot
Encoding: 172 172 39
Width: 932
Flags: W
LayerCount: 2
Fore
SplineSet
177 510 m 1,0,-1
 193 590 l 1,1,-1
 975 590 l 1,2,-1
 906 248 l 1,3,-1
 814 248 l 1,4,-1
 866 510 l 1,5,-1
 177 510 l 1,0,-1
EndSplineSet
EndChar

StartChar: florin
Encoding: 402 402 40
Width: 679
Flags: W
LayerCount: 2
Fore
SplineSet
158 -231 m 1,0,-1
 210 -18 l 1,1,-1
 286 364 l 1,2,-1
 108 364 l 1,3,-1
 117 409 l 1,4,-1
 294 409 l 1,5,-1
 298 427 l 2,6,7
 330 586 330 586 463 692.5 c 128,-1,8
 596 799 596 799 761 799 c 0,9,10
 818 799 818 799 860 784 c 1,11,-1
 764 678 l 1,12,13
 712 729 712 729 643 729 c 0,14,15
 500 729 500 729 457 512 c 2,16,-1
 436 409 l 1,17,-1
 623 409 l 1,18,-1
 614 364 l 1,19,-1
 427 364 l 1,20,-1
 313 -213 l 1,21,-1
 158 -231 l 1,0,-1
EndSplineSet
EndChar

StartChar: ellipsis
Encoding: 8230 8230 41
Width: 1827
Flags: W
LayerCount: 2
Fore
SplineSet
758 113 m 0,0,1
 758 144 758 144 809.5 245.5 c 128,-1,2
 861 347 861 347 876 355 c 0,3,4
 907 369 907 369 964.5 307.5 c 128,-1,5
 1022 246 1022 246 1026 211 c 1,6,7
 1026 166 1026 166 977.5 79.5 c 128,-1,8
 929 -7 929 -7 908 -7 c 0,9,10
 899 -7 899 -7 851 26.5 c 128,-1,11
 803 60 803 60 778 79 c 0,12,13
 758 96 758 96 758 113 c 0,0,1
1308 113 m 0,14,15
 1308 144 1308 144 1359 245.5 c 128,-1,16
 1410 347 1410 347 1426 355 c 0,17,18
 1457 369 1457 369 1514.5 307.5 c 128,-1,19
 1572 246 1572 246 1575 211 c 0,20,21
 1575 166 1575 166 1527 79.5 c 128,-1,22
 1479 -7 1479 -7 1458 -7 c 0,23,24
 1449 -7 1449 -7 1401 26.5 c 128,-1,25
 1353 60 1353 60 1328 79 c 0,26,27
 1308 96 1308 96 1308 113 c 0,14,15
211 113 m 0,28,29
 211 144 211 144 262 245.5 c 128,-1,30
 313 347 313 347 329 355 c 0,31,32
 360 369 360 369 417.5 307.5 c 128,-1,33
 475 246 475 246 478 211 c 0,34,35
 478 166 478 166 430 79.5 c 128,-1,36
 382 -7 382 -7 361 -7 c 0,37,38
 352 -7 352 -7 304 26.5 c 128,-1,39
 256 60 256 60 231 79 c 0,40,41
 211 96 211 96 211 113 c 0,28,29
EndSplineSet
EndChar

StartChar: endash
Encoding: 8211 8211 42
Width: 434
Flags: W
LayerCount: 2
Fore
SplineSet
434 154 m 1,0,-1
 0 154 l 1,1,-1
 0 234 l 1,2,-1
 434 234 l 1,3,-1
 434 154 l 1,0,-1
EndSplineSet
EndChar

StartChar: emdash
Encoding: 8212 8212 43
Width: 1862
Flags: W
LayerCount: 2
Fore
SplineSet
1866 572 m 1,0,-1
 -4 572 l 1,1,-1
 -4 732 l 1,2,-1
 1866 732 l 1,3,-1
 1866 572 l 1,0,-1
EndSplineSet
EndChar

StartChar: quotedblleft
Encoding: 8220 8220 44
Width: 613
Flags: W
LayerCount: 2
Fore
SplineSet
340 993 m 0,0,1
 341 1058 341 1058 385 1121.5 c 128,-1,2
 429 1185 429 1185 483 1211 c 1,3,-1
 514 1153 l 1,4,5
 498 1144 498 1144 476 1120 c 128,-1,6
 454 1096 454 1096 444 1058 c 1,7,8
 510 1030 510 1030 507 975 c 0,9,10
 507 959 507 959 500.5 944.5 c 128,-1,11
 494 930 494 930 483.5 919 c 128,-1,12
 473 908 473 908 458 901.5 c 128,-1,13
 443 895 443 895 427 895 c 0,14,15
 406 895 406 895 390 903.5 c 128,-1,16
 374 912 374 912 363 925.5 c 128,-1,17
 352 939 352 939 346 957 c 128,-1,18
 340 975 340 975 340 993 c 0,0,1
121 993 m 0,19,20
 122 1058 122 1058 166 1121.5 c 128,-1,21
 210 1185 210 1185 265 1211 c 1,22,-1
 296 1153 l 1,23,24
 280 1144 280 1144 258 1120 c 128,-1,25
 236 1096 236 1096 226 1058 c 1,26,27
 292 1030 292 1030 289 975 c 0,28,29
 289 959 289 959 282.5 944.5 c 128,-1,30
 276 930 276 930 265 919 c 128,-1,31
 254 908 254 908 239 901.5 c 128,-1,32
 224 895 224 895 208 895 c 0,33,34
 188 895 188 895 171.5 903.5 c 128,-1,35
 155 912 155 912 144 925.5 c 128,-1,36
 133 939 133 939 127 957 c 128,-1,37
 121 975 121 975 121 993 c 0,19,20
EndSplineSet
EndChar

StartChar: quotedblright
Encoding: 8221 8221 45
Width: 597
Flags: W
LayerCount: 2
Fore
SplineSet
295 1113 m 0,0,1
 294 1048 294 1048 250 984.5 c 128,-1,2
 206 921 206 921 152 895 c 1,3,-1
 121 953 l 1,4,5
 137 962 137 962 159 986 c 128,-1,6
 181 1010 181 1010 191 1048 c 1,7,8
 125 1076 125 1076 128 1131 c 0,9,10
 128 1147 128 1147 134.5 1161.5 c 128,-1,11
 141 1176 141 1176 151.5 1187 c 128,-1,12
 162 1198 162 1198 176.5 1204.5 c 128,-1,13
 191 1211 191 1211 208 1211 c 0,14,15
 229 1211 229 1211 245 1202.5 c 128,-1,16
 261 1194 261 1194 272 1180.5 c 128,-1,17
 283 1167 283 1167 289 1149 c 128,-1,18
 295 1131 295 1131 295 1113 c 0,0,1
514 1113 m 0,19,20
 513 1048 513 1048 469 984.5 c 128,-1,21
 425 921 425 921 370 895 c 1,22,-1
 339 953 l 1,23,24
 355 962 355 962 377 986 c 128,-1,25
 399 1010 399 1010 409 1048 c 1,26,27
 343 1076 343 1076 346 1131 c 0,28,29
 346 1147 346 1147 352.5 1161.5 c 128,-1,30
 359 1176 359 1176 370 1187 c 128,-1,31
 381 1198 381 1198 395.5 1204.5 c 128,-1,32
 410 1211 410 1211 427 1211 c 0,33,34
 447 1211 447 1211 463 1202.5 c 128,-1,35
 479 1194 479 1194 490.5 1180.5 c 128,-1,36
 502 1167 502 1167 508 1149 c 128,-1,37
 514 1131 514 1131 514 1113 c 0,19,20
EndSplineSet
EndChar

StartChar: divide
Encoding: 247 247 46
Width: 1179
Flags: W
LayerCount: 2
Fore
SplineSet
969 473 m 1,0,-1
 213 473 l 1,1,-1
 213 623 l 1,2,-1
 969 623 l 1,3,-1
 969 473 l 1,0,-1
498 836 m 256,4,5
 498 858 498 858 506.5 877.5 c 128,-1,6
 515 897 515 897 529.5 911.5 c 128,-1,7
 544 926 544 926 563.5 934.5 c 128,-1,8
 583 943 583 943 605 943 c 256,9,10
 627 943 627 943 646.5 934.5 c 128,-1,11
 666 926 666 926 680.5 911.5 c 128,-1,12
 695 897 695 897 703.5 877.5 c 128,-1,13
 712 858 712 858 712 836 c 256,14,15
 712 814 712 814 703.5 794.5 c 128,-1,16
 695 775 695 775 680.5 760.5 c 128,-1,17
 666 746 666 746 646.5 737.5 c 128,-1,18
 627 729 627 729 605 729 c 256,19,20
 583 729 583 729 563.5 737.5 c 128,-1,21
 544 746 544 746 529.5 760.5 c 128,-1,22
 515 775 515 775 506.5 794.5 c 128,-1,23
 498 814 498 814 498 836 c 256,4,5
498 256 m 256,24,25
 498 278 498 278 506.5 297.5 c 128,-1,26
 515 317 515 317 529.5 331.5 c 128,-1,27
 544 346 544 346 563.5 354.5 c 128,-1,28
 583 363 583 363 605 363 c 256,29,30
 627 363 627 363 646.5 354.5 c 128,-1,31
 666 346 666 346 680.5 331.5 c 128,-1,32
 695 317 695 317 703.5 297.5 c 128,-1,33
 712 278 712 278 712 256 c 256,34,35
 712 234 712 234 703.5 214.5 c 128,-1,36
 695 195 695 195 680.5 180.5 c 128,-1,37
 666 166 666 166 646.5 157.5 c 128,-1,38
 627 149 627 149 605 149 c 256,39,40
 583 149 583 149 563.5 157.5 c 128,-1,41
 544 166 544 166 529.5 180.5 c 128,-1,42
 515 195 515 195 506.5 214.5 c 128,-1,43
 498 234 498 234 498 256 c 256,24,25
EndSplineSet
EndChar

StartChar: lozenge
Encoding: 9674 9674 47
Width: 1118
Flags: W
LayerCount: 2
Fore
SplineSet
1003 699 m 1,0,-1
 560 197 l 1,1,-1
 117 699 l 1,2,-1
 560 1202 l 1,3,-1
 1003 699 l 1,0,-1
848 699 m 1,4,-1
 560 1036 l 1,5,-1
 271 699 l 1,6,-1
 560 364 l 1,7,-1
 848 699 l 1,4,-1
EndSplineSet
EndChar

StartChar: fraction
Encoding: 8260 8260 48
Width: 742
Flags: W
LayerCount: 2
Fore
SplineSet
740 1101 m 1,0,-1
 101 -82 l 1,1,-1
 -9 -82 l 1,2,-1
 629 1101 l 1,3,-1
 740 1101 l 1,0,-1
EndSplineSet
EndChar

StartChar: guilsinglleft
Encoding: 8249 8249 49
Width: 1117
Flags: W
LayerCount: 2
Fore
SplineSet
955 58 m 1,0,-1
 150 444 l 1,1,-1
 150 534 l 1,2,-1
 955 918 l 1,3,-1
 955 784 l 1,4,-1
 331 489 l 1,5,-1
 955 192 l 1,6,-1
 955 58 l 1,0,-1
EndSplineSet
EndChar

StartChar: daggerdbl
Encoding: 8225 8225 52
Width: 932
Flags: W
LayerCount: 2
Fore
SplineSet
349 -231 m 1,0,-1
 481 185 l 1,1,-1
 161 154 l 1,2,-1
 211 261 l 1,3,-1
 490 229 l 1,4,-1
 567 616 l 1,5,-1
 247 586 l 1,6,-1
 297 693 l 1,7,-1
 575 661 l 1,8,-1
 608 1066 l 1,9,-1
 758 1093 l 1,10,-1
 620 661 l 1,11,-1
 940 693 l 1,12,-1
 889 586 l 1,13,-1
 611 616 l 1,14,-1
 535 229 l 1,15,-1
 855 261 l 1,16,-1
 804 154 l 1,17,-1
 525 185 l 1,18,-1
 499 -213 l 1,19,-1
 349 -231 l 1,0,-1
EndSplineSet
EndChar

StartChar: middot.001
Encoding: 8729 8729 53
Width: 620
Flags: W
LayerCount: 2
Fore
SplineSet
429 516 m 1,0,-1
 190 516 l 1,1,-1
 190 789 l 1,2,-1
 429 789 l 1,3,-1
 429 516 l 1,0,-1
EndSplineSet
EndChar

StartChar: quotesinglbase
Encoding: 8218 8218 54
Width: 418
Flags: W
LayerCount: 2
Fore
SplineSet
103 128 m 1,0,-1
 247 231 l 1,1,-1
 353 90 l 1,2,3
 345 -56 345 -56 262.5 -134.5 c 128,-1,4
 180 -213 180 -213 36 -213 c 1,5,-1
 76 -168 l 1,6,7
 189 -158 189 -158 211 -18 c 1,8,-1
 103 128 l 1,0,-1
EndSplineSet
EndChar

StartChar: quotedblbase
Encoding: 8222 8222 55
Width: 684
Flags: W
LayerCount: 2
Fore
SplineSet
91 92 m 1,0,-1
 204 178 l 1,1,-1
 292 64 l 1,2,3
 270 -213 270 -213 31 -213 c 1,4,-1
 60 -168 l 1,5,6
 166 -148 166 -148 179 -16 c 1,7,-1
 91 92 l 1,0,-1
401 92 m 1,8,-1
 516 178 l 1,9,-1
 602 64 l 1,10,11
 581 -213 581 -213 341 -213 c 1,12,-1
 372 -168 l 1,13,14
 476 -148 476 -148 490 -16 c 1,15,-1
 401 92 l 1,8,-1
EndSplineSet
EndChar

StartChar: perthousand
Encoding: 8240 8240 56
Width: 1571
Flags: W
LayerCount: 2
Fore
SplineSet
385 533 m 0,0,1
 304 533 304 533 254.5 584.5 c 128,-1,2
 205 636 205 636 205 722 c 0,3,4
 205 865 205 865 286.5 965.5 c 128,-1,5
 368 1066 368 1066 483 1066 c 0,6,7
 567 1066 567 1066 617.5 1014.5 c 128,-1,8
 668 963 668 963 668 877 c 0,9,10
 668 733 668 733 585.5 633 c 128,-1,11
 503 533 503 533 385 533 c 0,0,1
311 715 m 0,12,13
 311 578 311 578 398 578 c 0,14,15
 463 578 463 578 517 671.5 c 128,-1,16
 571 765 571 765 571 881 c 0,17,18
 571 1022 571 1022 483 1022 c 0,19,20
 416 1022 416 1022 363.5 928 c 128,-1,21
 311 834 311 834 311 715 c 0,12,13
850 0 m 0,22,23
 769 0 769 0 719.5 51.5 c 128,-1,24
 670 103 670 103 670 189 c 0,25,26
 670 331 670 331 751 432 c 128,-1,27
 832 533 832 533 947 533 c 0,28,29
 1031 533 1031 533 1081.5 481.5 c 128,-1,30
 1132 430 1132 430 1132 344 c 0,31,32
 1132 200 1132 200 1049.5 100 c 128,-1,33
 967 0 967 0 850 0 c 0,22,23
776 182 m 0,34,35
 776 44 776 44 862 44 c 0,36,37
 929 44 929 44 982 138 c 128,-1,38
 1035 232 1035 232 1035 348 c 0,39,40
 1035 490 1035 490 948 490 c 0,41,42
 880 490 880 490 828 395.5 c 128,-1,43
 776 301 776 301 776 182 c 0,34,35
131 -27 m 1,44,-1
 1111 1093 l 1,45,-1
 1206 1093 l 1,46,-1
 225 -27 l 1,47,-1
 131 -27 l 1,44,-1
1376 0 m 0,48,49
 1294 0 1294 0 1244.5 51.5 c 128,-1,50
 1195 103 1195 103 1195 189 c 0,51,52
 1195 331 1195 331 1276.5 432 c 128,-1,53
 1358 533 1358 533 1473 533 c 0,54,55
 1557 533 1557 533 1607.5 481.5 c 128,-1,56
 1658 430 1658 430 1658 344 c 0,57,58
 1658 200 1658 200 1575.5 100 c 128,-1,59
 1493 0 1493 0 1376 0 c 0,48,49
1301 183 m 0,60,61
 1301 44 1301 44 1389 44 c 0,62,63
 1453 44 1453 44 1507 138 c 128,-1,64
 1561 232 1561 232 1561 347 c 0,65,66
 1561 490 1561 490 1473 490 c 0,67,68
 1406 490 1406 490 1353.5 395.5 c 128,-1,69
 1301 301 1301 301 1301 183 c 0,60,61
EndSplineSet
EndChar

StartChar: multiply
Encoding: 215 215 60
Width: 756
Flags: W
LayerCount: 2
Fore
SplineSet
290 503 m 1,0,-1
 106 687 l 1,1,-1
 200 781 l 1,2,-1
 384 597 l 1,3,-1
 571 784 l 1,4,-1
 665 690 l 1,5,-1
 478 503 l 1,6,-1
 671 310 l 1,7,-1
 577 216 l 1,8,-1
 384 409 l 1,9,-1
 198 223 l 1,10,-1
 104 317 l 1,11,-1
 290 503 l 1,0,-1
EndSplineSet
EndChar

StartChar: macron
Encoding: 175 175 61
Width: 1118
Flags: W
LayerCount: 2
Fore
SplineSet
1134 1259 m 1,0,-1
 -16 1259 l 1,1,-1
 -16 1389 l 1,2,-1
 1134 1389 l 1,3,-1
 1134 1259 l 1,0,-1
EndSplineSet
EndChar

StartChar: periodcentered
Encoding: 183 183 62
Width: 724
Flags: W
LayerCount: 2
Fore
SplineSet
482 832 m 1,0,-1
 243 832 l 1,1,-1
 243 1117 l 1,2,-1
 482 1117 l 1,3,-1
 482 832 l 1,0,-1
EndSplineSet
EndChar

StartChar: H22073
Encoding: 9633 9633 63
Width: 1237
Flags: W
LayerCount: 2
Fore
SplineSet
146 944 m 1,0,-1
 1090 944 l 1,1,-1
 1090 0 l 1,2,-1
 146 0 l 1,3,-1
 146 944 l 1,0,-1
222 868 m 1,4,-1
 222 76 l 1,5,-1
 1014 76 l 1,6,-1
 1014 868 l 1,7,-1
 222 868 l 1,4,-1
EndSplineSet
EndChar

StartChar: H18543
Encoding: 9642 9642 64
Width: 1089
Flags: W
LayerCount: 2
Fore
SplineSet
886 894 m 1,0,-1
 886 200 l 1,1,-1
 192 200 l 1,2,-1
 192 894 l 1,3,-1
 886 894 l 1,0,-1
EndSplineSet
EndChar

StartChar: H18551
Encoding: 9643 9643 65
Width: 1089
Flags: W
LayerCount: 2
Fore
SplineSet
888 930 m 1,0,-1
 888 235 l 1,1,-1
 193 235 l 1,2,-1
 193 930 l 1,3,-1
 888 930 l 1,0,-1
774 816 m 1,4,-1
 307 816 l 1,5,-1
 307 349 l 1,6,-1
 774 349 l 1,7,-1
 774 816 l 1,4,-1
EndSplineSet
EndChar

StartChar: H18533
Encoding: 9679 9679 66
Width: 1339
Flags: W
LayerCount: 2
Fore
SplineSet
204 775 m 0,0,1
 204 976 204 976 345 1117 c 128,-1,2
 486 1258 486 1258 685 1258 c 0,3,4
 885 1258 885 1258 1026 1117 c 128,-1,5
 1167 976 1167 976 1167 775 c 0,6,7
 1167 577 1167 577 1026 436 c 128,-1,8
 885 295 885 295 685 295 c 0,9,10
 486 295 486 295 345 436 c 128,-1,11
 204 577 204 577 204 775 c 0,0,1
EndSplineSet
EndChar

StartChar: openbullet
Encoding: 9702 9702 67
Width: 1089
Flags: W
LayerCount: 2
Fore
SplineSet
544 1392 m 0,0,1
 700 1392 700 1392 810.5 1281.5 c 128,-1,2
 921 1171 921 1171 921 1015 c 256,3,4
 921 859 921 859 810.5 749 c 128,-1,5
 700 639 700 639 544 639 c 256,6,7
 388 639 388 639 278 749 c 128,-1,8
 168 859 168 859 168 1015 c 256,9,10
 168 1171 168 1171 277.5 1281.5 c 128,-1,11
 387 1392 387 1392 544 1392 c 0,0,1
544 1278 m 0,12,13
 435 1278 435 1278 358.5 1200.5 c 128,-1,14
 282 1123 282 1123 282 1015 c 0,15,16
 282 906 282 906 359 829.5 c 128,-1,17
 436 753 436 753 544 753 c 256,18,19
 652 753 652 753 729.5 829.5 c 128,-1,20
 807 906 807 906 807 1015 c 0,21,22
 807 1123 807 1123 730.5 1200.5 c 128,-1,23
 654 1278 654 1278 544 1278 c 0,12,13
EndSplineSet
EndChar

StartChar: uniFFFC
Encoding: 65532 65532 68
Width: 2048
Flags: W
LayerCount: 2
Fore
SplineSet
2048 1150 m 1,0,-1
 1948 1150 l 1,1,-1
 1948 1373 l 1,2,-1
 1725 1373 l 1,3,-1
 1725 1473 l 1,4,-1
 2048 1473 l 1,5,-1
 2048 1150 l 1,0,-1
1473 1373 m 1,6,-1
 1150 1373 l 1,7,-1
 1150 1473 l 1,8,-1
 1473 1473 l 1,9,-1
 1473 1373 l 1,6,-1
2048 575 m 1,10,-1
 1948 575 l 1,11,-1
 1948 898 l 1,12,-1
 2048 898 l 1,13,-1
 2048 575 l 1,10,-1
1782 611 m 2,14,15
 1782 370 1782 370 1571 370 c 0,16,17
 1485 370 1485 370 1433 415 c 1,18,-1
 1506 494 l 1,19,20
 1531 468 1531 468 1571 468 c 0,21,22
 1666 468 1666 468 1666 606 c 2,23,-1
 1666 1090 l 1,24,-1
 1782 1090 l 1,25,-1
 1782 611 l 2,14,15
898 1373 m 1,26,-1
 575 1373 l 1,27,-1
 575 1473 l 1,28,-1
 898 1473 l 1,29,-1
 898 1373 l 1,26,-1
2048 0 m 1,30,-1
 1725 0 l 1,31,-1
 1725 100 l 1,32,-1
 1948 100 l 1,33,-1
 1948 323 l 1,34,-1
 2048 323 l 1,35,-1
 2048 0 l 1,30,-1
1423 591 m 0,36,37
 1423 382 1423 382 1149 382 c 2,38,-1
 909 382 l 1,39,-1
 909 1090 l 1,40,-1
 1144 1090 l 2,41,42
 1393 1090 1393 1090 1393 904 c 0,43,44
 1393 813 1393 813 1304 759 c 1,45,46
 1423 713 1423 713 1423 591 c 0,36,37
323 1373 m 1,47,-1
 100 1373 l 1,48,-1
 100 1150 l 1,49,-1
 0 1150 l 1,50,-1
 0 1473 l 1,51,-1
 323 1473 l 1,52,-1
 323 1373 l 1,47,-1
1473 0 m 1,53,-1
 1150 0 l 1,54,-1
 1150 100 l 1,55,-1
 1473 100 l 1,56,-1
 1473 0 l 1,53,-1
854 735 m 0,57,58
 854 562 854 562 772 466 c 128,-1,59
 690 370 690 370 537 370 c 256,60,61
 384 370 384 370 303.5 466 c 128,-1,62
 223 562 223 562 223 735 c 0,63,64
 223 910 223 910 303.5 1006 c 128,-1,65
 384 1102 384 1102 537 1102 c 256,66,67
 690 1102 690 1102 772 1006 c 128,-1,68
 854 910 854 910 854 735 c 0,57,58
100 575 m 1,69,-1
 0 575 l 1,70,-1
 0 898 l 1,71,-1
 100 898 l 1,72,-1
 100 575 l 1,69,-1
898 0 m 1,73,-1
 575 0 l 1,74,-1
 575 100 l 1,75,-1
 898 100 l 1,76,-1
 898 0 l 1,73,-1
323 0 m 1,77,-1
 0 0 l 1,78,-1
 0 323 l 1,79,-1
 100 323 l 1,80,-1
 100 100 l 1,81,-1
 323 100 l 1,82,-1
 323 0 l 1,77,-1
1277 893 m 0,83,84
 1277 992 1277 992 1114 992 c 2,85,-1
 1025 992 l 1,86,-1
 1025 798 l 1,87,-1
 1126 798 l 2,88,89
 1277 798 1277 798 1277 893 c 0,83,84
1307 591 m 0,90,91
 1307 700 1307 700 1136 700 c 2,92,-1
 1025 700 l 1,93,-1
 1025 480 l 1,94,-1
 1149 480 l 2,95,96
 1307 480 1307 480 1307 591 c 0,90,91
738 735 m 0,97,98
 738 1004 738 1004 537 1004 c 0,99,100
 339 1004 339 1004 339 735 c 0,101,102
 339 468 339 468 537 468 c 0,103,104
 738 468 738 468 738 735 c 0,97,98
EndSplineSet
EndChar

StartChar: zerowidthnonjoiner
Encoding: 8204 8204 88
Width: 0
GlyphClass: 2
Flags: W
LayerCount: 2
Fore
SplineSet
36 1289 m 1,0,-1
 36 -275 l 1,1,-1
 -36 -275 l 1,2,-1
 -36 1289 l 1,3,-1
 36 1289 l 1,0,-1
EndSplineSet
EndChar

StartChar: zerowidthjoiner
Encoding: 8205 8205 89
Width: 0
GlyphClass: 2
Flags: W
LayerCount: 2
Fore
SplineSet
36 -275 m 1,0,-1
 -36 -275 l 1,1,-1
 -36 1114 l 1,2,-1
 -170 978 l 1,3,-1
 -219 1027 l 1,4,-1
 -48 1196 l 1,5,-1
 -219 1364 l 1,6,-1
 -170 1413 l 1,7,-1
 0 1242 l 1,8,-1
 170 1413 l 1,9,-1
 219 1364 l 1,10,-1
 48 1196 l 1,11,-1
 219 1027 l 1,12,-1
 170 978 l 1,13,-1
 36 1114 l 1,14,-1
 36 -275 l 1,0,-1
EndSplineSet
EndChar

StartChar: lefttorightmark
Encoding: 8206 8206 90
Width: 0
GlyphClass: 2
Flags: W
LayerCount: 2
Fore
SplineSet
430 1198 m 1,0,-1
 213 984 l 1,1,-1
 164 1033 l 1,2,-1
 301 1163 l 1,3,-1
 35 1163 l 1,4,-1
 35 -275 l 1,5,-1
 -36 -275 l 1,6,-1
 -36 1234 l 1,7,-1
 301 1234 l 1,8,-1
 164 1364 l 1,9,-1
 213 1413 l 1,10,-1
 430 1198 l 1,0,-1
EndSplineSet
EndChar

StartChar: righttoleftmark
Encoding: 8207 8207 91
Width: 0
GlyphClass: 2
Flags: W
LayerCount: 2
Fore
SplineSet
35 -275 m 1,0,-1
 -36 -275 l 1,1,-1
 -36 1163 l 1,2,-1
 -302 1163 l 1,3,-1
 -165 1033 l 1,4,-1
 -214 984 l 1,5,-1
 -431 1198 l 1,6,-1
 -214 1413 l 1,7,-1
 -165 1364 l 1,8,-1
 -302 1234 l 1,9,-1
 35 1234 l 1,10,-1
 35 -275 l 1,0,-1
EndSplineSet
EndChar

StartChar: afii57388.001
Encoding: 1644 1644 92
Width: 353
GlyphClass: 2
Flags: W
LayerCount: 2
Fore
SplineSet
210 654 m 0,0,1
 200 627 200 627 185 603 c 0,2,3
 180 597 180 597 173.5 593.5 c 128,-1,4
 167 590 167 590 162 590 c 128,-1,5
 157 590 157 590 154.5 593 c 128,-1,6
 152 596 152 596 155 603 c 0,7,8
 187 660 187 660 202.5 713.5 c 128,-1,9
 218 767 218 767 218 800 c 1,10,11
 194 806 194 806 179 816 c 128,-1,12
 164 826 164 826 155 837.5 c 128,-1,13
 146 849 146 849 143 859 c 128,-1,14
 140 869 140 869 140 874 c 0,15,16
 140 890 140 890 145.5 907 c 128,-1,17
 151 924 151 924 160.5 937.5 c 128,-1,18
 170 951 170 951 183.5 959.5 c 128,-1,19
 197 968 197 968 213 968 c 0,20,21
 272 968 272 968 272 874 c 0,22,23
 272 859 272 859 268 835 c 128,-1,24
 264 811 264 811 256 781.5 c 128,-1,25
 248 752 248 752 236.5 719.5 c 128,-1,26
 225 687 225 687 210 654 c 0,0,1
EndSplineSet
EndChar

StartChar: afii57409
Encoding: 1569 1569 93
Width: 694
GlyphClass: 2
Flags: W
AnchorPoint: "Anchor-3" 300 -270 basechar 0
AnchorPoint: "Anchor-2" 330 525 basechar 0
LayerCount: 2
Fore
SplineSet
564 82 m 1,0,1
 495 84 495 84 398.5 55 c 128,-1,2
 302 26 302 26 185 -32 c 1,3,-1
 171 17 l 1,4,5
 192 52 192 52 222 77.5 c 128,-1,6
 252 103 252 103 279 125 c 1,7,8
 255 139 255 139 228.5 170.5 c 128,-1,9
 202 202 202 202 202 218 c 0,10,11
 202 242 202 242 235.5 309.5 c 128,-1,12
 269 377 269 377 331.5 439 c 128,-1,13
 394 501 394 501 465 501 c 0,14,15
 503 501 503 501 525 482 c 0,16,17
 549 463 549 463 549 418 c 0,18,19
 549 377 549 377 540.5 351.5 c 128,-1,20
 532 326 532 326 521 310 c 1,21,22
 511 327 511 327 495 342 c 0,23,24
 476 361 476 361 447 361 c 0,25,26
 412 361 412 361 353 327 c 0,27,28
 333 317 333 317 304 300 c 1,29,30
 333 255 333 255 381 235 c 0,31,32
 421 219 421 219 477 219 c 0,33,34
 522 219 522 219 561.5 226 c 128,-1,35
 601 233 601 233 636 250 c 1,36,-1
 564 82 l 1,0,1
EndSplineSet
EndChar

StartChar: afii57440
Encoding: 1600 1600 94
Width: 286
GlyphClass: 2
Flags: W
LayerCount: 2
Fore
SplineSet
325 0 m 1,0,-1
 -22 0 l 1,1,-1
 -22 326 l 1,2,-1
 325 326 l 1,3,-1
 325 0 l 1,0,-1
EndSplineSet
EndChar

StartChar: afii57453
Encoding: 1613 1613 95
Width: 0
GlyphClass: 4
Flags: W
AnchorPoint: "Anchor-3" 0 0 mark 0
AnchorPoint: "Anchor-1" 0 0 mark 0
LayerCount: 2
Fore
SplineSet
182 124 m 1,0,1
 182 52 182 52 144 29 c 2,2,-1
 -186 -155 l 1,3,4
 -186 -115 -186 -115 -173 -94.5 c 128,-1,5
 -160 -74 -160 -74 -114 -45 c 2,6,-1
 182 124 l 1,0,1
182 284 m 1,7,8
 182 212 182 212 144 189 c 2,9,-1
 -186 3 l 1,10,11
 -186 44 -186 44 -173 64.5 c 128,-1,12
 -160 85 -160 85 -114 113 c 2,13,-1
 182 284 l 1,7,8
EndSplineSet
EndChar

StartChar: afii57381
Encoding: 1642 1642 96
Width: 1040
GlyphClass: 2
Flags: W
LayerCount: 2
Fore
SplineSet
163 898 m 0,0,1
 164 1015 164 1015 281 1034 c 0,2,3
 343 1044 343 1044 398.5 998 c 128,-1,4
 454 952 454 952 449 890 c 0,5,6
 448 834 448 834 409 797 c 128,-1,7
 370 760 370 760 313 756 c 0,8,9
 252 752 252 752 207.5 795 c 128,-1,10
 163 838 163 838 163 898 c 0,0,1
798 1044 m 1,11,-1
 940 1044 l 1,12,-1
 278 -8 l 1,13,-1
 137 -8 l 1,14,-1
 798 1044 l 1,11,-1
646 155 m 0,15,16
 648 272 648 272 762 289 c 0,17,18
 828 299 828 299 881 252.5 c 128,-1,19
 934 206 934 206 931 142 c 0,20,21
 930 85 930 85 891 47.5 c 128,-1,22
 852 10 852 10 797 7 c 0,23,24
 736 5 736 5 691 51 c 128,-1,25
 646 97 646 97 646 155 c 0,15,16
EndSplineSet
EndChar

StartChar: afii57461
Encoding: 1643 1643 97
Width: 536
GlyphClass: 2
Flags: W
LayerCount: 2
Fore
SplineSet
518 521 m 1,0,-1
 115 -382 l 1,1,-1
 19 -352 l 1,2,-1
 425 551 l 1,3,-1
 518 521 l 1,0,-1
EndSplineSet
EndChar

StartChar: afii63167
Encoding: 1645 1645 98
Width: 1118
GlyphClass: 2
Flags: W
LayerCount: 2
Fore
SplineSet
694 729 m 1,0,-1
 1057 733 l 1,1,-1
 1057 610 l 1,2,-1
 702 612 l 1,3,-1
 971 352 l 1,4,-1
 883 264 l 1,5,-1
 616 539 l 1,6,-1
 623 168 l 1,7,-1
 498 168 l 1,8,-1
 502 539 l 1,9,-1
 236 264 l 1,10,-1
 147 352 l 1,11,-1
 422 614 l 1,12,-1
 63 610 l 1,13,-1
 63 733 l 1,14,-1
 420 729 l 1,15,-1
 170 975 l 1,16,-1
 258 1065 l 1,17,-1
 502 817 l 1,18,-1
 498 1176 l 1,19,-1
 623 1176 l 1,20,-1
 616 813 l 1,21,-1
 860 1065 l 1,22,-1
 948 975 l 1,23,-1
 694 729 l 1,0,-1
EndSplineSet
EndChar

StartChar: afii57459
Encoding: 65543 -1 99
Width: 779
GlyphClass: 2
Flags: W
LayerCount: 2
Fore
SplineSet
-58 270 m 2,0,1
 -58 295 -58 295 -47.5 310.5 c 128,-1,2
 -37 326 -37 326 -22 326 c 2,3,-1
 406 326 l 2,4,5
 479 326 479 326 530 340 c 0,6,7
 566 349 566 349 595 366 c 1,8,9
 588 410 588 410 569 461 c 0,10,11
 554 503 554 503 533 548 c 1,12,13
 498 494 498 494 456 463 c 0,14,15
 407 427 407 427 350 427 c 0,16,17
 260 427 260 427 217 481 c 0,18,19
 176 532 176 532 176 624 c 0,20,21
 176 732 176 732 241 864 c 0,22,23
 312 1009 312 1009 392 1009 c 0,24,25
 456 1009 456 1009 530 930 c 0,26,27
 610 847 610 847 658 725 c 0,28,29
 712 586 712 586 712 436 c 0,30,31
 712 323 712 323 686 200 c 0,32,33
 666 106 666 106 646 62 c 0,34,35
 641 47 641 47 564.5 23.5 c 128,-1,36
 488 0 488 0 421 0 c 2,37,-1
 -4 0 l 2,38,39
 -31 0 -31 0 -44.5 16 c 128,-1,40
 -58 32 -58 32 -58 56 c 2,41,-1
 -58 270 l 2,0,1
358 779 m 0,42,43
 341 779 341 779 317.5 758.5 c 128,-1,44
 294 738 294 738 283 710 c 1,45,46
 307 692 307 692 340 684 c 128,-1,47
 373 676 373 676 414 676 c 0,48,49
 434 676 434 676 455 681 c 128,-1,50
 476 686 476 686 487 695 c 1,51,52
 474 724 474 724 431 751.5 c 128,-1,53
 388 779 388 779 358 779 c 0,42,43
EndSplineSet
EndChar

StartChar: afii57543
Encoding: 65544 -1 100
Width: 509
Flags: W
LayerCount: 2
Fore
SplineSet
566 56 m 2,0,1
 566 32 566 32 552.5 16 c 128,-1,2
 539 0 539 0 510 0 c 2,3,-1
 446 0 l 2,4,5
 398 0 398 0 347 66.5 c 128,-1,6
 296 133 296 133 287 204 c 1,7,-1
 276 194 l 1,8,-1
 194 34 l 2,9,10
 175 0 175 0 -5 0 c 0,11,12
 -31 0 -31 0 -44.5 16 c 128,-1,13
 -58 32 -58 32 -58 56 c 2,14,-1
 -58 270 l 2,15,16
 -58 295 -58 295 -48 310.5 c 128,-1,17
 -38 326 -38 326 -22 326 c 2,18,-1
 131 326 l 2,19,20
 173 326 173 326 207 333.5 c 128,-1,21
 241 341 241 341 260 349 c 1,22,-1
 322 498 l 1,23,-1
 332 500 l 1,24,25
 353 418 353 418 386 377 c 0,26,27
 428 326 428 326 499 326 c 2,28,-1
 529 326 l 2,29,30
 546 326 546 326 556 310 c 128,-1,31
 566 294 566 294 566 270 c 2,32,-1
 566 56 l 2,0,1
EndSplineSet
EndChar

StartChar: afii57534
Encoding: 1749 1749 101
Width: 698
GlyphClass: 2
Flags: W
LayerCount: 2
Fore
SplineSet
492 629 m 0,0,1
 598 565 598 565 630 526 c 0,2,3
 667 480 667 480 667 401 c 0,4,5
 667 316 667 316 643 230 c 0,6,7
 625 166 625 166 595 112 c 0,8,9
 571 71 571 71 552 52 c 0,10,11
 520 17 520 17 441 -8.5 c 128,-1,12
 362 -34 362 -34 292 -34 c 0,13,14
 180 -34 180 -34 127 40 c 0,15,16
 84 100 84 100 84 202 c 0,17,18
 84 308 84 308 150 478 c 0,19,20
 205 622 205 622 277 738 c 1,21,22
 324 720 324 720 372 696 c 0,23,24
 427 668 427 668 492 629 c 0,0,1
554 311 m 0,25,26
 554 334 554 334 433.5 413.5 c 128,-1,27
 313 493 313 493 256 506 c 1,28,29
 241 500 241 500 219.5 448 c 128,-1,30
 198 396 198 396 198 365 c 0,31,32
 198 308 198 308 246 280 c 0,33,34
 286 254 286 254 346 254 c 0,35,36
 408 254 408 254 481 274.5 c 128,-1,37
 554 295 554 295 554 311 c 0,25,26
EndSplineSet
EndChar

StartChar: afii64240
Encoding: 65546 -1 103
Width: 551
Flags: W
LayerCount: 2
Fore
SplineSet
402 133 m 1,0,-1
 288 2 l 1,1,-1
 135 135 l 1,2,-1
 248 266 l 1,3,-1
 402 133 l 1,0,-1
EndSplineSet
EndChar

StartChar: afii64241
Encoding: 65547 -1 104
Width: 559
Flags: W
LayerCount: 2
Fore
SplineSet
400 17 m 1,0,-1
 276 129 l 1,1,-1
 167 1 l 1,2,-1
 38 107 l 1,3,-1
 149 236 l 1,4,-1
 279 129 l 1,5,-1
 386 254 l 1,6,-1
 507 146 l 1,7,-1
 400 17 l 1,0,-1
EndSplineSet
EndChar

StartChar: afii63954
Encoding: 65548 -1 105
Width: 595
Flags: W
LayerCount: 2
Fore
SplineSet
421 20 m 1,0,-1
 298 132 l 1,1,-1
 187 4 l 1,2,-1
 61 110 l 1,3,-1
 170 239 l 1,4,-1
 298 132 l 1,5,-1
 404 257 l 1,6,-1
 529 149 l 1,7,-1
 421 20 l 1,0,-1
295 203 m 1,8,-1
 164 317 l 1,9,-1
 268 443 l 1,10,-1
 397 334 l 1,11,-1
 295 203 l 1,8,-1
EndSplineSet
EndChar

StartChar: afii57382
Encoding: 65549 -1 106
Width: 625
Flags: W
LayerCount: 2
Fore
SplineSet
184 -18 m 1,0,-1
 310 -125 l 1,1,-1
 419 -1 l 1,2,-1
 548 -106 l 1,3,-1
 436 -233 l 1,4,-1
 308 -127 l 1,5,-1
 202 -252 l 1,6,-1
 75 -145 l 1,7,-1
 184 -18 l 1,0,-1
314 -201 m 1,8,-1
 442 -312 l 1,9,-1
 335 -439 l 1,10,-1
 208 -329 l 1,11,-1
 314 -201 l 1,8,-1
EndSplineSet
EndChar

StartChar: afii64242
Encoding: 65550 -1 107
Width: 488
Flags: W
LayerCount: 2
Fore
SplineSet
-59 270 m 2,0,1
 -59 295 -59 295 -48.5 310.5 c 128,-1,2
 -38 326 -38 326 -23 326 c 2,3,-1
 152 326 l 2,4,5
 187 326 187 326 224.5 335 c 128,-1,6
 262 344 262 344 281 356 c 1,7,8
 271 394 271 394 257 425 c 0,9,10
 240 461 240 461 212 493 c 1,11,-1
 337 695 l 1,12,13
 379 631 379 631 404 524 c 0,14,15
 426 434 426 434 426 366 c 0,16,17
 426 277 426 277 402 178 c 0,18,19
 383 104 383 104 361 58 c 1,20,21
 299 17 299 17 240 8.5 c 128,-1,22
 181 0 181 0 -5 0 c 0,23,24
 -32 0 -32 0 -45.5 16 c 128,-1,25
 -59 32 -59 32 -59 56 c 2,26,-1
 -59 270 l 2,0,1
EndSplineSet
EndChar

StartChar: afii57373
Encoding: 65551 -1 112
Width: 0
Flags: W
LayerCount: 2
Fore
SplineSet
417 1575 m 1,0,1
 340 1575 340 1575 263 1549 c 0,2,3
 196 1526 196 1526 122 1481 c 1,4,-1
 118 1489 l 1,5,6
 135 1517 135 1517 154.5 1541.5 c 128,-1,7
 174 1566 174 1566 195 1584 c 1,8,9
 176 1595 176 1595 155 1620 c 128,-1,10
 134 1645 134 1645 134 1658 c 0,11,12
 134 1677 134 1677 154 1723 c 0,13,14
 182 1776 182 1776 221 1813 c 0,15,16
 273 1859 273 1859 329 1859 c 0,17,18
 360 1859 360 1859 377 1844 c 0,19,20
 396 1829 396 1829 396 1793 c 0,21,22
 396 1776 396 1776 389.5 1755.5 c 128,-1,23
 383 1735 383 1735 374 1723 c 1,24,25
 366 1736 366 1736 353 1748 c 0,26,27
 338 1763 338 1763 315 1763 c 0,28,29
 287 1763 287 1763 240 1736 c 0,30,31
 224 1728 224 1728 201 1715 c 1,32,33
 224 1679 224 1679 262 1663 c 0,34,35
 294 1650 294 1650 339 1650 c 0,36,37
 375 1650 375 1650 406.5 1655.5 c 128,-1,38
 438 1661 438 1661 466 1675 c 1,39,-1
 417 1575 l 1,0,1
EndSplineSet
EndChar

StartChar: afii57374
Encoding: 65552 -1 113
Width: 815
GlyphClass: 2
Flags: W
LayerCount: 2
Fore
SplineSet
-58 270 m 2,0,1
 -58 295 -58 295 -48 310.5 c 128,-1,2
 -38 326 -38 326 -22 326 c 0,3,4
 83 326 83 326 119 330 c 128,-1,5
 155 334 155 334 175 343 c 1,6,7
 224 532 224 532 324 659 c 0,8,9
 440 809 440 809 581 809 c 0,10,11
 598 809 598 809 618 804.5 c 128,-1,12
 638 800 638 800 650 793 c 1,13,14
 676 757 676 757 690 688 c 0,15,16
 702 629 702 629 702 570 c 0,17,18
 702 522 702 522 691 464 c 128,-1,19
 680 406 680 406 666 352 c 1,20,21
 697 337 697 337 725.5 331.5 c 128,-1,22
 754 326 754 326 836 326 c 0,23,24
 852 326 852 326 863 310 c 128,-1,25
 874 294 874 294 874 270 c 2,26,-1
 874 56 l 2,27,28
 874 31 874 31 860 17 c 0,29,30
 845 0 845 0 815 0 c 0,31,32
 595 0 595 0 537 14.5 c 128,-1,33
 479 29 479 29 414 97 c 1,34,35
 346 38 346 38 277 22 c 0,36,37
 192 0 192 0 -4 0 c 0,38,39
 -31 0 -31 0 -44.5 16 c 128,-1,40
 -58 32 -58 32 -58 56 c 2,41,-1
 -58 270 l 2,0,1
422 371 m 1,42,43
 455 371 455 371 497.5 384.5 c 128,-1,44
 540 398 540 398 556 408 c 1,45,46
 556 448 556 448 532 488 c 0,47,48
 503 536 503 536 466 536 c 0,49,50
 434 536 434 536 390 508 c 128,-1,51
 346 480 346 480 326 451 c 1,52,53
 346 427 346 427 372 404 c 0,54,55
 403 376 403 376 422 371 c 1,42,43
EndSplineSet
EndChar

StartChar: afii57375
Encoding: 1619 1619 114
Width: 568
GlyphClass: 2
Flags: W
LayerCount: 2
Fore
SplineSet
58 1337 m 1,0,-1
 55 1345 l 1,1,2
 58 1359 58 1359 69.5 1378 c 128,-1,3
 81 1397 81 1397 99 1416 c 0,4,5
 136 1464 136 1464 167 1464 c 1,6,7
 211 1458 211 1458 247 1445 c 0,8,9
 299 1430 299 1430 348 1430 c 128,-1,10
 397 1430 397 1430 445 1432 c 1,11,-1
 459 1426 l 1,12,13
 455 1407 455 1407 407 1383 c 0,14,15
 383 1372 383 1372 356 1365.5 c 128,-1,16
 329 1359 329 1359 301 1359 c 0,17,18
 274 1359 274 1359 230 1367 c 128,-1,19
 186 1375 186 1375 150 1375 c 0,20,21
 121 1372 121 1372 96.5 1352.5 c 128,-1,22
 72 1333 72 1333 61 1333 c 1,23,-1
 58 1337 l 1,0,-1
EndSplineSet
EndChar

StartChar: afii57391
Encoding: 59450 59450 115
Width: 1024
GlyphClass: 2
Flags: W
LayerCount: 2
Fore
SplineSet
1024 0 m 1,0,-1
 -70 0 l 1,1,-1
 -70 188 l 1,2,-1
 1024 188 l 1,3,-1
 1024 0 l 1,0,-1
EndSplineSet
EndChar

StartChar: afii57471
Encoding: 65553 -1 116
Width: 1560
Flags: W
LayerCount: 2
Fore
SplineSet
1618 56 m 2,0,1
 1618 32 1618 32 1604 16 c 128,-1,2
 1590 0 1590 0 1564 0 c 2,3,-1
 1498 0 l 2,4,5
 1450 0 1450 0 1399.5 67 c 128,-1,6
 1349 134 1349 134 1340 204 c 1,7,-1
 1328 194 l 1,8,-1
 1248 34 l 1,9,10
 1135 6 1135 6 1015 -9 c 128,-1,11
 895 -24 895 -24 803 -24 c 0,12,13
 593 -24 593 -24 418 2 c 0,14,15
 205 34 205 34 152 90 c 0,16,17
 110 133 110 133 94 175 c 0,18,19
 73 226 73 226 73 305 c 256,20,21
 73 384 73 384 100 476 c 0,22,23
 120 551 120 551 154 617 c 0,24,25
 184 674 184 674 198 674 c 0,26,27
 208 674 208 674 208 667 c 0,28,29
 198 632 198 632 188 599 c 0,30,31
 179 560 179 560 179 515 c 0,32,33
 179 438 179 438 215 396 c 0,34,35
 263 342 263 342 396.5 314.5 c 128,-1,36
 530 287 530 287 797 287 c 0,37,38
 889 287 889 287 978 291 c 128,-1,39
 1067 295 1067 295 1153 308 c 0,40,41
 1256 323 1256 323 1314 349 c 1,42,-1
 1373 498 l 1,43,-1
 1384 500 l 1,44,45
 1404 418 1404 418 1438 377 c 0,46,47
 1480 326 1480 326 1552 326 c 2,48,-1
 1582 326 l 2,49,50
 1597 326 1597 326 1607.5 310 c 128,-1,51
 1618 294 1618 294 1618 270 c 2,52,-1
 1618 56 l 2,0,1
EndSplineSet
EndChar

StartChar: afii52258
Encoding: 65554 -1 117
Width: 1724
GlyphClass: 2
Flags: W
LayerCount: 2
Fore
SplineSet
1787 56 m 2,0,1
 1787 32 1787 32 1773 16 c 128,-1,2
 1759 0 1759 0 1730 0 c 0,3,4
 1511 0 1511 0 1451 14.5 c 128,-1,5
 1391 29 1391 29 1327 97 c 1,6,7
 1272 29 1272 29 1124 0 c 0,8,9
 1002 -24 1002 -24 803 -24 c 0,10,11
 593 -24 593 -24 418 2 c 0,12,13
 205 34 205 34 152 90 c 0,14,15
 110 133 110 133 94 175 c 0,16,17
 73 226 73 226 73 305 c 256,18,19
 73 384 73 384 100 476 c 0,20,21
 120 551 120 551 154 617 c 0,22,23
 184 674 184 674 197 674 c 0,24,25
 208 674 208 674 208 667 c 0,26,27
 197 632 197 632 187 599 c 0,28,29
 178 560 178 560 178 515 c 0,30,31
 178 408 178 408 256 364 c 0,32,33
 359 305 359 305 650 305 c 0,34,35
 803 305 803 305 903.5 314 c 128,-1,36
 1004 323 1004 323 1090 343 c 1,37,38
 1139 529 1139 529 1238 659 c 0,39,40
 1355 809 1355 809 1493 809 c 0,41,42
 1510 809 1510 809 1529.5 804.5 c 128,-1,43
 1549 800 1549 800 1564 793 c 1,44,45
 1590 755 1590 755 1602.5 692.5 c 128,-1,46
 1615 630 1615 630 1615 570 c 0,47,48
 1615 520 1615 520 1605 463.5 c 128,-1,49
 1595 407 1595 407 1577 352 c 1,50,51
 1613 336 1613 336 1631 332 c 0,52,53
 1667 326 1667 326 1750 326 c 0,54,55
 1766 326 1766 326 1776.5 310 c 128,-1,56
 1787 294 1787 294 1787 270 c 2,57,-1
 1787 56 l 2,0,1
1334 371 m 1,58,59
 1366 371 1366 371 1409.5 384.5 c 128,-1,60
 1453 398 1453 398 1471 408 c 1,61,62
 1471 446 1471 446 1446 488 c 0,63,64
 1417 536 1417 536 1380 536 c 0,65,66
 1348 536 1348 536 1301 508 c 0,67,68
 1260 481 1260 481 1238 451 c 1,69,70
 1258 427 1258 427 1285 404 c 0,71,72
 1318 377 1318 377 1334 371 c 1,58,59
EndSplineSet
EndChar

StartChar: afii62889
Encoding: 65555 -1 123
Width: 1067
Flags: W
LayerCount: 2
Fore
SplineSet
1124 56 m 2,0,1
 1124 31 1124 31 1114 17 c 0,2,3
 1099 0 1099 0 1072 0 c 2,4,-1
 996 0 l 1,5,6
 977 -149 977 -149 939 -263.5 c 128,-1,7
 901 -378 901 -378 852 -446 c 0,8,9
 842 -458 842 -458 772 -490 c 0,10,11
 689 -526 689 -526 612 -547 c 0,12,13
 512 -575 512 -575 444 -575 c 0,14,15
 268 -575 268 -575 174 -505 c 0,16,17
 67 -426 67 -426 67 -253 c 0,18,19
 67 -157 67 -157 102 -48 c 0,20,21
 127 34 127 34 168 104 c 0,22,23
 202 166 202 166 211 166 c 0,24,25
 228 166 228 166 228 152 c 0,26,27
 215 108 215 108 203.5 62.5 c 128,-1,28
 192 17 192 17 192 -29 c 0,29,30
 192 -128 192 -128 234 -184 c 0,31,32
 271 -232 271 -232 343 -250 c 0,33,34
 396 -264 396 -264 492 -264 c 0,35,36
 566 -264 566 -264 667 -238 c 0,37,38
 745 -216 745 -216 810 -188 c 128,-1,39
 875 -160 875 -160 876 -150 c 0,40,41
 880 -140 880 -140 880 -119 c 2,42,-1
 880 -104 l 2,43,44
 880 -78 880 -78 877 -44 c 128,-1,45
 874 -10 874 -10 868 12 c 1,46,47
 845 12 845 12 803.5 6 c 128,-1,48
 762 0 762 0 740 0 c 0,49,50
 622 0 622 0 565 22 c 0,51,52
 476 58 476 58 476 156 c 0,53,54
 476 239 476 239 510 355 c 0,55,56
 548 484 548 484 604 568 c 0,57,58
 670 667 670 667 740 667 c 0,59,60
 828 667 828 667 906 538 c 0,61,62
 973 427 973 427 983 326 c 1,63,-1
 1091 326 l 2,64,65
 1106 326 1106 326 1115 310 c 128,-1,66
 1124 294 1124 294 1124 270 c 2,67,-1
 1124 56 l 2,0,1
697 437 m 0,68,69
 662 437 662 437 641 409 c 0,70,71
 624 385 624 385 614 340 c 1,72,73
 635 324 635 324 665 317.5 c 128,-1,74
 695 311 695 311 745 311 c 2,75,-1
 764 311 l 2,76,77
 780 311 780 311 797 312.5 c 128,-1,78
 814 314 814 314 824 320 c 1,79,80
 806 367 806 367 778 398 c 0,81,82
 742 437 742 437 697 437 c 0,68,69
EndSplineSet
EndChar

StartChar: afii62887
Encoding: 65556 -1 124
Width: 1513
Flags: W
LayerCount: 2
Fore
SplineSet
1360 695 m 1,0,1
 1403 632 1403 632 1429 524 c 0,2,3
 1451 434 1451 434 1451 366 c 0,4,5
 1451 275 1451 275 1427 178 c 0,6,7
 1408 102 1408 102 1385 58 c 1,8,9
 1327 36 1327 36 1266 22 c 0,10,11
 1177 1 1177 1 1064.5 -11.5 c 128,-1,12
 952 -24 952 -24 804 -24 c 0,13,14
 594 -24 594 -24 418 2 c 0,15,16
 206 34 206 34 154 90 c 0,17,18
 112 133 112 133 95 175 c 0,19,20
 73 226 73 226 73 305 c 256,21,22
 73 384 73 384 100 476 c 0,23,24
 121 551 121 551 155 617 c 0,25,26
 185 674 185 674 198 674 c 0,27,28
 209 674 209 674 209 667 c 0,29,30
 198 632 198 632 188 599 c 0,31,32
 179 560 179 560 179 515 c 0,33,34
 179 438 179 438 216 396 c 0,35,36
 264 342 264 342 397 314.5 c 128,-1,37
 530 287 530 287 797 287 c 0,38,39
 940 287 940 287 1057 300 c 0,40,41
 1147 310 1147 310 1216 328 c 0,42,43
 1260 338 1260 338 1306 356 c 1,44,45
 1296 394 1296 394 1282 425 c 0,46,47
 1264 458 1264 458 1234 493 c 1,48,-1
 1360 695 l 1,0,1
EndSplineSet
EndChar

StartChar: afii62888
Encoding: 1697 1697 125
Width: 1618
GlyphClass: 2
Flags: W
LayerCount: 2
Fore
SplineSet
1018 624 m 0,0,1
 1018 732 1018 732 1081 864 c 0,2,3
 1152 1009 1152 1009 1234 1009 c 0,4,5
 1296 1009 1296 1009 1371.5 929.5 c 128,-1,6
 1447 850 1447 850 1496 725 c 0,7,8
 1550 586 1550 586 1550 436 c 0,9,10
 1550 323 1550 323 1526 200 c 0,11,12
 1507 106 1507 106 1487 62 c 0,13,14
 1478 42 1478 42 1412 24 c 0,15,16
 1334 2 1334 2 1184 -11 c 128,-1,17
 1034 -24 1034 -24 803 -24 c 0,18,19
 593 -24 593 -24 418 2 c 0,20,21
 205 34 205 34 152 90 c 0,22,23
 110 133 110 133 94 175 c 0,24,25
 73 226 73 226 73 305 c 256,26,27
 73 384 73 384 100 476 c 0,28,29
 120 551 120 551 154 617 c 0,30,31
 184 674 184 674 197 674 c 0,32,33
 208 674 208 674 208 667 c 0,34,35
 197 632 197 632 187 599 c 0,36,37
 178 560 178 560 178 515 c 0,38,39
 178 438 178 438 215 396 c 0,40,41
 263 342 263 342 396 314.5 c 128,-1,42
 529 287 529 287 797 287 c 0,43,44
 1020 287 1020 287 1139 296.5 c 128,-1,45
 1258 306 1258 306 1330 326 c 0,46,47
 1374 338 1374 338 1435 366 c 1,48,49
 1428 412 1428 412 1410 461 c 0,50,51
 1396 502 1396 502 1373 548 c 1,52,53
 1339 496 1339 496 1297 463 c 0,54,55
 1248 427 1248 427 1193 427 c 0,56,57
 1102 427 1102 427 1057 481 c 0,58,59
 1018 532 1018 532 1018 624 c 0,0,1
1196 779 m 0,60,61
 1182 779 1182 779 1158 758.5 c 128,-1,62
 1134 738 1134 738 1122 710 c 1,63,64
 1148 692 1148 692 1180.5 684 c 128,-1,65
 1213 676 1213 676 1255 676 c 0,66,67
 1274 676 1274 676 1296 681 c 128,-1,68
 1318 686 1318 686 1327 695 c 1,69,70
 1313 724 1313 724 1270.5 751.5 c 128,-1,71
 1228 779 1228 779 1196 779 c 0,60,61
EndSplineSet
Substitution2: "'medi' Medial Forms in Arabic lookup 3 subtable" afii57374
Substitution2: "'fina' Terminal Forms in Arabic lookup 2 subtable" afii52258
Substitution2: "'init' Initial Forms in Arabic lookup 1 subtable" afii57459
EndChar

StartChar: afii57567
Encoding: 1705 1705 132
Width: 1364
GlyphClass: 2
Flags: W
AnchorPoint: "Anchor-3" 570 -495 basechar 0
AnchorPoint: "Anchor-2" 465 1035 basechar 0
LayerCount: 2
Fore
SplineSet
950 347 m 1,0,-1
 964 359 l 1,1,2
 943 420 943 420 906 477.5 c 128,-1,3
 869 535 869 535 794 620 c 1,4,-1
 784 599 l 1,5,6
 731 647 731 647 710 670 c 0,7,8
 665 722 665 722 665 755 c 0,9,10
 665 810 665 810 712 912 c 0,11,12
 755 1007 755 1007 773 1014 c 0,13,14
 898 1066 898 1066 1057 1109 c 0,15,16
 1228 1153 1228 1153 1361 1170 c 1,17,-1
 1277 991 l 1,18,19
 1142 964 1142 964 1024 927 c 128,-1,20
 906 890 906 890 809 842 c 1,21,22
 900 738 900 738 934 692 c 0,23,24
 1002 602 1002 602 1039 522 c 0,25,26
 1084 425 1084 425 1084 335 c 0,27,28
 1084 263 1084 263 1055 187.5 c 128,-1,29
 1026 112 1026 112 974 41 c 1,30,31
 932 18 932 18 738.5 -9.5 c 128,-1,32
 545 -37 545 -37 378 -32 c 1,33,34
 230 -32 230 -32 144 34 c 0,35,36
 78 85 78 85 52 172 c 0,37,38
 37 224 37 224 37 296 c 0,39,40
 37 376 37 376 64 468 c 0,41,42
 84 542 84 542 118 608 c 0,43,44
 148 666 148 666 161 666 c 0,45,46
 172 666 172 666 172 659 c 0,47,48
 161 624 161 624 151 590 c 0,49,50
 142 552 142 552 142 506 c 0,51,52
 142 419 142 419 196 367 c 0,53,54
 239 325 239 325 317 308 c 0,55,56
 372 296 372 296 455 296 c 0,57,58
 532 296 532 296 608 299 c 128,-1,59
 684 302 684 302 784 316.5 c 128,-1,60
 884 331 884 331 950 347 c 1,0,-1
EndSplineSet
Substitution2: "'medi' Medial Forms in Arabic lookup 3 subtable" afii52306
Substitution2: "'fina' Terminal Forms in Arabic lookup 2 subtable" afii62964
Substitution2: "'init' Initial Forms in Arabic lookup 1 subtable" afii52305
EndChar

StartChar: afii62964
Encoding: 64399 64399 133
Width: 1400
GlyphClass: 2
Flags: W
AnchorPoint: "Anchor-3" 540 -525 basechar 0
AnchorPoint: "Anchor-2" 465 1005 basechar 0
LayerCount: 2
Fore
SplineSet
626 -28 m 0,0,1
 506 -43 506 -43 371 -43 c 0,2,3
 223 -43 223 -43 137 23 c 0,4,5
 71 74 71 74 44 161 c 0,6,7
 30 214 30 214 30 286 c 0,8,9
 30 365 30 365 56 457 c 0,10,11
 77 532 77 532 110 598 c 0,12,13
 140 655 140 655 154 655 c 0,14,15
 164 655 164 655 164 648 c 0,16,17
 154 613 154 613 144 580 c 0,18,19
 134 541 134 541 134 496 c 0,20,21
 134 408 134 408 188 356 c 0,22,23
 232 314 232 314 310 298 c 0,24,25
 365 286 365 286 448 286 c 0,26,27
 524 286 524 286 606 289.5 c 128,-1,28
 688 293 688 293 793.5 308 c 128,-1,29
 899 323 899 323 943 343 c 1,30,31
 956 356 956 356 956 376 c 0,32,33
 956 403 956 403 889 485 c 0,34,35
 864 515 864 515 763 625 c 0,36,37
 696 700 696 700 696 710 c 0,38,39
 696 761 696 761 737 866 c 0,40,41
 778 972 778 972 806 990 c 0,42,43
 847 1016 847 1016 964 1056 c 0,44,45
 1079 1097 1079 1097 1205 1129.5 c 128,-1,46
 1331 1162 1331 1162 1411 1170 c 1,47,-1
 1325 990 l 1,48,49
 1199 964 1199 964 1066 916 c 0,50,51
 949 875 949 875 815 812 c 1,52,53
 905 722 905 722 977 641 c 0,54,55
 1057 551 1057 551 1128 460 c 0,56,57
 1199 368 1199 368 1246.5 347 c 128,-1,58
 1294 326 1294 326 1423 326 c 0,59,60
 1440 326 1440 326 1450 310 c 1,61,-1
 1460 270 l 1,62,-1
 1460 56 l 2,63,64
 1460 32 1460 32 1446 16 c 0,65,66
 1433 0 1433 0 1404 0 c 0,67,68
 1310 0 1310 0 1248 32 c 0,69,70
 1190 62 1190 62 1135 133 c 0,71,72
 1103 175 1103 175 1025 301 c 1,73,74
 1003 182 1003 182 943 101 c 0,75,76
 886 23 886 23 805 5 c 0,77,78
 776 -5 776 -5 732.5 -13 c 128,-1,79
 689 -21 689 -21 626 -28 c 0,0,1
EndSplineSet
EndChar

StartChar: afii52305
Encoding: 64400 64400 134
Width: 782
GlyphClass: 2
Flags: W
AnchorPoint: "Anchor-3" 165 -450 basechar 0
AnchorPoint: "Anchor-2" 300 1245 basechar 0
LayerCount: 2
Fore
SplineSet
-59 270 m 1,0,1
 -59 295 -59 295 -48.5 310.5 c 128,-1,2
 -38 326 -38 326 -22 326 c 2,3,-1
 246 326 l 2,4,5
 287 326 287 326 327.5 336.5 c 128,-1,6
 368 347 368 347 382 359 c 1,7,8
 361 420 361 420 324 477.5 c 128,-1,9
 287 535 287 535 212 620 c 1,10,-1
 202 599 l 1,11,12
 149 647 149 647 128 670 c 0,13,14
 83 722 83 722 83 755 c 0,15,16
 83 810 83 810 130 912 c 0,17,18
 173 1007 173 1007 191 1014 c 0,19,20
 316 1066 316 1066 475 1109 c 0,21,22
 646 1153 646 1153 779 1170 c 1,23,-1
 695 991 l 1,24,25
 560 964 560 964 442 927 c 128,-1,26
 324 890 324 890 227 842 c 1,27,28
 318 738 318 738 352 692 c 0,29,30
 420 602 420 602 457 522 c 0,31,32
 502 425 502 425 502 335 c 0,33,34
 502 263 502 263 473 187.5 c 128,-1,35
 444 112 444 112 392 41 c 0,36,37
 380 25 380 25 309.5 12.5 c 128,-1,38
 239 0 239 0 172 0 c 2,39,-1
 -5 0 l 2,40,41
 -31 0 -31 0 -45 16 c 128,-1,42
 -59 32 -59 32 -59 56 c 2,43,-1
 -59 270 l 1,44,-1
 -59 270 l 1,0,1
EndSplineSet
EndChar

StartChar: afii52306
Encoding: 64401 64401 135
Width: 846
GlyphClass: 2
Flags: W
AnchorPoint: "Anchor-3" 330 -495 basechar 0
AnchorPoint: "Anchor-2" 420 1320 basechar 0
LayerCount: 2
Fore
SplineSet
906 56 m 1,0,1
 906 32 906 32 892 16 c 128,-1,2
 878 0 878 0 850 0 c 0,3,4
 756 0 756 0 694 32 c 0,5,6
 636 62 636 62 581 133 c 0,7,8
 548 175 548 175 470 301 c 1,9,10
 449 182 449 182 389 101 c 0,11,12
 313 0 313 0 202 0 c 2,13,-1
 -4 0 l 2,14,15
 -31 0 -31 0 -44.5 16 c 128,-1,16
 -58 32 -58 32 -58 56 c 2,17,-1
 -58 270 l 2,18,19
 -58 295 -58 295 -47.5 310.5 c 128,-1,20
 -37 326 -37 326 -22 326 c 2,21,-1
 342 326 l 2,22,23
 372 326 372 326 389 343 c 0,24,25
 402 356 402 356 402 376 c 0,26,27
 402 403 402 403 335 485 c 0,28,29
 310 515 310 515 209 625 c 0,30,31
 142 700 142 700 142 710 c 0,32,33
 142 761 142 761 182.5 866.5 c 128,-1,34
 223 972 223 972 252 990 c 0,35,36
 293 1016 293 1016 408.5 1056.5 c 128,-1,37
 524 1097 524 1097 650 1129.5 c 128,-1,38
 776 1162 776 1162 857 1170 c 1,39,-1
 770 990 l 1,40,41
 644 964 644 964 511 916 c 0,42,43
 395 875 395 875 260 812 c 1,44,45
 350 722 350 722 422 641 c 0,46,47
 503 551 503 551 573.5 459.5 c 128,-1,48
 644 368 644 368 691.5 347 c 128,-1,49
 739 326 739 326 869 326 c 0,50,51
 886 326 886 326 896 310 c 128,-1,52
 906 294 906 294 906 270 c 2,53,-1
 906 56 l 1,54,-1
 906 56 l 1,0,1
EndSplineSet
EndChar

StartChar: afii57509
Encoding: 1711 1711 136
Width: 1364
GlyphClass: 2
Flags: W
AnchorPoint: "Anchor-3" 570 -525 basechar 0
AnchorPoint: "Anchor-2" 465 1140 basechar 0
LayerCount: 2
Fore
SplineSet
964 359 m 1,0,1
 943 420 943 420 828 570 c 1,2,-1
 817 548 l 1,3,4
 764 596 764 596 744 619 c 0,5,6
 698 672 698 672 698 704 c 0,7,8
 698 760 698 760 745 862 c 0,9,10
 788 956 788 956 806 964 c 0,11,12
 931 1015 931 1015 1091 1058 c 0,13,14
 1261 1103 1261 1103 1394 1120 c 1,15,-1
 1310 941 l 1,16,17
 1176 913 1176 913 1058 876.5 c 128,-1,18
 940 840 940 840 842 792 c 1,19,20
 942 688 942 688 1013 556.5 c 128,-1,21
 1084 425 1084 425 1084 335 c 0,22,23
 1084 263 1084 263 1055 187.5 c 128,-1,24
 1026 112 1026 112 974 41 c 1,25,26
 932 18 932 18 738.5 -9.5 c 128,-1,27
 545 -37 545 -37 378 -32 c 1,28,29
 230 -32 230 -32 144 34 c 0,30,31
 78 85 78 85 52 172 c 0,32,33
 37 224 37 224 37 296 c 0,34,35
 37 376 37 376 64 468 c 0,36,37
 84 542 84 542 118 608 c 0,38,39
 148 666 148 666 161 666 c 0,40,41
 172 666 172 666 172 659 c 0,42,43
 161 624 161 624 151 590 c 0,44,45
 142 552 142 552 142 506 c 0,46,47
 142 419 142 419 196 367 c 0,48,49
 239 325 239 325 317 308 c 0,50,51
 372 296 372 296 455 296 c 0,52,53
 532 296 532 296 608 299 c 128,-1,54
 684 302 684 302 784 316.5 c 128,-1,55
 884 331 884 331 950 347 c 1,56,-1
 964 359 l 1,0,1
881 1169 m 1,57,58
 951 1201 951 1201 1020 1226 c 128,-1,59
 1089 1251 1089 1251 1157.5 1271 c 128,-1,60
 1226 1291 1226 1291 1293.5 1307.5 c 128,-1,61
 1361 1324 1361 1324 1429 1339 c 1,62,-1
 1370 1224 l 1,63,64
 1219 1195 1219 1195 1084 1148 c 128,-1,65
 949 1101 949 1101 821 1040 c 1,66,-1
 881 1169 l 1,57,58
EndSplineSet
Substitution2: "'medi' Medial Forms in Arabic lookup 3 subtable" afii62966
Substitution2: "'fina' Terminal Forms in Arabic lookup 2 subtable" afii62967
Substitution2: "'init' Initial Forms in Arabic lookup 1 subtable" afii62965
EndChar

StartChar: afii62967
Encoding: 64403 64403 137
Width: 1400
GlyphClass: 2
Flags: W
AnchorPoint: "Anchor-3" 510 -510 basechar 0
AnchorPoint: "Anchor-2" 450 1110 basechar 0
LayerCount: 2
Fore
SplineSet
626 -28 m 0,0,1
 506 -43 506 -43 371 -43 c 0,2,3
 223 -43 223 -43 137 23 c 0,4,5
 71 74 71 74 44 161 c 0,6,7
 30 214 30 214 30 286 c 0,8,9
 30 365 30 365 56 457 c 0,10,11
 77 532 77 532 110 598 c 0,12,13
 140 655 140 655 154 655 c 0,14,15
 164 655 164 655 164 648 c 0,16,17
 154 613 154 613 144 580 c 0,18,19
 134 541 134 541 134 496 c 0,20,21
 134 408 134 408 188 356 c 0,22,23
 232 314 232 314 310 298 c 0,24,25
 365 286 365 286 448 286 c 0,26,27
 524 286 524 286 606 289.5 c 128,-1,28
 688 293 688 293 793.5 308 c 128,-1,29
 899 323 899 323 943 343 c 1,30,31
 956 356 956 356 956 376 c 0,32,33
 956 403 956 403 889 485 c 0,34,35
 864 515 864 515 798 588.5 c 128,-1,36
 732 662 732 662 732 673 c 0,37,38
 732 724 732 724 773 829 c 0,39,40
 814 935 814 935 842 953 c 0,41,42
 883 979 883 979 1000 1019 c 0,43,44
 1115 1060 1115 1060 1241 1092 c 128,-1,45
 1367 1124 1367 1124 1447 1133 c 1,46,-1
 1361 953 l 1,47,48
 1235 926 1235 926 1102 878 c 0,49,50
 985 838 985 838 851 775 c 1,51,52
 941 685 941 685 999 618 c 128,-1,53
 1057 551 1057 551 1128 460 c 0,54,55
 1199 368 1199 368 1246.5 347 c 128,-1,56
 1294 326 1294 326 1423 326 c 0,57,58
 1440 326 1440 326 1450 310 c 1,59,-1
 1460 270 l 1,60,-1
 1460 56 l 2,61,62
 1460 32 1460 32 1446 16 c 0,63,64
 1433 0 1433 0 1404 0 c 0,65,66
 1310 0 1310 0 1248 32 c 0,67,68
 1190 62 1190 62 1135 133 c 0,69,70
 1103 175 1103 175 1025 301 c 1,71,72
 1003 182 1003 182 943 101 c 0,73,74
 886 23 886 23 805 5 c 0,75,76
 776 -5 776 -5 732.5 -13 c 128,-1,77
 689 -21 689 -21 626 -28 c 0,0,1
917 1169 m 1,78,79
 987 1201 987 1201 1056 1226 c 128,-1,80
 1125 1251 1125 1251 1193.5 1271 c 128,-1,81
 1262 1291 1262 1291 1329.5 1307.5 c 128,-1,82
 1397 1324 1397 1324 1465 1339 c 1,83,-1
 1406 1224 l 1,84,85
 1255 1195 1255 1195 1120 1148 c 128,-1,86
 985 1101 985 1101 857 1040 c 1,87,-1
 917 1169 l 1,78,79
EndSplineSet
EndChar

StartChar: afii62965
Encoding: 64404 64404 138
Width: 846
GlyphClass: 2
Flags: W
AnchorPoint: "Anchor-3" 240 -525 basechar 0
AnchorPoint: "Anchor-2" 405 1485 basechar 0
LayerCount: 2
Fore
SplineSet
906 56 m 2,0,1
 906 32 906 32 892 16 c 128,-1,2
 878 0 878 0 850 0 c 0,3,4
 756 0 756 0 694 32 c 0,5,6
 636 62 636 62 581 133 c 0,7,8
 548 175 548 175 470 301 c 1,9,10
 449 182 449 182 389 101 c 0,11,12
 313 0 313 0 202 0 c 2,13,-1
 -4 0 l 2,14,15
 -31 0 -31 0 -44.5 16 c 128,-1,16
 -58 32 -58 32 -58 56 c 2,17,-1
 -58 270 l 2,18,19
 -58 295 -58 295 -47.5 310.5 c 128,-1,20
 -37 326 -37 326 -22 326 c 2,21,-1
 342 326 l 2,22,23
 372 326 372 326 389 343 c 0,24,25
 402 356 402 356 402 376 c 0,26,27
 402 403 402 403 335 485 c 1,28,29
 172 661 172 661 172 672 c 0,30,31
 172 722 172 722 212.5 828 c 128,-1,32
 253 934 253 934 282 952 c 0,33,34
 323 978 323 978 438.5 1018 c 128,-1,35
 554 1058 554 1058 680 1090.5 c 128,-1,36
 806 1123 806 1123 887 1132 c 1,37,-1
 800 952 l 1,38,39
 674 925 674 925 541 877 c 0,40,41
 425 836 425 836 290 774 c 1,42,43
 380 684 380 684 440 617.5 c 128,-1,44
 500 551 500 551 572 459.5 c 128,-1,45
 644 368 644 368 691.5 347 c 128,-1,46
 739 326 739 326 869 326 c 0,47,48
 886 326 886 326 896 310 c 128,-1,49
 906 294 906 294 906 270 c 2,50,-1
 906 56 l 2,0,1
362 1169 m 1,51,52
 432 1201 432 1201 501 1226 c 128,-1,53
 570 1251 570 1251 638.5 1271 c 128,-1,54
 707 1291 707 1291 775 1307.5 c 128,-1,55
 843 1324 843 1324 911 1339 c 1,56,-1
 852 1224 l 1,57,58
 701 1195 701 1195 565.5 1148 c 128,-1,59
 430 1101 430 1101 302 1040 c 1,60,-1
 362 1169 l 1,51,52
EndSplineSet
EndChar

StartChar: afii62966
Encoding: 64405 64405 139
Width: 1400
GlyphClass: 2
Flags: W
AnchorPoint: "Anchor-3" 510 -525 basechar 0
AnchorPoint: "Anchor-2" 480 1035 basechar 0
LayerCount: 2
Fore
SplineSet
626 -28 m 0,0,1
 506 -43 506 -43 371 -43 c 0,2,3
 223 -43 223 -43 137 23 c 0,4,5
 71 74 71 74 44 161 c 0,6,7
 30 214 30 214 30 286 c 0,8,9
 30 365 30 365 56 457 c 0,10,11
 77 532 77 532 110 598 c 0,12,13
 140 655 140 655 154 655 c 0,14,15
 164 655 164 655 164 648 c 0,16,17
 154 613 154 613 144 580 c 0,18,19
 134 541 134 541 134 496 c 0,20,21
 134 408 134 408 188 356 c 0,22,23
 232 314 232 314 310 298 c 0,24,25
 365 286 365 286 448 286 c 0,26,27
 524 286 524 286 606 289.5 c 128,-1,28
 688 293 688 293 793.5 308 c 128,-1,29
 899 323 899 323 943 343 c 1,30,31
 956 356 956 356 956 376 c 0,32,33
 956 403 956 403 889 485 c 0,34,35
 864 515 864 515 798 588.5 c 128,-1,36
 732 662 732 662 732 673 c 0,37,38
 732 724 732 724 773 829 c 0,39,40
 814 935 814 935 842 953 c 0,41,42
 883 979 883 979 1000 1019 c 0,43,44
 1115 1060 1115 1060 1241 1092 c 128,-1,45
 1367 1124 1367 1124 1447 1133 c 1,46,-1
 1361 953 l 1,47,48
 1235 926 1235 926 1102 878 c 0,49,50
 985 838 985 838 851 775 c 1,51,52
 941 685 941 685 999 618 c 128,-1,53
 1057 551 1057 551 1128 460 c 0,54,55
 1199 368 1199 368 1246.5 347 c 128,-1,56
 1294 326 1294 326 1423 326 c 0,57,58
 1440 326 1440 326 1450 310 c 1,59,-1
 1460 270 l 1,60,-1
 1460 56 l 2,61,62
 1460 32 1460 32 1446 16 c 0,63,64
 1433 0 1433 0 1404 0 c 0,65,66
 1310 0 1310 0 1248 32 c 0,67,68
 1190 62 1190 62 1135 133 c 0,69,70
 1103 175 1103 175 1025 301 c 1,71,72
 1003 182 1003 182 943 101 c 0,73,74
 886 23 886 23 805 5 c 0,75,76
 776 -5 776 -5 732.5 -13 c 128,-1,77
 689 -21 689 -21 626 -28 c 0,0,1
917 1169 m 1,78,79
 987 1201 987 1201 1056 1226 c 128,-1,80
 1125 1251 1125 1251 1193.5 1271 c 128,-1,81
 1262 1291 1262 1291 1329.5 1307.5 c 128,-1,82
 1397 1324 1397 1324 1465 1339 c 1,83,-1
 1406 1224 l 1,84,85
 1255 1195 1255 1195 1120 1148 c 128,-1,86
 985 1101 985 1101 857 1040 c 1,87,-1
 917 1169 l 1,78,79
EndSplineSet
EndChar

StartChar: afii57555
Encoding: 1740 1740 140
Width: 1182
GlyphClass: 2
Flags: W
AnchorPoint: "Anchor-3" 480 -750 basechar 0
AnchorPoint: "Anchor-2" 450 945 basechar 0
LayerCount: 2
Fore
SplineSet
977 721 m 0,0,1
 899 721 899 721 802 614 c 0,2,3
 710 512 710 512 710 446 c 0,4,5
 710 437 710 437 780 416 c 0,6,7
 824 404 824 404 869 392 c 0,8,9
 974 367 974 367 1021 346 c 0,10,11
 1092 313 1092 313 1092 270 c 0,12,13
 1092 139 1092 139 1051 59 c 0,14,15
 1018 -5 1018 -5 929 -82 c 0,16,17
 806 -186 806 -186 694 -240 c 0,18,19
 557 -305 557 -305 416 -305 c 0,20,21
 248 -305 248 -305 157.5 -222.5 c 128,-1,22
 67 -140 67 -140 67 18 c 0,23,24
 67 96 67 96 104 215 c 0,25,26
 137 318 137 318 179.5 399.5 c 128,-1,27
 222 481 222 481 240 481 c 256,28,29
 258 481 258 481 258 472 c 0,30,31
 239 419 239 419 220 367 c 0,32,33
 202 304 202 304 202 232 c 0,34,35
 202 185 202 185 215 146 c 0,36,37
 236 86 236 86 288 52 c 0,38,39
 355 6 355 6 469 6 c 0,40,41
 559 6 559 6 685 35 c 0,42,43
 786 56 786 56 875 89 c 0,44,45
 955 118 955 118 955 127 c 0,46,47
 955 140 955 140 929 150 c 0,48,49
 894 162 894 162 794 175 c 0,50,51
 665 194 665 194 616 226 c 0,52,53
 575 252 575 252 575 301 c 0,54,55
 575 371 575 371 635 515 c 0,56,57
 707 685 707 685 804 794 c 0,58,59
 926 934 926 934 1060 934 c 0,60,61
 1098 934 1098 934 1126 912 c 0,62,63
 1158 886 1158 886 1158 835 c 0,64,65
 1158 810 1158 810 1140 756 c 0,66,67
 1124 712 1124 712 1105 670 c 1,68,69
 1078 697 1078 697 1048 709 c 128,-1,70
 1018 721 1018 721 977 721 c 0,0,1
EndSplineSet
Substitution2: "'medi' Medial Forms in Arabic lookup 3 subtable" afii62832
Substitution2: "'fina' Terminal Forms in Arabic lookup 2 subtable" afii52364
Substitution2: "'init' Initial Forms in Arabic lookup 1 subtable" uniFBFE
EndChar

StartChar: afii52364
Encoding: 64509 64509 141
Width: 1210
GlyphClass: 2
Flags: W
AnchorPoint: "Anchor-3" 510 -990 basechar 0
AnchorPoint: "Anchor-2" 615 630 basechar 0
LayerCount: 2
Fore
SplineSet
1268 56 m 1,0,1
 1268 32 1268 32 1254 16 c 128,-1,2
 1240 0 1240 0 1212 0 c 2,3,-1
 1087 0 l 1,4,5
 1064 -229 1064 -229 866 -382 c 0,6,7
 679 -526 679 -526 444 -526 c 0,8,9
 281 -526 281 -526 178 -437 c 0,10,11
 66 -341 66 -341 66 -169 c 0,12,13
 66 -76 66 -76 104 44 c 0,14,15
 134 142 134 142 179 222 c 0,16,17
 220 296 220 296 235 296 c 0,18,19
 248 296 248 296 248 270 c 1,20,21
 232 221 232 221 216 173 c 0,22,23
 202 118 202 118 202 56 c 0,24,25
 202 0 202 0 224 -55 c 0,26,27
 254 -126 254 -126 316 -166 c 0,28,29
 391 -216 391 -216 510 -216 c 0,30,31
 592 -216 592 -216 698 -176 c 0,32,33
 786 -144 786 -144 858 -98 c 0,34,35
 924 -55 924 -55 924 -36 c 0,36,37
 924 -11 924 -11 828 31 c 0,38,39
 737 71 737 71 703 71 c 1,40,41
 786 235 786 235 824 277 c 0,42,43
 869 326 869 326 950 326 c 2,44,-1
 1231 326 l 2,45,46
 1247 326 1247 326 1257.5 310 c 128,-1,47
 1268 294 1268 294 1268 270 c 2,48,-1
 1268 56 l 1,49,-1
 1268 56 l 1,0,1
EndSplineSet
EndChar

StartChar: afii62945
Encoding: 65557 -1 147
Width: 1564
GlyphClass: 3
Flags: W
LayerCount: 2
Fore
SplineSet
502 493 m 1,0,1
 448 467 448 467 409 438 c 0,2,3
 365 406 365 406 332 365 c 1,4,5
 378 338 378 338 428 325.5 c 128,-1,6
 478 313 478 313 532 313 c 1,7,-1
 502 493 l 1,0,1
781 0 m 1,8,-1
 727 0 l 2,9,10
 647 0 647 0 602.5 62.5 c 128,-1,11
 558 125 558 125 539 262 c 1,12,-1
 532 262 l 1,13,14
 512 203 512 203 455 118 c 0,15,16
 403 41 403 41 392 41 c 0,17,18
 364 41 364 41 302 54 c 0,19,20
 218 71 218 71 155 102 c 0,21,22
 73 143 73 143 44 199 c 1,23,24
 76 282 76 282 118 359 c 0,25,26
 156 430 156 430 175 446 c 0,27,28
 214 484 214 484 296 522 c 0,29,30
 366 553 366 553 487 594 c 1,31,-1
 469 701 l 1,32,-1
 594 893 l 1,33,-1
 631 491 l 2,34,35
 637 418 637 418 665 376 c 0,36,37
 696 329 696 329 754 329 c 1,38,-1
 748 328 l 2,39,40
 752 326 752 326 760 326 c 0,41,42
 836 326 836 326 875 331.5 c 128,-1,43
 914 337 914 337 943 352 c 1,44,-1
 881 804 l 1,45,-1
 1019 1024 l 1,46,-1
 1052 416 l 2,47,48
 1052 366 1052 366 1085 344 c 0,49,50
 1114 326 1114 326 1174 326 c 2,51,-1
 1223 326 l 2,52,53
 1249 326 1249 326 1278 334 c 128,-1,54
 1307 342 1307 342 1324 352 c 1,55,-1
 1259 953 l 1,56,-1
 1225 991 l 1,57,-1
 1334 1182 l 1,58,59
 1356 1110 1356 1110 1394.5 1066 c 128,-1,60
 1433 1022 1433 1022 1501 991 c 1,61,-1
 1429 830 l 1,62,-1
 1396 845 l 1,63,-1
 1441 299 l 2,64,65
 1441 262 1441 262 1396.5 164 c 128,-1,66
 1352 66 1352 66 1327 41 c 0,67,68
 1315 29 1315 29 1258 14.5 c 128,-1,69
 1201 0 1201 0 1154 0 c 2,70,-1
 781 0 l 1,8,-1
1157 0 m 2,71,72
 1084 0 1084 0 1040 47 c 0,73,74
 1009 80 1009 80 989 152 c 1,75,-1
 974 152 l 1,76,-1
 918 34 l 1,77,78
 887 17 887 17 852 8.5 c 128,-1,79
 817 0 817 0 776 0 c 2,80,-1
 1157 0 l 2,71,72
EndSplineSet
EndChar

StartChar: afii64184
Encoding: 65010 65010 148
Width: 1564
GlyphClass: 3
Flags: W
AnchorPoint: "Anchor-1" 1380 -390 baselig 0
AnchorPoint: "Anchor-0" 1410 1260 baselig 0
AnchorPoint: "Anchor-1" 885 -435 baselig 1
AnchorPoint: "Anchor-0" 945 1035 baselig 1
AnchorPoint: "Anchor-1" 405 -465 baselig 2
AnchorPoint: "Anchor-0" 390 870 baselig 2
LayerCount: 2
Fore
SplineSet
502 493 m 1,0,1
 448 467 448 467 409 438 c 0,2,3
 365 406 365 406 332 365 c 1,4,5
 378 338 378 338 428 325.5 c 128,-1,6
 478 313 478 313 532 313 c 1,7,-1
 502 493 l 1,0,1
924 1314 m 1,8,9
 895 1406 895 1406 876 1435 c 1,10,11
 858 1472 858 1472 802 1520 c 1,12,-1
 780 1637 l 1,13,14
 864 1591 864 1591 898 1535 c 0,15,16
 913 1510 913 1510 925 1461 c 128,-1,17
 937 1412 937 1412 947 1342 c 1,18,-1
 924 1314 l 1,8,9
1091 1226 m 0,19,20
 1091 1162 1091 1162 1064 1122 c 0,21,22
 1055 1103 1055 1103 1039.5 1092 c 128,-1,23
 1024 1081 1024 1081 1004 1081 c 0,24,25
 995 1081 995 1081 987.5 1083 c 128,-1,26
 980 1085 980 1085 977 1085.5 c 128,-1,27
 974 1086 974 1086 964 1092.5 c 128,-1,28
 954 1099 954 1099 947 1103 c 1,29,30
 936 1081 936 1081 925 1064.5 c 128,-1,31
 914 1048 914 1048 905 1037 c 0,32,33
 881 1020 881 1020 853 1018 c 0,34,35
 824 1018 824 1018 805 1045 c 256,36,37
 786 1072 786 1072 786 1111 c 0,38,39
 786 1124 786 1124 789.5 1146.5 c 128,-1,40
 793 1169 793 1169 802 1202 c 1,41,-1
 812 1205 l 1,42,43
 812 1156 812 1156 824 1133 c 1,44,45
 838 1116 838 1116 860 1116 c 0,46,47
 893 1116 893 1116 911 1151 c 0,48,49
 929 1181 929 1181 929 1252 c 1,50,-1
 944 1258 l 1,51,52
 950 1237 950 1237 955 1224 c 128,-1,53
 960 1211 960 1211 970 1198 c 0,54,55
 986 1176 986 1176 1004 1176 c 0,56,57
 1028 1176 1028 1176 1043 1206 c 0,58,59
 1051 1225 1051 1225 1054.5 1242.5 c 128,-1,60
 1058 1260 1058 1260 1058 1285 c 0,61,62
 1058 1302 1058 1302 1056 1309 c 1,63,-1
 1069 1318 l 1,64,65
 1076 1300 1076 1300 1079 1291.5 c 128,-1,66
 1082 1283 1082 1283 1084 1271 c 0,67,68
 1087 1260 1087 1260 1087.5 1248.5 c 128,-1,69
 1088 1237 1088 1237 1091 1226 c 0,19,20
781 0 m 1,70,-1
 727 0 l 2,71,72
 647 0 647 0 602.5 62.5 c 128,-1,73
 558 125 558 125 539 262 c 1,74,-1
 532 262 l 1,75,76
 512 203 512 203 455 118 c 0,77,78
 403 41 403 41 392 41 c 0,79,80
 364 41 364 41 302 54 c 0,81,82
 218 71 218 71 155 102 c 0,83,84
 73 143 73 143 44 199 c 1,85,86
 76 282 76 282 118 359 c 0,87,88
 156 430 156 430 175 446 c 0,89,90
 214 484 214 484 296 522 c 0,91,92
 366 553 366 553 487 594 c 1,93,-1
 469 701 l 1,94,-1
 594 893 l 1,95,-1
 631 491 l 2,96,97
 637 418 637 418 665 376 c 0,98,99
 696 329 696 329 754 329 c 1,100,-1
 748 328 l 2,101,102
 752 326 752 326 760 326 c 0,103,104
 836 326 836 326 875 331.5 c 128,-1,105
 914 337 914 337 943 352 c 1,106,-1
 881 804 l 1,107,-1
 1019 1024 l 1,108,-1
 1052 416 l 2,109,110
 1052 366 1052 366 1085 344 c 0,111,112
 1114 326 1114 326 1174 326 c 2,113,-1
 1223 326 l 2,114,115
 1249 326 1249 326 1278 334 c 128,-1,116
 1307 342 1307 342 1324 352 c 1,117,-1
 1259 953 l 1,118,-1
 1225 991 l 1,119,-1
 1334 1182 l 1,120,121
 1356 1110 1356 1110 1394.5 1066 c 128,-1,122
 1433 1022 1433 1022 1501 991 c 1,123,-1
 1429 830 l 1,124,-1
 1396 845 l 1,125,-1
 1441 299 l 2,126,127
 1441 262 1441 262 1396.5 164 c 128,-1,128
 1352 66 1352 66 1327 41 c 0,129,130
 1315 29 1315 29 1258 14.5 c 128,-1,131
 1201 0 1201 0 1154 0 c 2,132,-1
 781 0 l 1,70,-1
1157 0 m 2,133,134
 1084 0 1084 0 1040 47 c 0,135,136
 1009 80 1009 80 989 152 c 1,137,-1
 974 152 l 1,138,-1
 918 34 l 1,139,140
 887 17 887 17 852 8.5 c 128,-1,141
 817 0 817 0 776 0 c 2,142,-1
 1157 0 l 2,133,134
EndSplineSet
Ligature2: "'rlig' Required Ligatures in Arabic lookup 5 subtable" afii62817 afii62818 uniFC63 afii62828
Ligature2: "'rlig' Required Ligatures in Arabic lookup 5 subtable" afii62817 afii62818 afii57457 uni0670 afii62828
EndChar

StartChar: afii57415.001
Encoding: 1575 1575 162
Width: 355
GlyphClass: 2
Flags: W
AnchorPoint: "Anchor-3" 195 -345 basechar 0
AnchorPoint: "Anchor-2" 195 1260 basechar 0
LayerCount: 2
Fore
SplineSet
228 1163 m 1,0,1
 227 1150 227 1150 225 1132.5 c 128,-1,2
 223 1115 223 1115 223 1097 c 0,3,4
 223 1009 223 1009 240 818 c 0,5,6
 242 776 242 776 269 506 c 0,7,8
 283 343 283 343 283 292 c 0,9,10
 283 230 283 230 247 140 c 0,11,12
 216 59 216 59 174 0 c 1,13,-1
 160 0 l 1,14,15
 164 30 164 30 166 59 c 128,-1,16
 168 88 168 88 168 120 c 0,17,18
 168 167 168 167 150 342 c 0,19,20
 138 469 138 469 116.5 660 c 128,-1,21
 95 851 95 851 86 949 c 1,22,-1
 228 1163 l 1,23,-1
 228 1163 l 1,0,1
EndSplineSet
Substitution2: "'fina' Terminal Forms in Arabic lookup 2 subtable" afii62760
EndChar

StartChar: afii62760.001
Encoding: 65558 -1 163
Width: 337
GlyphClass: 2
Flags: W
LayerCount: 2
Fore
SplineSet
397 56 m 1,0,1
 397 32 397 32 383.5 16 c 128,-1,2
 370 0 370 0 341 0 c 0,3,4
 216 0 216 0 165 116.5 c 128,-1,5
 114 233 114 233 114 534 c 0,6,7
 114 586 114 586 105 653 c 128,-1,8
 96 720 96 720 80 805 c 0,9,10
 67 870 67 870 49 959 c 1,11,-1
 179 1163 l 1,12,-1
 229 500 l 1,13,14
 229 395 229 395 262 358 c 0,15,16
 289 326 289 326 360 326 c 0,17,18
 377 326 377 326 387 310 c 128,-1,19
 397 294 397 294 397 270 c 2,20,-1
 397 56 l 1,21,-1
 397 56 l 1,0,1
EndSplineSet
EndChar

StartChar: afii57421
Encoding: 1581 1581 182
Width: 1084
GlyphClass: 2
Flags: W
AnchorPoint: "Anchor-3" 375 -1065 basechar 0
AnchorPoint: "Anchor-2" 525 1170 basechar 0
LayerCount: 2
Fore
SplineSet
890 451 m 1,0,1
 850 456 850 456 810 461 c 0,2,3
 736 470 736 470 680 470 c 0,4,5
 480 470 480 470 338 348 c 0,6,7
 194 223 194 223 194 36 c 0,8,9
 194 -34 194 -34 218 -91 c 0,10,11
 256 -174 256 -174 343 -222 c 0,12,13
 454 -281 454 -281 642 -281 c 0,14,15
 745 -281 745 -281 822.5 -275 c 128,-1,16
 900 -269 900 -269 980 -256 c 0,17,18
 1031 -247 1031 -247 1099 -234 c 1,19,-1
 1108 -242 l 1,20,21
 1108 -256 1108 -256 1052 -324 c 0,22,23
 995 -395 995 -395 930 -456 c 0,24,25
 853 -529 853 -529 808 -545 c 0,26,27
 743 -568 743 -568 668 -579 c 128,-1,28
 593 -590 593 -590 474 -590 c 0,29,30
 289 -590 289 -590 185 -451 c 0,31,32
 83 -316 83 -316 83 -88 c 0,33,34
 83 112 83 112 166 274 c 0,35,36
 253 446 253 446 413 522 c 1,37,-1
 413 526 l 1,38,39
 374 534 374 534 344 535 c 128,-1,40
 314 536 314 536 250 536 c 0,41,42
 197 536 197 536 151.5 522 c 128,-1,43
 106 508 106 508 67 473 c 1,44,-1
 54 478 l 1,45,46
 54 512 54 512 85 572 c 0,47,48
 124 647 124 647 184 695 c 0,49,50
 258 755 258 755 350 755 c 0,51,52
 389 755 389 755 430.5 749.5 c 128,-1,53
 472 744 472 744 533 732 c 0,54,55
 572 724 572 724 641 710 c 0,56,57
 708 694 708 694 844 684 c 0,58,59
 940 678 940 678 1012 678 c 1,60,-1
 890 451 l 1,61,-1
 890 451 l 1,0,1
EndSplineSet
Substitution2: "'medi' Medial Forms in Arabic lookup 3 subtable" afii62775
Substitution2: "'fina' Terminal Forms in Arabic lookup 2 subtable" afii62776
Substitution2: "'init' Initial Forms in Arabic lookup 1 subtable" afii62774
EndChar

StartChar: afii62776
Encoding: 65186 65186 183
Width: 1084
GlyphClass: 2
Flags: W
AnchorPoint: "Anchor-3" 480 -1035 basechar 0
AnchorPoint: "Anchor-2" 570 1065 basechar 0
LayerCount: 2
Fore
SplineSet
1142 56 m 1,0,1
 1142 32 1142 32 1129 16 c 128,-1,2
 1116 0 1116 0 1088 0 c 2,3,-1
 794 0 l 2,4,5
 702 0 702 0 642 73 c 128,-1,6
 582 146 582 146 582 259 c 0,7,8
 582 317 582 317 588.5 365 c 128,-1,9
 595 413 595 413 617 470 c 1,10,11
 419 439 419 439 301 308 c 0,12,13
 194 187 194 187 194 36 c 0,14,15
 194 -34 194 -34 218 -91 c 0,16,17
 256 -174 256 -174 343 -222 c 0,18,19
 454 -281 454 -281 642 -281 c 0,20,21
 745 -281 745 -281 822.5 -275 c 128,-1,22
 900 -269 900 -269 980 -256 c 0,23,24
 1031 -247 1031 -247 1099 -234 c 1,25,-1
 1108 -242 l 1,26,27
 1108 -256 1108 -256 1052 -324 c 0,28,29
 995 -395 995 -395 930 -456 c 0,30,31
 853 -529 853 -529 808 -545 c 0,32,33
 743 -568 743 -568 668 -579 c 128,-1,34
 593 -590 593 -590 474 -590 c 0,35,36
 289 -590 289 -590 185 -451 c 0,37,38
 83 -316 83 -316 83 -88 c 0,39,40
 83 112 83 112 166 274 c 0,41,42
 253 446 253 446 413 522 c 1,43,-1
 413 526 l 1,44,45
 374 534 374 534 344 535 c 128,-1,46
 314 536 314 536 250 536 c 0,47,48
 197 536 197 536 151.5 522 c 128,-1,49
 106 508 106 508 67 473 c 1,50,-1
 54 478 l 1,51,52
 54 512 54 512 85 572 c 0,53,54
 124 647 124 647 184 695 c 0,55,56
 258 755 258 755 350 755 c 0,57,58
 389 755 389 755 430.5 749.5 c 128,-1,59
 472 744 472 744 533 732 c 0,60,61
 572 724 572 724 641 710 c 0,62,63
 708 694 708 694 844 684 c 0,64,65
 940 678 940 678 1012 678 c 1,66,-1
 890 451 l 1,67,68
 854 455 854 455 787.5 462.5 c 128,-1,69
 721 470 721 470 672 470 c 1,70,-1
 672 451 l 2,71,72
 672 389 672 389 712 356 c 0,73,74
 749 326 749 326 816 326 c 2,75,-1
 1105 326 l 2,76,77
 1122 326 1122 326 1132 310 c 128,-1,78
 1142 294 1142 294 1142 270 c 2,79,-1
 1142 56 l 1,80,-1
 1142 56 l 1,0,1
EndSplineSet
EndChar

StartChar: afii62774
Encoding: 65187 65187 184
Width: 1288
GlyphClass: 2
Flags: W
AnchorPoint: "Anchor-3" 450 -525 basechar 0
AnchorPoint: "Anchor-2" 585 1005 basechar 0
LayerCount: 2
Fore
SplineSet
-58 270 m 1,0,1
 -58 295 -58 295 -48 310.5 c 128,-1,2
 -38 326 -38 326 -22 326 c 2,3,-1
 472 326 l 2,4,5
 554 326 554 326 624 343 c 128,-1,6
 694 360 694 360 760 395 c 1,7,8
 692 433 692 433 641 456 c 0,9,10
 572 485 572 485 504.5 501 c 128,-1,11
 437 517 437 517 362 517 c 0,12,13
 312 517 312 517 266.5 502 c 128,-1,14
 221 487 221 487 180 451 c 1,15,-1
 172 458 l 1,16,17
 172 493 172 493 202 553 c 0,18,19
 240 629 240 629 299 677 c 0,20,21
 373 738 373 738 466 738 c 0,22,23
 581 738 581 738 707 672 c 0,24,25
 820 612 820 612 932 551 c 1,26,27
 1081 485 1081 485 1250 485 c 1,28,-1
 1098 245 l 1,29,30
 1003 245 1003 245 918 226 c 0,31,32
 846 211 846 211 774 180 c 0,33,34
 727 161 727 161 648 120 c 0,35,36
 553 73 553 73 524 61 c 0,37,38
 457 32 457 32 385 16 c 128,-1,39
 313 0 313 0 227 0 c 2,40,-1
 -5 0 l 2,41,42
 -31 0 -31 0 -44.5 16 c 128,-1,43
 -58 32 -58 32 -58 56 c 2,44,-1
 -58 270 l 1,45,-1
 -58 270 l 1,0,1
EndSplineSet
EndChar

StartChar: afii62775
Encoding: 65188 65188 185
Width: 1250
GlyphClass: 2
Flags: W
AnchorPoint: "Anchor-3" 450 -510 basechar 0
AnchorPoint: "Anchor-2" 630 1050 basechar 0
LayerCount: 2
Fore
SplineSet
1308 56 m 1,0,1
 1308 32 1308 32 1295 16 c 128,-1,2
 1282 0 1282 0 1254 0 c 2,3,-1
 914 0 l 2,4,5
 820 0 820 0 760 66 c 0,6,7
 710 119 710 119 689 212 c 1,8,9
 648 174 648 174 584 131 c 0,10,11
 497 74 497 74 416 41 c 0,12,13
 313 0 313 0 223 0 c 2,14,-1
 -5 0 l 2,15,16
 -31 0 -31 0 -45 16 c 128,-1,17
 -59 32 -59 32 -59 56 c 2,18,-1
 -59 270 l 2,19,20
 -59 295 -59 295 -48.5 310.5 c 128,-1,21
 -38 326 -38 326 -22 326 c 2,22,-1
 322 326 l 2,23,24
 400 326 400 326 463.5 342 c 128,-1,25
 527 358 527 358 592 388 c 0,26,27
 628 406 628 406 718 452 c 1,28,-1
 718 458 l 1,29,-1
 701 458 l 2,30,31
 670 458 670 458 604 474 c 0,32,33
 494 500 494 500 480 503 c 0,34,35
 402 517 402 517 342 517 c 0,36,37
 277 517 277 517 226 496 c 0,38,39
 188 478 188 478 160 451 c 1,40,-1
 150 458 l 1,41,42
 150 491 150 491 181 553 c 0,43,44
 220 629 220 629 277 677 c 0,45,46
 353 738 353 738 446 738 c 0,47,48
 484 738 484 738 532 731 c 0,49,50
 565 726 565 726 625 713 c 0,51,52
 650 707 650 707 736.5 687.5 c 128,-1,53
 823 668 823 668 958 654 c 128,-1,54
 1093 640 1093 640 1218 640 c 1,55,-1
 1087 401 l 1,56,57
 1061 408 1061 408 1014 414 c 128,-1,58
 967 420 967 420 948 420 c 0,59,60
 910 420 910 420 871 396 c 0,61,62
 836 373 836 373 810 340 c 1,63,64
 851 326 851 326 965 326 c 2,65,-1
 1273 326 l 2,66,67
 1288 326 1288 326 1298 310 c 128,-1,68
 1308 294 1308 294 1308 270 c 2,69,-1
 1308 56 l 1,70,-1
 1308 56 l 1,0,1
EndSplineSet
EndChar

StartChar: afii57423
Encoding: 1583 1583 190
Width: 778
GlyphClass: 2
Flags: W
AnchorPoint: "Anchor-3" 345 -525 basechar 0
AnchorPoint: "Anchor-2" 390 1185 basechar 0
LayerCount: 2
Fore
SplineSet
318 622 m 1,0,1
 328 680 328 680 337 740 c 0,2,3
 367 893 367 893 447 893 c 0,4,5
 493 893 493 893 565 827 c 0,6,7
 646 752 646 752 697 643 c 0,8,9
 757 514 757 514 757 365 c 0,10,11
 757 280 757 280 741 202 c 0,12,13
 721 110 721 110 683 38 c 0,14,15
 681 30 681 30 634 17 c 0,16,17
 577 0 577 0 497.5 -12 c 128,-1,18
 418 -24 418 -24 319 -24 c 0,19,20
 195 -24 195 -24 151 14 c 0,21,22
 103 56 103 56 103 187 c 0,23,24
 103 226 103 226 111 278 c 0,25,26
 117 316 117 316 130 376 c 1,27,-1
 142 376 l 1,28,29
 148 328 148 328 202 313 c 0,30,31
 234 305 234 305 324 305 c 0,32,33
 423 305 423 305 505.5 318 c 128,-1,34
 588 331 588 331 642 359 c 1,35,36
 624 420 624 420 600 475 c 0,37,38
 567 551 567 551 526 594 c 0,39,40
 477 648 477 648 419 648 c 0,41,42
 391 648 391 648 369.5 640 c 128,-1,43
 348 632 348 632 331 616 c 1,44,-1
 318 622 l 1,45,-1
 318 622 l 1,0,1
EndSplineSet
Substitution2: "'fina' Terminal Forms in Arabic lookup 2 subtable" afii62780
PairPos2: "'kern' Horizontal Kerning in Arabic lookup 0 subtable" afii57410 dx=0 dy=0 dh=0 dv=0 dx=0 dy=0 dh=-100 dv=0
PairPos2: "'kern' Horizontal Kerning in Arabic lookup 0 subtable" afii57434 dx=0 dy=0 dh=0 dv=0 dx=0 dy=0 dh=-100 dv=0
PairPos2: "'kern' Horizontal Kerning in Arabic lookup 0 subtable" afii57433 dx=0 dy=0 dh=0 dv=0 dx=0 dy=0 dh=-100 dv=0
PairPos2: "'kern' Horizontal Kerning in Arabic lookup 0 subtable" afii57422 dx=0 dy=0 dh=0 dv=0 dx=0 dy=0 dh=-80 dv=0
PairPos2: "'kern' Horizontal Kerning in Arabic lookup 0 subtable" afii57421 dx=0 dy=0 dh=0 dv=0 dx=0 dy=0 dh=-80 dv=0
PairPos2: "'kern' Horizontal Kerning in Arabic lookup 0 subtable" afii57420 dx=0 dy=0 dh=0 dv=0 dx=0 dy=0 dh=-80 dv=0
PairPos2: "'kern' Horizontal Kerning in Arabic lookup 0 subtable" afii62965 dx=0 dy=0 dh=0 dv=0 dx=0 dy=0 dh=-100 dv=0
PairPos2: "'kern' Horizontal Kerning in Arabic lookup 0 subtable" afii57509 dx=0 dy=0 dh=0 dv=0 dx=0 dy=0 dh=-100 dv=0
PairPos2: "'kern' Horizontal Kerning in Arabic lookup 0 subtable" afii52305 dx=0 dy=0 dh=0 dv=0 dx=0 dy=0 dh=-100 dv=0
PairPos2: "'kern' Horizontal Kerning in Arabic lookup 0 subtable" afii57567 dx=0 dy=0 dh=0 dv=0 dx=0 dy=0 dh=-100 dv=0
PairPos2: "'kern' Horizontal Kerning in Arabic lookup 0 subtable" afii57507 dx=0 dy=0 dh=0 dv=0 dx=0 dy=0 dh=-80 dv=0
EndChar

StartChar: afii62780
Encoding: 65194 65194 191
Width: 851
GlyphClass: 2
Flags: W
AnchorPoint: "Anchor-3" 285 -480 basechar 0
AnchorPoint: "Anchor-2" 600 1065 basechar 0
LayerCount: 2
Fore
SplineSet
908 56 m 1,0,1
 908 32 908 32 894.5 16 c 128,-1,2
 881 0 881 0 854 0 c 0,3,4
 763 0 763 0 712 40 c 0,5,6
 653 85 653 85 631 216 c 1,7,-1
 622 216 l 1,8,-1
 534 12 l 1,9,10
 474 0 474 0 404 -5.5 c 128,-1,11
 334 -11 334 -11 260 -11 c 0,12,13
 218 -11 218 -11 187.5 -6.5 c 128,-1,14
 157 -2 157 -2 144 11 c 0,15,16
 125 29 125 29 112 71 c 0,17,18
 95 128 95 128 95 216 c 0,19,20
 95 258 95 258 104 308 c 128,-1,21
 113 358 113 358 124 398 c 1,22,-1
 142 398 l 1,23,24
 142 340 142 340 193 317 c 0,25,26
 230 301 230 301 306 301 c 0,27,28
 356 301 356 301 448 314.5 c 128,-1,29
 540 328 540 328 611 347 c 1,30,31
 611 432 611 432 590 551 c 128,-1,32
 569 670 569 670 551 714 c 1,33,-1
 674 910 l 1,34,-1
 720 482 l 2,35,36
 728 389 728 389 752 361 c 0,37,38
 781 326 781 326 872 326 c 0,39,40
 888 326 888 326 898 310 c 128,-1,41
 908 294 908 294 908 270 c 2,42,-1
 908 56 l 1,43,-1
 908 56 l 1,0,1
EndSplineSet
PairPos2: "'kern' Horizontal Kerning in Arabic lookup 0 subtable" afii57410 dx=0 dy=0 dh=0 dv=0 dx=0 dy=0 dh=-100 dv=0
PairPos2: "'kern' Horizontal Kerning in Arabic lookup 0 subtable" afii57434 dx=0 dy=0 dh=0 dv=0 dx=0 dy=0 dh=-100 dv=0
PairPos2: "'kern' Horizontal Kerning in Arabic lookup 0 subtable" afii57433 dx=0 dy=0 dh=0 dv=0 dx=0 dy=0 dh=-100 dv=0
PairPos2: "'kern' Horizontal Kerning in Arabic lookup 0 subtable" afii57422 dx=0 dy=0 dh=0 dv=0 dx=0 dy=0 dh=-80 dv=0
PairPos2: "'kern' Horizontal Kerning in Arabic lookup 0 subtable" afii57421 dx=0 dy=0 dh=0 dv=0 dx=0 dy=0 dh=-80 dv=0
PairPos2: "'kern' Horizontal Kerning in Arabic lookup 0 subtable" afii57420 dx=0 dy=0 dh=0 dv=0 dx=0 dy=0 dh=-80 dv=0
PairPos2: "'kern' Horizontal Kerning in Arabic lookup 0 subtable" afii62965 dx=0 dy=0 dh=0 dv=0 dx=0 dy=0 dh=-100 dv=0
PairPos2: "'kern' Horizontal Kerning in Arabic lookup 0 subtable" afii57509 dx=0 dy=0 dh=0 dv=0 dx=0 dy=0 dh=-100 dv=0
PairPos2: "'kern' Horizontal Kerning in Arabic lookup 0 subtable" afii52305 dx=0 dy=0 dh=0 dv=0 dx=0 dy=0 dh=-100 dv=0
PairPos2: "'kern' Horizontal Kerning in Arabic lookup 0 subtable" afii57567 dx=0 dy=0 dh=0 dv=0 dx=0 dy=0 dh=-100 dv=0
PairPos2: "'kern' Horizontal Kerning in Arabic lookup 0 subtable" afii57507 dx=0 dy=0 dh=0 dv=0 dx=0 dy=0 dh=-80 dv=0
EndChar

StartChar: afii57425
Encoding: 1585 1585 194
Width: 724
GlyphClass: 2
Flags: W
AnchorPoint: "Anchor-3" 225 -750 basechar 0
AnchorPoint: "Anchor-2" 435 945 basechar 0
LayerCount: 2
Fore
SplineSet
517 674 m 1,0,1
 581 596 581 596 622.5 481 c 128,-1,2
 664 366 664 366 664 265 c 0,3,4
 664 150 664 150 607.5 14.5 c 128,-1,5
 551 -121 551 -121 468 -209 c 0,6,7
 377 -305 377 -305 288 -305 c 0,8,9
 233 -305 233 -305 167 -260 c 0,10,11
 112 -223 112 -223 54 -162 c 0,12,13
 8 -112 8 -112 -28 -58 c 1,14,15
 18 -73 18 -73 57 -79 c 128,-1,16
 96 -85 96 -85 125 -85 c 0,17,18
 240 -85 240 -85 330 -34 c 0,19,20
 406 10 406 10 473 97 c 0,21,22
 518 155 518 155 582 265 c 1,23,24
 553 320 553 320 499 382 c 0,25,26
 482 401 482 401 401 482 c 1,27,-1
 517 674 l 1,28,-1
 517 674 l 1,0,1
EndSplineSet
Substitution2: "'fina' Terminal Forms in Arabic lookup 2 subtable" afii62782
PairPos2: "'kern' Horizontal Kerning in Arabic lookup 0 subtable" uni0675 dx=0 dy=0 dh=0 dv=0 dx=0 dy=0 dh=-50 dv=0
PairPos2: "'kern' Horizontal Kerning in Arabic lookup 0 subtable" uni0672 dx=0 dy=0 dh=0 dv=0 dx=0 dy=0 dh=-50 dv=0
PairPos2: "'kern' Horizontal Kerning in Arabic lookup 0 subtable" afii57446 dx=0 dy=0 dh=0 dv=0 dx=0 dy=0 dh=50 dv=0
PairPos2: "'kern' Horizontal Kerning in Arabic lookup 0 subtable" afii57410 dx=0 dy=0 dh=0 dv=0 dx=0 dy=0 dh=-200 dv=0
PairPos2: "'kern' Horizontal Kerning in Arabic lookup 0 subtable" afii57442 dx=0 dy=0 dh=0 dv=0 dx=0 dy=0 dh=50 dv=0
PairPos2: "'kern' Horizontal Kerning in Arabic lookup 0 subtable" afii57411 dx=0 dy=0 dh=0 dv=0 dx=0 dy=0 dh=-50 dv=0
PairPos2: "'kern' Horizontal Kerning in Arabic lookup 0 subtable" afii62965 dx=0 dy=0 dh=0 dv=0 dx=0 dy=0 dh=-200 dv=0
PairPos2: "'kern' Horizontal Kerning in Arabic lookup 0 subtable" afii57509 dx=0 dy=0 dh=0 dv=0 dx=0 dy=0 dh=-200 dv=0
PairPos2: "'kern' Horizontal Kerning in Arabic lookup 0 subtable" afii52305 dx=0 dy=0 dh=0 dv=0 dx=0 dy=0 dh=-200 dv=0
PairPos2: "'kern' Horizontal Kerning in Arabic lookup 0 subtable" afii57567 dx=0 dy=0 dh=0 dv=0 dx=0 dy=0 dh=-200 dv=0
EndChar

StartChar: afii62782
Encoding: 65198 65198 195
Width: 841
GlyphClass: 2
Flags: W
AnchorPoint: "Anchor-3" 285 -840 basechar 0
AnchorPoint: "Anchor-2" 570 810 basechar 0
LayerCount: 2
Fore
SplineSet
898 56 m 1,0,1
 898 32 898 32 884.5 16 c 128,-1,2
 871 0 871 0 844 0 c 0,3,4
 796 0 796 0 745.5 20.5 c 128,-1,5
 695 41 695 41 661 78 c 1,6,7
 611 -68 611 -68 566 -155 c 0,8,9
 510 -268 510 -268 448 -323 c 0,10,11
 377 -386 377 -386 288 -386 c 0,12,13
 234 -386 234 -386 167 -342 c 0,14,15
 112 -306 112 -306 54 -245 c 0,16,17
 11 -197 11 -197 -28 -142 c 1,18,19
 17 -155 17 -155 57.5 -161 c 128,-1,20
 98 -167 98 -167 125 -167 c 0,21,22
 244 -167 244 -167 343 -116 c 0,23,24
 428 -72 428 -72 496 8 c 0,25,26
 551 76 551 76 593 166 c 1,27,28
 556 198 556 198 531 238 c 128,-1,29
 506 278 506 278 490 326 c 1,30,-1
 626 536 l 1,31,32
 670 426 670 426 713.5 376 c 128,-1,33
 757 326 757 326 816 326 c 2,34,-1
 863 326 l 2,35,36
 878 326 878 326 888 310 c 128,-1,37
 898 294 898 294 898 270 c 2,38,-1
 898 56 l 1,39,-1
 898 56 l 1,0,1
EndSplineSet
PairPos2: "'kern' Horizontal Kerning in Arabic lookup 0 subtable" afii57410 dx=0 dy=0 dh=0 dv=0 dx=0 dy=0 dh=-200 dv=0
PairPos2: "'kern' Horizontal Kerning in Arabic lookup 0 subtable" afii57434 dx=0 dy=0 dh=0 dv=0 dx=0 dy=0 dh=100 dv=0
PairPos2: "'kern' Horizontal Kerning in Arabic lookup 0 subtable" afii57433 dx=0 dy=0 dh=0 dv=0 dx=0 dy=0 dh=100 dv=0
PairPos2: "'kern' Horizontal Kerning in Arabic lookup 0 subtable" afii57422 dx=0 dy=0 dh=0 dv=0 dx=0 dy=0 dh=100 dv=0
PairPos2: "'kern' Horizontal Kerning in Arabic lookup 0 subtable" afii57421 dx=0 dy=0 dh=0 dv=0 dx=0 dy=0 dh=100 dv=0
PairPos2: "'kern' Horizontal Kerning in Arabic lookup 0 subtable" afii57420 dx=0 dy=0 dh=0 dv=0 dx=0 dy=0 dh=100 dv=0
PairPos2: "'kern' Horizontal Kerning in Arabic lookup 0 subtable" afii57413 dx=0 dy=0 dh=0 dv=0 dx=0 dy=0 dh=120 dv=0
PairPos2: "'kern' Horizontal Kerning in Arabic lookup 0 subtable" afii62965 dx=0 dy=0 dh=0 dv=0 dx=0 dy=0 dh=-200 dv=0
PairPos2: "'kern' Horizontal Kerning in Arabic lookup 0 subtable" afii57509 dx=0 dy=0 dh=0 dv=0 dx=0 dy=0 dh=-200 dv=0
PairPos2: "'kern' Horizontal Kerning in Arabic lookup 0 subtable" afii52305 dx=0 dy=0 dh=0 dv=0 dx=0 dy=0 dh=-200 dv=0
PairPos2: "'kern' Horizontal Kerning in Arabic lookup 0 subtable" afii57567 dx=0 dy=0 dh=0 dv=0 dx=0 dy=0 dh=-200 dv=0
PairPos2: "'kern' Horizontal Kerning in Arabic lookup 0 subtable" afii57507 dx=0 dy=0 dh=0 dv=0 dx=0 dy=0 dh=100 dv=0
EndChar

StartChar: afii57427
Encoding: 1587 1587 198
Width: 1682
GlyphClass: 2
Flags: W
AnchorPoint: "Anchor-3" 480 -885 basechar 0
AnchorPoint: "Anchor-2" 1185 840 basechar 0
LayerCount: 2
Fore
SplineSet
852 506 m 1,0,1
 883 458 883 458 921 418 c 128,-1,2
 959 378 959 378 996 356 c 0,3,4
 1007 353 1007 353 1022.5 352.5 c 128,-1,5
 1038 352 1038 352 1064 352 c 2,6,-1
 1076 352 l 1,7,-1
 1088 352 l 2,8,9
 1126 352 1126 352 1167 362.5 c 128,-1,10
 1208 373 1208 373 1219 389 c 2,11,-1
 1288 503 l 1,12,-1
 1295 506 l 1,13,-1
 1318 356 l 1,14,15
 1370 326 1370 326 1410 310 c 128,-1,16
 1450 294 1450 294 1494 286 c 1,17,-1
 1494 311 l 2,18,19
 1494 342 1494 342 1480 377 c 128,-1,20
 1466 412 1466 412 1445 439 c 1,21,-1
 1543 596 l 1,22,23
 1620 470 1620 470 1620 320 c 0,24,25
 1620 229 1620 229 1584 136 c 0,26,27
 1553 52 1553 52 1496 -24 c 1,28,-1
 1453 -24 l 2,29,30
 1390 -24 1390 -24 1325 -1 c 0,31,32
 1273 17 1273 17 1184 64 c 1,33,34
 1146 42 1146 42 1099 27.5 c 128,-1,35
 1052 13 1052 13 955 0 c 1,36,37
 955 -80 955 -80 933 -165 c 128,-1,38
 911 -250 911 -250 871 -320 c 0,39,40
 863 -334 863 -334 793.5 -367 c 128,-1,41
 724 -400 724 -400 642 -425 c 0,42,43
 544 -455 544 -455 473 -455 c 0,44,45
 299 -455 299 -455 190 -377 c 0,46,47
 67 -288 67 -288 67 -122 c 0,48,49
 67 -43 67 -43 102 65 c 0,50,51
 131 152 131 152 170 227 c 0,52,53
 208 296 208 296 220 296 c 0,54,55
 234 296 234 296 234 281 c 0,56,57
 234 272 234 272 228 262 c 0,58,59
 204 206 204 206 198 169.5 c 128,-1,60
 192 133 192 133 192 66 c 0,61,62
 192 -24 192 -24 264 -83 c 0,63,64
 342 -144 342 -144 473 -144 c 0,65,66
 558 -144 558 -144 670 -115 c 0,67,68
 790 -84 790 -84 864 -36 c 1,69,70
 864 53 864 53 827 144 c 128,-1,71
 790 235 790 235 727 306 c 1,72,-1
 852 506 l 1,73,-1
 852 506 l 1,0,1
EndSplineSet
Substitution2: "'medi' Medial Forms in Arabic lookup 3 subtable" afii62785
Substitution2: "'fina' Terminal Forms in Arabic lookup 2 subtable" afii62786
Substitution2: "'init' Initial Forms in Arabic lookup 1 subtable" afii62784
EndChar

StartChar: afii62786
Encoding: 65202 65202 199
Width: 1686
GlyphClass: 2
Flags: W
AnchorPoint: "Anchor-3" 450 -870 basechar 0
AnchorPoint: "Anchor-2" 1200 885 basechar 0
LayerCount: 2
Fore
SplineSet
1745 56 m 1,0,1
 1745 34 1745 34 1730.5 17 c 128,-1,2
 1716 0 1716 0 1691 0 c 0,3,4
 1637 0 1637 0 1607.5 11 c 128,-1,5
 1578 22 1578 22 1528 58 c 1,6,-1
 1495 -24 l 1,7,-1
 1452 -24 l 2,8,9
 1388 -24 1388 -24 1325 -1 c 0,10,11
 1272 17 1272 17 1184 64 c 1,12,13
 1146 42 1146 42 1098.5 27.5 c 128,-1,14
 1051 13 1051 13 954 0 c 1,15,16
 954 -80 954 -80 932.5 -165 c 128,-1,17
 911 -250 911 -250 871 -320 c 0,18,19
 863 -334 863 -334 793.5 -367 c 128,-1,20
 724 -400 724 -400 642 -425 c 0,21,22
 544 -455 544 -455 472 -455 c 0,23,24
 298 -455 298 -455 190 -377 c 0,25,26
 67 -288 67 -288 67 -122 c 0,27,28
 67 -43 67 -43 102 65 c 0,29,30
 131 152 131 152 170 227 c 0,31,32
 208 296 208 296 220 296 c 0,33,34
 234 296 234 296 234 281 c 0,35,36
 234 272 234 272 227 262 c 0,37,38
 204 206 204 206 197.5 169.5 c 128,-1,39
 191 133 191 133 191 66 c 0,40,41
 191 -24 191 -24 264 -83 c 0,42,43
 341 -144 341 -144 472 -144 c 0,44,45
 557 -144 557 -144 668 -115 c 0,46,47
 790 -84 790 -84 863 -36 c 1,48,49
 863 53 863 53 826.5 144 c 128,-1,50
 790 235 790 235 727 306 c 1,51,-1
 852 506 l 1,52,53
 882 458 882 458 920.5 418 c 128,-1,54
 959 378 959 378 996 356 c 0,55,56
 1007 353 1007 353 1022.5 352.5 c 128,-1,57
 1038 352 1038 352 1064 352 c 2,58,-1
 1076 352 l 1,59,-1
 1088 352 l 2,60,61
 1124 352 1124 352 1166 362.5 c 128,-1,62
 1208 373 1208 373 1219 389 c 2,63,-1
 1288 503 l 1,64,-1
 1294 506 l 1,65,-1
 1318 356 l 1,66,67
 1345 335 1345 335 1377 322.5 c 128,-1,68
 1409 310 1409 310 1445 305 c 1,69,-1
 1498 461 l 1,70,-1
 1511 466 l 1,71,72
 1538 390 1538 390 1584 358 c 128,-1,73
 1630 326 1630 326 1708 326 c 0,74,75
 1722 326 1722 326 1733.5 309.5 c 128,-1,76
 1745 293 1745 293 1745 270 c 2,77,-1
 1745 56 l 1,78,-1
 1745 56 l 1,0,1
EndSplineSet
EndChar

StartChar: afii62784
Encoding: 65203 65203 200
Width: 1174
GlyphClass: 2
Flags: W
AnchorPoint: "Anchor-3" 540 -585 basechar 0
AnchorPoint: "Anchor-2" 630 945 basechar 0
LayerCount: 2
Fore
SplineSet
-58 270 m 1,0,1
 -58 295 -58 295 -48 310.5 c 128,-1,2
 -38 326 -38 326 -22 326 c 2,3,-1
 152 326 l 2,4,5
 256 326 256 326 322.5 363.5 c 128,-1,6
 389 401 389 401 446 482 c 1,7,-1
 455 485 l 1,8,-1
 427 341 l 1,9,10
 458 335 458 335 490.5 330.5 c 128,-1,11
 523 326 523 326 551 326 c 0,12,13
 587 326 587 326 630 334 c 128,-1,14
 673 342 673 342 680 352 c 0,15,16
 716 389 716 389 740 424 c 0,17,18
 760 454 760 454 781 500 c 1,19,-1
 787 506 l 1,20,-1
 811 356 l 1,21,22
 859 328 859 328 899.5 311 c 128,-1,23
 940 294 940 294 985 286 c 1,24,25
 986 296 986 296 986 301 c 2,26,-1
 986 311 l 2,27,28
 986 342 986 342 972 376 c 128,-1,29
 958 410 958 410 935 439 c 1,30,-1
 1038 596 l 1,31,32
 1073 533 1073 533 1093.5 462 c 128,-1,33
 1114 391 1114 391 1114 320 c 0,34,35
 1114 230 1114 230 1078 136 c 0,36,37
 1044 52 1044 52 989 -24 c 1,38,-1
 944 -24 l 2,39,40
 880 -24 880 -24 817 -1 c 0,41,42
 762 18 762 18 685 64 c 1,43,44
 570 22 570 22 482 1 c 0,45,46
 377 -24 377 -24 316 -24 c 0,47,48
 296 -24 296 -24 276.5 -21 c 128,-1,49
 257 -18 257 -18 245 -14 c 1,50,-1
 270 54 l 1,51,-1
 262 54 l 1,52,53
 218 29 218 29 175 14.5 c 128,-1,54
 132 0 132 0 103 0 c 2,55,-1
 -5 0 l 2,56,57
 -31 0 -31 0 -44.5 16 c 128,-1,58
 -58 32 -58 32 -58 56 c 2,59,-1
 -58 270 l 1,60,-1
 -58 270 l 1,0,1
EndSplineSet
EndChar

StartChar: afii62785
Encoding: 65204 65204 201
Width: 1181
GlyphClass: 2
Flags: W
AnchorPoint: "Anchor-3" 615 -540 basechar 0
AnchorPoint: "Anchor-2" 630 900 basechar 0
LayerCount: 2
Fore
SplineSet
1243 56 m 1,0,1
 1243 31 1243 31 1230 17 c 0,2,3
 1216 0 1216 0 1184 0 c 0,4,5
 1134 0 1134 0 1105 11 c 128,-1,6
 1076 22 1076 22 1026 58 c 1,7,-1
 994 -24 l 1,8,-1
 952 -24 l 2,9,10
 887 -24 887 -24 823 -1 c 0,11,12
 769 18 769 18 685 64 c 1,13,14
 571 22 571 22 484 1 c 0,15,16
 378 -24 378 -24 316 -24 c 0,17,18
 298 -24 298 -24 278 -21 c 128,-1,19
 258 -18 258 -18 246 -14 c 1,20,-1
 271 54 l 1,21,-1
 263 54 l 1,22,23
 218 29 218 29 175 14.5 c 128,-1,24
 132 0 132 0 104 0 c 2,25,-1
 -4 0 l 2,26,27
 -31 0 -31 0 -44.5 16 c 128,-1,28
 -58 32 -58 32 -58 56 c 2,29,-1
 -58 270 l 2,30,31
 -58 295 -58 295 -47.5 310.5 c 128,-1,32
 -37 326 -37 326 -22 326 c 2,33,-1
 154 326 l 2,34,35
 256 326 256 326 322.5 363.5 c 128,-1,36
 389 401 389 401 446 482 c 1,37,-1
 455 485 l 1,38,-1
 427 341 l 1,39,40
 460 335 460 335 492 330.5 c 128,-1,41
 524 326 524 326 552 326 c 0,42,43
 588 326 588 326 631 334 c 128,-1,44
 674 342 674 342 680 352 c 0,45,46
 718 389 718 389 740 424 c 0,47,48
 761 454 761 454 781 500 c 1,49,-1
 794 506 l 1,50,-1
 816 356 l 1,51,52
 844 335 844 335 875 322.5 c 128,-1,53
 906 310 906 310 940 305 c 1,54,-1
 996 461 l 1,55,-1
 1009 466 l 1,56,57
 1038 390 1038 390 1083.5 358 c 128,-1,58
 1129 326 1129 326 1206 326 c 0,59,60
 1223 326 1223 326 1233 310 c 128,-1,61
 1243 294 1243 294 1243 270 c 2,62,-1
 1243 56 l 1,63,-1
 1243 56 l 1,0,1
EndSplineSet
EndChar

StartChar: afii57429
Encoding: 1589 1589 206
Width: 2036
GlyphClass: 2
Flags: W
AnchorPoint: "Anchor-3" 495 -825 basechar 0
AnchorPoint: "Anchor-2" 1155 900 basechar 0
LayerCount: 2
Fore
SplineSet
865 485 m 1,0,1
 920 416 920 416 930 406 c 0,2,3
 966 365 966 365 1000 348 c 0,4,5
 1040 326 1040 326 1094 326 c 1,6,7
 1199 434 1199 434 1289 510 c 0,8,9
 1409 610 1409 610 1519 665 c 0,10,11
 1650 730 1650 730 1766 730 c 0,12,13
 1880 730 1880 730 1937 655 c 0,14,15
 1979 600 1979 600 1979 522 c 0,16,17
 1979 422 1979 422 1918.5 290 c 128,-1,18
 1858 158 1858 158 1776 73 c 0,19,20
 1746 42 1746 42 1644 22 c 0,21,22
 1560 5 1560 5 1446 -5 c 0,23,24
 1363 -11 1363 -11 1292 -11 c 0,25,26
 1208 -7 1208 -7 1126 -3.5 c 128,-1,27
 1044 0 1044 0 955 0 c 1,28,29
 955 -80 955 -80 933 -165 c 128,-1,30
 911 -250 911 -250 871 -320 c 0,31,32
 851 -354 851 -354 707 -404.5 c 128,-1,33
 563 -455 563 -455 473 -455 c 0,34,35
 298 -455 298 -455 190 -377 c 0,36,37
 67 -288 67 -288 67 -122 c 0,38,39
 67 -43 67 -43 102 65 c 0,40,41
 131 152 131 152 170 227 c 0,42,43
 208 296 208 296 220 296 c 0,44,45
 234 296 234 296 234 281 c 0,46,47
 234 272 234 272 228 262 c 0,48,49
 204 206 204 206 197.5 169.5 c 128,-1,50
 191 133 191 133 191 66 c 0,51,52
 191 -24 191 -24 264 -83 c 0,53,54
 342 -144 342 -144 473 -144 c 0,55,56
 558 -144 558 -144 670 -115 c 0,57,58
 790 -84 790 -84 863 -36 c 1,59,60
 863 46 863 46 829 133 c 0,61,62
 803 200 803 200 749 287 c 1,63,-1
 865 485 l 1,0,1
1240 316 m 1,64,65
 1289 308 1289 308 1338.5 304.5 c 128,-1,66
 1388 301 1388 301 1436 301 c 0,67,68
 1519 301 1519 301 1619.5 318.5 c 128,-1,69
 1720 336 1720 336 1813 354 c 1,70,71
 1800 430 1800 430 1751 472.5 c 128,-1,72
 1702 515 1702 515 1625 515 c 0,73,74
 1528 515 1528 515 1416 454 c 0,75,76
 1318 398 1318 398 1240 316 c 1,64,65
EndSplineSet
Substitution2: "'medi' Medial Forms in Arabic lookup 3 subtable" afii62791
Substitution2: "'fina' Terminal Forms in Arabic lookup 2 subtable" afii62792
Substitution2: "'init' Initial Forms in Arabic lookup 1 subtable" afii62790
EndChar

StartChar: afii62792
Encoding: 65210 65210 207
Width: 2034
GlyphClass: 2
Flags: W
AnchorPoint: "Anchor-3" 465 -840 basechar 0
AnchorPoint: "Anchor-2" 1185 930 basechar 0
LayerCount: 2
Fore
SplineSet
2090 56 m 2,0,1
 2090 32 2090 32 2077 16 c 128,-1,2
 2064 0 2064 0 2036 0 c 2,3,-1
 1418 0 l 2,4,5
 1399 -2 1399 -2 1356 -7 c 0,6,7
 1325 -11 1325 -11 1292 -11 c 0,8,9
 1208 -7 1208 -7 1126 -3.5 c 128,-1,10
 1044 0 1044 0 955 0 c 1,11,12
 955 -80 955 -80 933 -165 c 128,-1,13
 911 -250 911 -250 871 -320 c 0,14,15
 854 -350 854 -350 707 -402.5 c 128,-1,16
 560 -455 560 -455 473 -455 c 0,17,18
 298 -455 298 -455 190 -377 c 0,19,20
 67 -288 67 -288 67 -122 c 0,21,22
 67 -43 67 -43 102 65 c 0,23,24
 131 152 131 152 170 227 c 0,25,26
 208 296 208 296 220 296 c 0,27,28
 234 296 234 296 234 281 c 0,29,30
 234 272 234 272 228 262 c 0,31,32
 204 206 204 206 198 169.5 c 128,-1,33
 192 133 192 133 192 66 c 0,34,35
 192 -24 192 -24 264 -83 c 0,36,37
 342 -144 342 -144 473 -144 c 0,38,39
 558 -144 558 -144 670 -115 c 0,40,41
 790 -84 790 -84 864 -36 c 1,42,43
 864 46 864 46 829 133 c 0,44,45
 803 200 803 200 750 287 c 1,46,-1
 865 485 l 1,47,48
 920 416 920 416 930 406 c 0,49,50
 966 365 966 365 1000 348 c 0,51,52
 1040 326 1040 326 1094 326 c 1,53,54
 1199 434 1199 434 1289 510 c 0,55,56
 1409 610 1409 610 1519 665 c 0,57,58
 1650 730 1650 730 1766 730 c 0,59,60
 1880 730 1880 730 1937 655 c 0,61,62
 1979 600 1979 600 1979 522 c 0,63,64
 1979 472 1979 472 1965 420 c 128,-1,65
 1951 368 1951 368 1928 326 c 1,66,-1
 2056 326 l 2,67,68
 2071 326 2071 326 2080.5 310 c 128,-1,69
 2090 294 2090 294 2090 270 c 2,70,-1
 2090 56 l 2,0,1
1240 316 m 1,71,72
 1285 310 1285 310 1337 310 c 0,73,74
 1354 310 1354 310 1386 310.5 c 128,-1,75
 1418 311 1418 311 1434 311 c 0,76,77
 1522 311 1522 311 1625.5 323.5 c 128,-1,78
 1729 336 1729 336 1813 354 c 1,79,80
 1800 430 1800 430 1751 472.5 c 128,-1,81
 1702 515 1702 515 1625 515 c 0,82,83
 1528 515 1528 515 1416 454 c 0,84,85
 1318 398 1318 398 1240 316 c 1,71,72
EndSplineSet
EndChar

StartChar: afii62790
Encoding: 65211 65211 208
Width: 1401
GlyphClass: 2
Flags: W
AnchorPoint: "Anchor-3" 540 -630 basechar 0
AnchorPoint: "Anchor-2" 630 990 basechar 0
LayerCount: 2
Fore
SplineSet
-58 270 m 2,0,1
 -58 295 -58 295 -47.5 310.5 c 128,-1,2
 -37 326 -37 326 -22 326 c 0,3,4
 56 326 56 326 118 330.5 c 128,-1,5
 180 335 180 335 228 347 c 1,6,-1
 284 455 l 1,7,-1
 296 458 l 1,8,9
 301 403 301 403 349 366 c 0,10,11
 401 326 401 326 484 326 c 1,12,13
 588 436 588 436 677 510 c 0,14,15
 798 610 798 610 907 665 c 0,16,17
 1037 730 1037 730 1153 730 c 0,18,19
 1270 730 1270 730 1325 655 c 0,20,21
 1366 601 1366 601 1366 522 c 0,22,23
 1366 420 1366 420 1306 288 c 128,-1,24
 1246 156 1246 156 1163 73 c 0,25,26
 1135 43 1135 43 1032 23 c 0,27,28
 949 6 949 6 835 -4 c 0,29,30
 750 -11 750 -11 680 -11 c 0,31,32
 600 -7 600 -7 521 -3.5 c 128,-1,33
 442 0 442 0 365 0 c 0,34,35
 352 -2 352 -2 311 -35 c 0,36,37
 277 -61 277 -61 260 -79 c 1,38,-1
 242 -73 l 1,39,-1
 292 49 l 1,40,41
 272 64 272 64 247.5 89 c 128,-1,42
 223 114 223 114 214 131 c 1,43,-1
 154 24 l 1,44,45
 136 12 136 12 100.5 6 c 128,-1,46
 65 0 65 0 -4 0 c 0,47,48
 -31 0 -31 0 -44.5 16 c 128,-1,49
 -58 32 -58 32 -58 56 c 2,50,-1
 -58 270 l 2,0,1
629 316 m 1,51,52
 679 308 679 308 729 304.5 c 128,-1,53
 779 301 779 301 824 301 c 0,54,55
 907 301 907 301 1007.5 318.5 c 128,-1,56
 1108 336 1108 336 1202 354 c 1,57,58
 1186 431 1186 431 1139 472 c 0,59,60
 1090 515 1090 515 1013 515 c 0,61,62
 916 515 916 515 804 454 c 0,63,64
 706 398 706 398 629 316 c 1,51,52
EndSplineSet
EndChar

StartChar: afii62791
Encoding: 65212 65212 209
Width: 1421
GlyphClass: 2
Flags: W
AnchorPoint: "Anchor-3" 600 -600 basechar 0
AnchorPoint: "Anchor-2" 585 900 basechar 0
LayerCount: 2
Fore
SplineSet
-58 270 m 2,0,1
 -58 295 -58 295 -47.5 310.5 c 128,-1,2
 -37 326 -37 326 -22 326 c 0,3,4
 56 326 56 326 118 330.5 c 128,-1,5
 180 335 180 335 228 347 c 1,6,-1
 284 455 l 1,7,-1
 296 458 l 1,8,9
 301 403 301 403 349 366 c 0,10,11
 401 326 401 326 484 326 c 1,12,13
 588 436 588 436 677 510 c 0,14,15
 798 610 798 610 907 665 c 0,16,17
 1037 730 1037 730 1153 730 c 0,18,19
 1270 730 1270 730 1325 655 c 0,20,21
 1366 601 1366 601 1366 522 c 0,22,23
 1366 473 1366 473 1352 422 c 128,-1,24
 1338 371 1338 371 1318 326 c 1,25,-1
 1445 326 l 2,26,27
 1458 326 1458 326 1468 310 c 128,-1,28
 1478 294 1478 294 1478 270 c 2,29,-1
 1478 56 l 2,30,31
 1478 34 1478 34 1464.5 17 c 128,-1,32
 1451 0 1451 0 1426 0 c 2,33,-1
 808 0 l 1,34,35
 775 -5 775 -5 743.5 -8 c 128,-1,36
 712 -11 712 -11 680 -11 c 0,37,38
 600 -7 600 -7 521 -3.5 c 128,-1,39
 442 0 442 0 365 0 c 0,40,41
 352 -2 352 -2 311 -35 c 0,42,43
 277 -61 277 -61 260 -79 c 1,44,-1
 242 -73 l 1,45,-1
 292 49 l 1,46,47
 272 64 272 64 247.5 89 c 128,-1,48
 223 114 223 114 214 131 c 1,49,-1
 154 24 l 1,50,51
 136 12 136 12 100.5 6 c 128,-1,52
 65 0 65 0 -4 0 c 0,53,54
 -31 0 -31 0 -44.5 16 c 128,-1,55
 -58 32 -58 32 -58 56 c 2,56,-1
 -58 270 l 2,0,1
634 322 m 1,57,58
 745 311 745 311 821 311 c 0,59,60
 910 311 910 311 1013 323 c 128,-1,61
 1116 335 1116 335 1202 354 c 1,62,63
 1186 431 1186 431 1139 472 c 0,64,65
 1090 515 1090 515 1013 515 c 0,66,67
 917 515 917 515 805 454 c 0,68,69
 707 401 707 401 634 322 c 1,57,58
EndSplineSet
EndChar

StartChar: afii57431
Encoding: 1591 1591 214
Width: 1364
GlyphClass: 2
Flags: W
AnchorPoint: "Anchor-3" 630 -480 basechar 0
AnchorPoint: "Anchor-2" 975 1035 basechar 0
LayerCount: 2
Fore
SplineSet
487 414 m 2,0,1
 499 421 499 421 505 450.5 c 128,-1,2
 511 480 511 480 511 506 c 0,3,4
 511 534 511 534 502 624 c 0,5,6
 499 648 499 648 480 794 c 0,7,8
 474 844 474 844 462 949 c 1,9,-1
 425 990 l 1,10,-1
 540 1182 l 1,11,12
 557 1111 557 1111 596 1062 c 0,13,14
 641 1004 641 1004 706 990 c 1,15,-1
 632 828 l 1,16,-1
 607 838 l 1,17,18
 607 820 607 820 611.5 758 c 128,-1,19
 616 696 616 696 616 670 c 0,20,21
 616 608 616 608 608.5 559.5 c 128,-1,22
 601 511 601 511 586 480 c 1,23,-1
 590 476 l 1,24,25
 680 530 680 530 751 565 c 0,26,27
 851 616 851 616 935 643 c 0,28,29
 1037 676 1037 676 1116 676 c 0,30,31
 1246 676 1246 676 1297 608 c 0,32,33
 1328 568 1328 568 1328 498 c 0,34,35
 1328 461 1328 461 1310 397 c 0,36,37
 1289 320 1289 320 1253 247 c 0,38,39
 1207 157 1207 157 1142 73 c 0,40,41
 1121 43 1121 43 1017.5 21.5 c 128,-1,42
 914 0 914 0 794 0 c 2,43,-1
 397 0 l 2,44,45
 301 0 301 0 253 26 c 0,46,47
 188 62 188 62 125 175 c 0,48,49
 104 211 104 211 88.5 264.5 c 128,-1,50
 73 318 73 318 73 354 c 1,51,52
 146 330 146 330 229 328 c 0,53,54
 250 326 250 326 367 326 c 1,55,-1
 487 414 l 2,0,1
763 311 m 2,56,57
 882 311 882 311 972 323 c 0,58,59
 1084 338 1084 338 1163 373 c 1,60,61
 1163 430 1163 430 1104 462 c 0,62,63
 1056 488 1056 488 989 488 c 0,64,65
 882 488 882 488 755 437 c 0,66,67
 640 391 640 391 547 320 c 1,68,69
 594 313 594 313 628 312 c 128,-1,70
 662 311 662 311 737 311 c 2,71,-1
 763 311 l 2,56,57
EndSplineSet
Substitution2: "'medi' Medial Forms in Arabic lookup 3 subtable" afii62797
Substitution2: "'fina' Terminal Forms in Arabic lookup 2 subtable" afii62798
Substitution2: "'init' Initial Forms in Arabic lookup 1 subtable" afii62796
EndChar

StartChar: afii62798
Encoding: 65218 65218 215
Width: 1380
GlyphClass: 2
Flags: W
AnchorPoint: "Anchor-3" 675 -525 basechar 0
AnchorPoint: "Anchor-2" 1020 1035 basechar 0
LayerCount: 2
Fore
SplineSet
1438 56 m 2,0,1
 1438 32 1438 32 1424 16 c 128,-1,2
 1410 0 1410 0 1381 0 c 2,3,-1
 397 0 l 2,4,5
 301 0 301 0 253 26 c 0,6,7
 187 62 187 62 125 175 c 0,8,9
 103 211 103 211 88 264.5 c 128,-1,10
 73 318 73 318 73 354 c 1,11,12
 146 330 146 330 229 328 c 0,13,14
 250 326 250 326 367 326 c 1,15,-1
 487 414 l 2,16,17
 499 421 499 421 504.5 450.5 c 128,-1,18
 510 480 510 480 510 506 c 0,19,20
 510 534 510 534 500 624 c 0,21,22
 498 648 498 648 480 794 c 0,23,24
 474 844 474 844 462 949 c 1,25,-1
 425 990 l 1,26,-1
 540 1182 l 1,27,28
 557 1111 557 1111 595 1062 c 0,29,30
 641 1004 641 1004 706 990 c 1,31,-1
 632 828 l 1,32,-1
 607 838 l 1,33,34
 607 820 607 820 611.5 758 c 128,-1,35
 616 696 616 696 616 670 c 0,36,37
 616 608 616 608 608.5 559.5 c 128,-1,38
 601 511 601 511 586 480 c 1,39,-1
 590 476 l 1,40,41
 680 530 680 530 750 565 c 0,42,43
 850 616 850 616 935 643 c 0,44,45
 1037 676 1037 676 1116 676 c 0,46,47
 1246 676 1246 676 1296 608 c 0,48,49
 1328 568 1328 568 1328 498 c 0,50,51
 1328 456 1328 456 1315 410 c 0,52,53
 1307 374 1307 374 1288 326 c 1,54,-1
 1400 326 l 2,55,56
 1417 326 1417 326 1427.5 310 c 128,-1,57
 1438 294 1438 294 1438 270 c 2,58,-1
 1438 56 l 2,0,1
763 311 m 2,59,60
 882 311 882 311 971 323 c 0,61,62
 1082 338 1082 338 1163 373 c 1,63,64
 1163 430 1163 430 1104 462 c 0,65,66
 1056 488 1056 488 989 488 c 0,67,68
 882 488 882 488 755 437 c 0,69,70
 638 391 638 391 547 320 c 1,71,72
 593 313 593 313 627.5 312 c 128,-1,73
 662 311 662 311 736 311 c 2,74,-1
 763 311 l 2,59,60
EndSplineSet
EndChar

StartChar: afii62796
Encoding: 65219 65219 216
Width: 1143
GlyphClass: 2
Flags: W
AnchorPoint: "Anchor-3" 420 -510 basechar 0
AnchorPoint: "Anchor-2" 705 1140 basechar 0
LayerCount: 2
Fore
SplineSet
-59 270 m 2,0,1
 -59 295 -59 295 -48.5 310.5 c 128,-1,2
 -38 326 -38 326 -23 326 c 2,3,-1
 140 326 l 1,4,-1
 262 414 l 2,5,6
 272 421 272 421 279 451.5 c 128,-1,7
 286 482 286 482 286 506 c 0,8,9
 286 547 286 547 266 707 c 0,10,11
 252 828 252 828 238 949 c 1,12,-1
 200 990 l 1,13,-1
 314 1182 l 1,14,15
 334 1111 334 1111 371 1062 c 0,16,17
 415 1004 415 1004 480 990 c 1,18,-1
 407 828 l 1,19,-1
 382 838 l 1,20,21
 382 817 382 817 389 733 c 0,22,23
 392 695 392 695 392 670 c 0,24,25
 392 612 392 612 384.5 562 c 128,-1,26
 377 512 377 512 361 480 c 1,27,-1
 364 476 l 1,28,29
 451 529 451 529 526 565 c 0,30,31
 625 616 625 616 709 643 c 0,32,33
 811 676 811 676 890 676 c 0,34,35
 1019 676 1019 676 1070 608 c 0,36,37
 1102 568 1102 568 1102 498 c 0,38,39
 1102 458 1102 458 1085 397 c 0,40,41
 1064 323 1064 323 1027 247 c 0,42,43
 982 157 982 157 918 73 c 0,44,45
 895 43 895 43 792.5 21.5 c 128,-1,46
 690 0 690 0 570 0 c 2,47,-1
 -5 0 l 2,48,49
 -32 0 -32 0 -45.5 16 c 128,-1,50
 -59 32 -59 32 -59 56 c 2,51,-1
 -59 270 l 2,0,1
538 311 m 2,52,53
 655 311 655 311 744 323 c 0,54,55
 856 338 856 338 937 373 c 1,56,57
 937 430 937 430 880 462 c 0,58,59
 832 488 832 488 766 488 c 0,60,61
 656 488 656 488 529 437 c 0,62,63
 412 390 412 390 322 320 c 1,64,65
 356 316 356 316 396 313.5 c 128,-1,66
 436 311 436 311 511 311 c 2,67,-1
 538 311 l 2,52,53
EndSplineSet
EndChar

StartChar: afii62797
Encoding: 65220 65220 217
Width: 1154
GlyphClass: 2
Flags: W
AnchorPoint: "Anchor-3" 540 -525 basechar 0
AnchorPoint: "Anchor-2" 750 1050 basechar 0
LayerCount: 2
Fore
SplineSet
1212 56 m 2,0,1
 1212 32 1212 32 1198 16 c 128,-1,2
 1184 0 1184 0 1158 0 c 2,3,-1
 174 0 l 1,4,-1
 -4 0 l 2,5,6
 -31 0 -31 0 -44.5 16 c 128,-1,7
 -58 32 -58 32 -58 56 c 2,8,-1
 -58 270 l 2,9,10
 -58 295 -58 295 -48 310.5 c 128,-1,11
 -38 326 -38 326 -22 326 c 2,12,-1
 142 326 l 1,13,-1
 262 414 l 2,14,15
 272 421 272 421 279 451.5 c 128,-1,16
 286 482 286 482 286 506 c 0,17,18
 286 547 286 547 268 707 c 0,19,20
 253 828 253 828 239 949 c 1,21,-1
 202 990 l 1,22,-1
 316 1182 l 1,23,24
 334 1111 334 1111 372 1062 c 0,25,26
 415 1004 415 1004 481 990 c 1,27,-1
 408 828 l 1,28,-1
 382 838 l 1,29,30
 382 817 382 817 389 733 c 0,31,32
 392 695 392 695 392 670 c 0,33,34
 392 612 392 612 384.5 562 c 128,-1,35
 377 512 377 512 362 480 c 1,36,-1
 365 476 l 1,37,38
 452 529 452 529 526 565 c 0,39,40
 626 616 626 616 709 643 c 0,41,42
 811 676 811 676 890 676 c 0,43,44
 1020 676 1020 676 1070 608 c 0,45,46
 1103 568 1103 568 1103 498 c 0,47,48
 1103 454 1103 454 1091.5 410.5 c 128,-1,49
 1080 367 1080 367 1060 326 c 1,50,-1
 1177 326 l 2,51,52
 1192 326 1192 326 1202 310 c 128,-1,53
 1212 294 1212 294 1212 270 c 2,54,-1
 1212 56 l 2,0,1
539 311 m 2,55,56
 656 311 656 311 745 323 c 0,57,58
 857 338 857 338 937 373 c 1,59,60
 937 430 937 430 880 462 c 0,61,62
 832 488 832 488 766 488 c 0,63,64
 658 488 658 488 529 437 c 0,65,66
 413 390 413 390 322 320 c 1,67,68
 356 316 356 316 396 313.5 c 128,-1,69
 436 311 436 311 511 311 c 2,70,-1
 539 311 l 2,55,56
EndSplineSet
EndChar

StartChar: afii57433
Encoding: 1593 1593 222
Width: 1018
GlyphClass: 2
Flags: W
AnchorPoint: "Anchor-3" 465 -1035 basechar 0
AnchorPoint: "Anchor-2" 390 1185 basechar 0
LayerCount: 2
Fore
SplineSet
734 366 m 1,0,1
 632 344 632 344 527 301 c 0,2,3
 395 245 395 245 318 178 c 0,4,5
 223 92 223 92 223 -5 c 0,6,7
 223 -109 223 -109 346.5 -175.5 c 128,-1,8
 470 -242 470 -242 685 -242 c 0,9,10
 786 -242 786 -242 861 -235 c 128,-1,11
 936 -228 936 -228 1015 -212 c 1,12,-1
 1026 -223 l 1,13,14
 832 -458 832 -458 758 -505.5 c 128,-1,15
 684 -553 684 -553 522 -553 c 0,16,17
 323 -553 323 -553 214 -466 c 0,18,19
 89 -365 89 -365 89 -145 c 0,20,21
 89 -29 89 -29 143 85 c 0,22,23
 190 184 190 184 276 283 c 1,24,25
 226 318 226 318 197 341 c 0,26,27
 150 380 150 380 124 418 c 0,28,29
 92 462 92 462 92 506 c 0,30,31
 92 570 92 570 146 671.5 c 128,-1,32
 200 773 200 773 271 845 c 0,33,34
 349 924 349 924 408 924 c 0,35,36
 457 924 457 924 509 900 c 0,37,38
 551 881 551 881 604 842 c 0,39,40
 618 832 618 832 685 776 c 1,41,-1
 677 755 l 1,42,43
 613 768 613 768 544 768 c 0,44,45
 445 768 445 768 371 736 c 0,46,47
 284 697 284 697 240 620 c 1,48,49
 304 563 304 563 379 527.5 c 128,-1,50
 454 492 454 492 541 476 c 1,51,52
 594 506 594 506 637 527 c 0,53,54
 691 553 691 553 736 572 c 0,55,56
 790 595 790 595 836 610 c 1,57,-1
 734 366 l 1,58,-1
 734 366 l 1,0,1
EndSplineSet
Substitution2: "'medi' Medial Forms in Arabic lookup 3 subtable" afii62803
Substitution2: "'fina' Terminal Forms in Arabic lookup 2 subtable" afii62804
Substitution2: "'init' Initial Forms in Arabic lookup 1 subtable" afii62802
EndChar

StartChar: afii62804
Encoding: 65226 65226 223
Width: 983
GlyphClass: 2
Flags: W
AnchorPoint: "Anchor-3" 465 -1095 basechar 0
AnchorPoint: "Anchor-2" 555 960 basechar 0
LayerCount: 2
Fore
SplineSet
1040 56 m 1,0,1
 1040 32 1040 32 1026.5 16 c 128,-1,2
 1013 0 1013 0 986 0 c 2,3,-1
 794 0 l 2,4,5
 715 0 715 0 647 35 c 0,6,7
 586 66 586 66 535 121 c 0,8,9
 499 161 499 161 450 232 c 1,10,11
 402 208 402 208 362 179 c 0,12,13
 308 139 308 139 278 96 c 0,14,15
 240 42 240 42 240 -14 c 0,16,17
 240 -116 240 -116 317 -181 c 0,18,19
 382 -234 382 -234 499 -260 c 0,20,21
 593 -281 593 -281 706 -281 c 0,22,23
 766 -281 766 -281 858 -266 c 0,24,25
 887 -262 887 -262 1020 -238 c 1,26,-1
 1030 -245 l 1,27,28
 965 -337 965 -337 904 -407 c 0,29,30
 853 -463 853 -463 804 -503 c 0,31,32
 768 -533 768 -533 730 -556 c 0,33,34
 700 -574 700 -574 634 -583 c 0,35,36
 582 -590 582 -590 528 -590 c 0,37,38
 341 -590 341 -590 220 -486 c 0,39,40
 89 -374 89 -374 89 -182 c 0,41,42
 89 -47 89 -47 181 112 c 0,43,44
 260 247 260 247 378 354 c 1,45,46
 354 401 354 401 330 427 c 0,47,48
 296 466 296 466 258 466 c 0,49,50
 246 466 246 466 233 463.5 c 128,-1,51
 220 461 220 461 210 455 c 1,52,53
 238 553 238 553 287 619 c 0,54,55
 319 662 319 662 360 692 c 1,56,57
 407 710 407 710 487 710 c 0,58,59
 602 710 602 710 677 664 c 0,60,61
 766 608 766 608 766 500 c 0,62,63
 766 458 766 458 746 422 c 128,-1,64
 726 386 726 386 691 361 c 1,65,66
 713 338 713 338 764.5 332 c 128,-1,67
 816 326 816 326 1004 326 c 0,68,69
 1020 326 1020 326 1030 310 c 128,-1,70
 1040 294 1040 294 1040 270 c 2,71,-1
 1040 56 l 1,72,-1
 1040 56 l 1,0,1
EndSplineSet
EndChar

StartChar: afii62802
Encoding: 65227 65227 224
Width: 914
GlyphClass: 2
Flags: W
AnchorPoint: "Anchor-3" 375 -540 basechar 0
AnchorPoint: "Anchor-2" 420 1095 basechar 0
LayerCount: 2
Fore
SplineSet
-58 270 m 1,0,1
 -58 295 -58 295 -48 310.5 c 128,-1,2
 -38 326 -38 326 -22 326 c 2,3,-1
 198 326 l 1,4,5
 155 380 155 380 144.5 409.5 c 128,-1,6
 134 439 134 439 134 476 c 0,7,8
 134 527 134 527 187 604 c 0,9,10
 244 686 244 686 328 743 c 0,11,12
 425 809 425 809 526 809 c 0,13,14
 610 809 610 809 680 748 c 0,15,16
 745 694 745 694 792 596 c 1,17,-1
 781 589 l 1,18,19
 745 617 745 617 703 628.5 c 128,-1,20
 661 640 661 640 613 640 c 0,21,22
 538 640 538 640 443 605 c 0,23,24
 355 571 355 571 287 522 c 1,25,26
 326 467 326 467 426 400 c 0,27,28
 518 337 518 337 552 337 c 0,29,30
 629 337 629 337 735.5 354 c 128,-1,31
 842 371 842 371 887 389 c 1,32,-1
 667 58 l 2,33,34
 660 47 660 47 540.5 23.5 c 128,-1,35
 421 0 421 0 362 0 c 2,36,-1
 -4 0 l 2,37,38
 -31 0 -31 0 -44.5 16 c 128,-1,39
 -58 32 -58 32 -58 56 c 2,40,-1
 -58 270 l 1,41,-1
 -58 270 l 1,0,1
EndSplineSet
EndChar

StartChar: afii62803
Encoding: 65228 65228 225
Width: 779
GlyphClass: 2
Flags: W
AnchorPoint: "Anchor-3" 330 -480 basechar 0
AnchorPoint: "Anchor-2" 405 975 basechar 0
LayerCount: 2
Fore
SplineSet
836 56 m 1,0,1
 836 34 836 34 822 17 c 128,-1,2
 808 0 808 0 781 0 c 0,3,4
 659 0 659 0 596 14 c 0,5,6
 498 37 498 37 436 109 c 1,7,8
 355 40 355 40 279.5 20 c 128,-1,9
 204 0 204 0 -4 0 c 0,10,11
 -31 0 -31 0 -44.5 16 c 128,-1,12
 -58 32 -58 32 -58 56 c 2,13,-1
 -58 270 l 2,14,15
 -58 295 -58 295 -47.5 310.5 c 128,-1,16
 -37 326 -37 326 -22 326 c 2,17,-1
 208 326 l 2,18,19
 232 326 232 326 261 335 c 128,-1,20
 290 344 290 344 302 354 c 1,21,22
 278 403 278 403 256 427 c 0,23,24
 221 466 221 466 182 466 c 0,25,26
 155 466 155 466 134 455 c 1,27,28
 162 553 162 553 211 619 c 0,29,30
 244 662 244 662 286 692 c 1,31,32
 332 710 332 710 412 710 c 0,33,34
 528 710 528 710 602 664 c 0,35,36
 691 608 691 608 691 500 c 0,37,38
 691 458 691 458 671.5 423 c 128,-1,39
 652 388 652 388 616 361 c 1,40,41
 634 341 634 341 658 335 c 0,42,43
 695 326 695 326 800 326 c 0,44,45
 816 326 816 326 826 310 c 128,-1,46
 836 294 836 294 836 270 c 2,47,-1
 836 56 l 1,48,-1
 836 56 l 1,0,1
EndSplineSet
EndChar

StartChar: afii57443
Encoding: 1603 1603 238
Width: 1063
GlyphClass: 2
Flags: W
AnchorPoint: "Anchor-3" 510 -480 basechar 0
AnchorPoint: "Anchor-2" 465 1170 basechar 0
LayerCount: 2
Fore
SplineSet
994 316 m 1,0,1
 994 252 994 252 965 183 c 128,-1,2
 936 114 936 114 893 58 c 0,3,4
 872 30 872 30 780 13 c 0,5,6
 710 0 710 0 606.5 -5.5 c 128,-1,7
 503 -11 503 -11 414 -11 c 0,8,9
 233 -11 233 -11 181.5 -0.5 c 128,-1,10
 130 10 130 10 115 49 c 0,11,12
 95 107 95 107 85 168 c 0,13,14
 73 244 73 244 73 354 c 1,15,-1
 86 361 l 1,16,17
 116 329 116 329 180 315 c 128,-1,18
 244 301 244 301 380 301 c 0,19,20
 502 301 502 301 607 309 c 128,-1,21
 712 317 712 317 781.5 329 c 128,-1,22
 851 341 851 341 875 352 c 1,23,-1
 815 961 l 1,24,-1
 782 991 l 1,25,-1
 890 1170 l 1,26,27
 904 1112 904 1112 954 1063 c 0,28,29
 995 1024 995 1024 1060 990 c 1,30,-1
 986 835 l 1,31,-1
 953 850 l 1,32,-1
 994 316 l 1,0,1
547 792 m 1,33,34
 533 796 533 796 522.5 798 c 128,-1,35
 512 800 512 800 504 800 c 0,36,37
 474 800 474 800 452.5 784.5 c 128,-1,38
 431 769 431 769 431 749 c 0,39,40
 431 733 431 733 457 724 c 0,41,42
 468 720 468 720 517 710 c 0,43,44
 559 703 559 703 576 696 c 0,45,46
 604 685 604 685 604 665 c 0,47,48
 604 635 604 635 558 566 c 0,49,50
 504 485 504 485 446 485 c 0,51,52
 394 485 394 485 356 496 c 0,53,54
 341 500 341 500 296 522 c 1,55,-1
 298 528 l 1,56,-1
 307 528 l 2,57,58
 352 528 352 528 426 548 c 0,59,60
 511 572 511 572 511 596 c 0,61,62
 511 605 511 605 491.5 612 c 128,-1,63
 472 619 472 619 433.5 624 c 128,-1,64
 395 629 395 629 373.5 647 c 128,-1,65
 352 665 352 665 352 684 c 0,66,67
 352 727 352 727 402 808 c 0,68,69
 460 899 460 899 517 899 c 0,70,71
 548 899 548 899 583 886 c 1,72,-1
 547 792 l 1,33,34
EndSplineSet
Substitution2: "'medi' Medial Forms in Arabic lookup 3 subtable" afii52306
Substitution2: "'fina' Terminal Forms in Arabic lookup 2 subtable" afii62816
Substitution2: "'init' Initial Forms in Arabic lookup 1 subtable" afii52305
EndChar

StartChar: afii62816
Encoding: 65242 65242 239
Width: 1154
GlyphClass: 2
Flags: W
AnchorPoint: "Anchor-3" 525 -495 basechar 0
AnchorPoint: "Anchor-2" 510 1185 basechar 0
LayerCount: 2
Fore
SplineSet
1212 56 m 2,0,1
 1212 32 1212 32 1198 16 c 128,-1,2
 1184 0 1184 0 1158 0 c 0,3,4
 1100 0 1100 0 1063 26 c 0,5,6
 1022 58 1022 58 986 156 c 1,7,-1
 974 152 l 1,8,-1
 925 38 l 1,9,10
 790 7 790 7 670 -8.5 c 128,-1,11
 550 -24 550 -24 414 -24 c 0,12,13
 266 -24 266 -24 180 42 c 0,14,15
 114 94 114 94 88 180 c 0,16,17
 73 233 73 233 73 305 c 0,18,19
 73 384 73 384 100 476 c 0,20,21
 120 551 120 551 154 617 c 0,22,23
 184 674 184 674 197 674 c 0,24,25
 208 674 208 674 208 667 c 0,26,27
 197 632 197 632 187 599 c 0,28,29
 178 560 178 560 178 515 c 0,30,31
 178 427 178 427 232 376 c 0,32,33
 275 334 275 334 353 317 c 0,34,35
 408 305 408 305 491 305 c 0,36,37
 568 305 568 305 649.5 308.5 c 128,-1,38
 731 312 731 312 797 320 c 0,39,40
 882 332 882 332 944 352 c 1,41,-1
 875 1014 l 1,42,-1
 994 1198 l 1,43,-1
 1054 413 l 2,44,45
 1054 376 1054 376 1080 353 c 0,46,47
 1112 326 1112 326 1177 326 c 0,48,49
 1192 326 1192 326 1202 310 c 128,-1,50
 1212 294 1212 294 1212 270 c 2,51,-1
 1212 56 l 2,0,1
379 528 m 2,52,53
 425 528 425 528 498 548 c 0,54,55
 581 572 581 572 581 596 c 0,56,57
 581 605 581 605 562.5 612 c 128,-1,58
 544 619 544 619 506 624 c 128,-1,59
 468 629 468 629 446.5 647 c 128,-1,60
 425 665 425 665 425 684 c 0,61,62
 425 727 425 727 475 808 c 0,63,64
 533 899 533 899 590 899 c 0,65,66
 625 899 625 899 656 886 c 1,67,-1
 619 792 l 1,68,69
 604 797 604 797 595 798.5 c 128,-1,70
 586 800 586 800 577 800 c 0,71,72
 548 800 548 800 527 784.5 c 128,-1,73
 506 769 506 769 506 749 c 0,74,75
 506 733 506 733 532 724 c 0,76,77
 545 720 545 720 592 710 c 0,78,79
 632 703 632 703 650 696 c 0,80,81
 676 685 676 685 676 665 c 0,82,83
 676 634 676 634 631 566 c 0,84,85
 576 485 576 485 517 485 c 0,86,87
 467 485 467 485 431 496 c 0,88,89
 416 500 416 500 370 522 c 1,90,-1
 372 528 l 1,91,-1
 379 528 l 2,52,53
EndSplineSet
EndChar

StartChar: afii57444
Encoding: 1604 1604 242
Width: 928
GlyphClass: 2
Flags: W
AnchorPoint: "Anchor-3" 435 -660 basechar 0
AnchorPoint: "Anchor-2" 525 1155 basechar 0
LayerCount: 2
Fore
SplineSet
874 251 m 1,0,1
 874 229 874 229 851 150 c 0,2,3
 826 59 826 59 794 -14 c 0,4,5
 756 -109 756 -109 721 -144 c 0,6,7
 712 -154 712 -154 653 -176 c 0,8,9
 586 -204 586 -204 518 -222 c 0,10,11
 433 -245 433 -245 373 -245 c 0,12,13
 227 -245 227 -245 146.5 -167 c 128,-1,14
 66 -89 66 -89 66 52 c 0,15,16
 66 131 66 131 101 238 c 0,17,18
 130 323 130 323 169 396 c 0,19,20
 206 463 206 463 218 463 c 0,21,22
 235 463 235 463 235 452 c 0,23,24
 220 406 220 406 204 358 c 0,25,26
 191 306 191 306 191 250 c 0,27,28
 191 175 191 175 244 126 c 0,29,30
 307 66 307 66 431 66 c 0,31,32
 522 66 522 66 611.5 92.5 c 128,-1,33
 701 119 701 119 769 166 c 1,34,-1
 684 953 l 1,35,-1
 652 991 l 1,36,-1
 762 1182 l 1,37,38
 781 1111 781 1111 820 1066.5 c 128,-1,39
 859 1022 859 1022 929 991 c 1,40,-1
 853 830 l 1,41,-1
 823 845 l 1,42,-1
 874 251 l 1,43,-1
 874 251 l 1,0,1
EndSplineSet
Substitution2: "'medi' Medial Forms in Arabic lookup 3 subtable" afii62818
Substitution2: "'fina' Terminal Forms in Arabic lookup 2 subtable" afii62819
Substitution2: "'init' Initial Forms in Arabic lookup 1 subtable" afii62817
EndChar

StartChar: afii62817
Encoding: 65247 65247 243
Width: 382
GlyphClass: 2
Flags: W
AnchorPoint: "Anchor-3" 120 -495 basechar 0
AnchorPoint: "Anchor-2" 165 1305 basechar 0
LayerCount: 2
Fore
SplineSet
-59 270 m 1,0,1
 -59 295 -59 295 -48.5 310.5 c 128,-1,2
 -38 326 -38 326 -23 326 c 2,3,-1
 66 326 l 2,4,5
 92 326 92 326 121 334 c 128,-1,6
 150 342 150 342 167 352 c 1,7,-1
 101 953 l 1,8,-1
 67 991 l 1,9,-1
 175 1182 l 1,10,11
 194 1111 194 1111 234.5 1066.5 c 128,-1,12
 275 1022 275 1022 344 991 c 1,13,-1
 270 830 l 1,14,-1
 240 845 l 1,15,-1
 283 299 l 2,16,17
 283 262 283 262 239.5 163.5 c 128,-1,18
 196 65 196 65 172 41 c 0,19,20
 158 29 158 29 100 14.5 c 128,-1,21
 42 0 42 0 -5 0 c 0,22,23
 -32 0 -32 0 -45.5 16 c 128,-1,24
 -59 32 -59 32 -59 56 c 2,25,-1
 -59 270 l 1,26,-1
 -59 270 l 1,0,1
EndSplineSet
EndChar

StartChar: afii62818
Encoding: 65248 65248 244
Width: 373
GlyphClass: 2
Flags: W
AnchorPoint: "Anchor-3" 180 -480 basechar 0
AnchorPoint: "Anchor-2" 135 1260 basechar 0
LayerCount: 2
Fore
SplineSet
431 56 m 1,0,1
 431 32 431 32 417 16 c 128,-1,2
 403 0 403 0 376 0 c 0,3,4
 304 0 304 0 260 47 c 0,5,6
 229 82 229 82 208 152 c 1,7,-1
 193 152 l 1,8,-1
 139 34 l 1,9,10
 107 17 107 17 72 8.5 c 128,-1,11
 37 0 37 0 -4 0 c 0,12,13
 -31 0 -31 0 -44.5 16 c 128,-1,14
 -58 32 -58 32 -58 56 c 2,15,-1
 -58 270 l 2,16,17
 -58 295 -58 295 -48 310.5 c 128,-1,18
 -38 326 -38 326 -22 326 c 0,19,20
 56 326 56 326 95 331.5 c 128,-1,21
 134 337 134 337 166 352 c 1,22,-1
 96 1010 l 1,23,-1
 212 1198 l 1,24,-1
 272 416 l 2,25,26
 277 366 277 366 306 344 c 0,27,28
 334 326 334 326 392 326 c 0,29,30
 410 326 410 326 420.5 310 c 128,-1,31
 431 294 431 294 431 270 c 2,32,-1
 431 56 l 1,33,-1
 431 56 l 1,0,1
EndSplineSet
EndChar

StartChar: afii57445
Encoding: 1605 1605 245
Width: 744
GlyphClass: 2
Flags: W
AnchorPoint: "Anchor-3" 510 -570 basechar 0
AnchorPoint: "Anchor-2" 360 915 basechar 0
LayerCount: 2
Fore
SplineSet
146 -570 m 1,0,1
 149 -556 149 -556 149.5 -539 c 128,-1,2
 150 -522 150 -522 150 -505 c 2,3,-1
 150 -496 l 1,4,-1
 150 -485 l 1,5,-1
 150 -472 l 1,6,-1
 150 -457 l 1,7,-1
 150 -420 l 2,8,9
 150 -306 150 -306 141.5 -223 c 128,-1,10
 133 -140 133 -140 118 -62 c 0,11,12
 106 -5 106 -5 94.5 53.5 c 128,-1,13
 83 112 83 112 83 166 c 0,14,15
 83 292 83 292 158 353 c 0,16,17
 214 397 214 397 287 397 c 1,18,-1
 308 395 l 1,19,-1
 408 382 l 1,20,21
 379 436 379 436 346 463 c 0,22,23
 304 498 304 498 245 498 c 0,24,25
 162 498 162 498 114 420 c 1,26,-1
 101 420 l 1,27,28
 116 534 116 534 186 612 c 0,29,30
 251 684 251 684 325 684 c 0,31,32
 397 684 397 684 474 640 c 0,33,34
 535 604 535 604 604 536 c 0,35,36
 641 499 641 499 710 420 c 1,37,38
 692 318 692 318 674 254 c 0,39,40
 648 163 648 163 610 90 c 1,41,42
 532 115 532 115 455 132 c 0,43,44
 362 152 362 152 302 152 c 0,45,46
 246 152 246 152 223 128 c 0,47,48
 208 112 208 112 208 71 c 1,49,50
 218 -24 218 -24 229 -114 c 128,-1,51
 240 -204 240 -204 240 -283 c 0,52,53
 240 -361 240 -361 218 -432 c 0,54,55
 202 -485 202 -485 158 -575 c 1,56,-1
 146 -570 l 1,57,-1
 146 -570 l 1,0,1
EndSplineSet
Substitution2: "'medi' Medial Forms in Arabic lookup 3 subtable" afii62821
Substitution2: "'fina' Terminal Forms in Arabic lookup 2 subtable" afii62822
Substitution2: "'init' Initial Forms in Arabic lookup 1 subtable" afii62820
EndChar

StartChar: afii62822
Encoding: 65250 65250 246
Width: 620
GlyphClass: 2
Flags: W
AnchorPoint: "Anchor-3" 480 -675 basechar 0
AnchorPoint: "Anchor-2" 360 780 basechar 0
LayerCount: 2
Fore
SplineSet
678 56 m 1,0,1
 678 32 678 32 664 16 c 128,-1,2
 650 0 650 0 623 0 c 0,3,4
 598 0 598 0 567 9.5 c 128,-1,5
 536 19 536 19 511 38 c 1,6,7
 497 -12 497 -12 486 -38 c 0,8,9
 469 -78 469 -78 446 -107 c 1,10,11
 386 -98 386 -98 350 -37 c 0,12,13
 323 10 323 10 316 82 c 1,14,15
 296 89 296 89 277 93 c 128,-1,16
 258 97 258 97 246 97 c 0,17,18
 232 97 232 97 227.5 92.5 c 128,-1,19
 223 88 223 88 223 76 c 0,20,21
 223 68 223 68 223 64 c 0,22,23
 223 49 223 49 223 36 c 0,24,25
 224 -31 224 -31 226 -122.5 c 128,-1,26
 228 -214 228 -214 228 -299 c 0,27,28
 228 -412 228 -412 220 -455 c 0,29,30
 206 -526 206 -526 157 -602 c 1,31,-1
 134 -601 l 1,32,33
 134 -594 134 -594 136 -553 c 128,-1,34
 138 -512 138 -512 138 -490 c 0,35,36
 138 -341 138 -341 116 -211 c 0,37,38
 107 -157 107 -157 76 -31 c 0,39,40
 54 58 54 58 54 107 c 0,41,42
 54 242 54 242 125.5 303.5 c 128,-1,43
 197 365 197 365 353 365 c 1,44,-1
 353 451 l 1,45,-1
 380 451 l 1,46,47
 427 371 427 371 474.5 348.5 c 128,-1,48
 522 326 522 326 642 326 c 0,49,50
 658 326 658 326 668 310 c 128,-1,51
 678 294 678 294 678 270 c 2,52,-1
 678 56 l 1,53,-1
 678 56 l 1,0,1
EndSplineSet
EndChar

StartChar: afii62820
Encoding: 65251 65251 247
Width: 869
GlyphClass: 2
Flags: W
AnchorPoint: "Anchor-3" 180 -510 basechar 0
AnchorPoint: "Anchor-2" 285 930 basechar 0
LayerCount: 2
Fore
SplineSet
-58 270 m 2,0,1
 -58 295 -58 295 -47.5 310.5 c 128,-1,2
 -37 326 -37 326 -22 326 c 2,3,-1
 73 326 l 2,4,5
 124 326 124 326 200 418 c 0,6,7
 269 500 269 500 336 584 c 1,8,9
 421 674 421 674 496 674 c 0,10,11
 574 674 574 674 654 580 c 0,12,13
 713 508 713 508 763 398 c 0,14,15
 804 308 804 308 804 286 c 0,16,17
 804 257 804 257 761 164 c 0,18,19
 715 65 715 65 671 12 c 1,20,21
 569 12 569 12 469.5 34 c 128,-1,22
 370 56 370 56 266 97 c 1,23,24
 248 132 248 132 235.5 167 c 128,-1,25
 223 202 223 202 212 238 c 1,26,-1
 205 234 l 1,27,28
 130 74 130 74 96 37 c 128,-1,29
 62 0 62 0 -4 0 c 0,30,31
 -31 0 -31 0 -44.5 16 c 128,-1,32
 -58 32 -58 32 -58 56 c 2,33,-1
 -58 270 l 2,0,1
312 403 m 1,34,35
 380 371 380 371 433 356 c 0,36,37
 499 340 499 340 564 340 c 1,38,39
 554 396 554 396 535 433 c 0,40,41
 506 488 506 488 462 488 c 0,42,43
 421 488 421 488 380 460 c 0,44,45
 346 432 346 432 312 403 c 1,34,35
EndSplineSet
EndChar

StartChar: afii57446
Encoding: 1606 1606 248
Width: 1024
GlyphClass: 2
Flags: W
AnchorPoint: "Anchor-3" 525 -765 basechar 0
AnchorPoint: "Anchor-2" 465 975 basechar 0
LayerCount: 2
Fore
SplineSet
830 695 m 1,0,1
 901 605 901 605 931 500.5 c 128,-1,2
 961 396 961 396 961 250 c 0,3,4
 961 132 961 132 940 22 c 0,5,6
 924 -62 924 -62 894 -144 c 0,7,8
 872 -205 872 -205 853 -234 c 0,9,10
 850 -244 850 -244 784 -271 c 0,11,12
 709 -301 709 -301 634 -323 c 0,13,14
 539 -348 539 -348 472 -348 c 0,15,16
 298 -348 298 -348 190 -270 c 0,17,18
 66 -182 66 -182 66 -14 c 0,19,20
 66 64 66 64 102 173 c 0,21,22
 131 259 131 259 170 335 c 0,23,24
 208 403 208 403 220 403 c 0,25,26
 234 403 234 403 234 389 c 0,27,28
 234 379 234 379 227 368 c 0,29,30
 204 313 204 313 197.5 277 c 128,-1,31
 191 241 191 241 191 175 c 0,32,33
 191 88 191 88 265.5 34.5 c 128,-1,34
 340 -19 340 -19 472 -19 c 0,35,36
 594 -19 594 -19 690.5 2.5 c 128,-1,37
 787 24 787 24 847 71 c 1,38,39
 836 202 836 202 805.5 293 c 128,-1,40
 775 384 775 384 714 474 c 1,41,-1
 830 695 l 1,0,1
609 640 m 1,42,-1
 495 509 l 1,43,-1
 342 642 l 1,44,-1
 455 773 l 1,45,-1
 609 640 l 1,42,-1
EndSplineSet
Substitution2: "'medi' Medial Forms in Arabic lookup 3 subtable" afii62824
Substitution2: "'fina' Terminal Forms in Arabic lookup 2 subtable" afii62825
Substitution2: "'init' Initial Forms in Arabic lookup 1 subtable" afii62823
EndChar

StartChar: afii62825
Encoding: 65254 65254 249
Width: 1076
GlyphClass: 2
Flags: W
AnchorPoint: "Anchor-3" 510 -870 basechar 0
AnchorPoint: "Anchor-2" 465 885 basechar 0
LayerCount: 2
Fore
SplineSet
1135 56 m 2,0,1
 1135 32 1135 32 1121.5 16 c 128,-1,2
 1108 0 1108 0 1081 0 c 0,3,4
 1051 0 1051 0 1022.5 11 c 128,-1,5
 994 22 994 22 965 41 c 1,6,7
 965 -24 965 -24 944 -104 c 0,8,9
 930 -164 930 -164 899 -240 c 0,10,11
 875 -301 875 -301 853 -343 c 0,12,13
 850 -350 850 -350 784 -378 c 0,14,15
 704 -410 704 -410 634 -430 c 0,16,17
 538 -455 538 -455 472 -455 c 0,18,19
 298 -455 298 -455 190 -377 c 0,20,21
 66 -288 66 -288 66 -122 c 0,22,23
 66 -43 66 -43 102 65 c 0,24,25
 131 152 131 152 170 227 c 0,26,27
 206 296 206 296 218 296 c 0,28,29
 233 296 233 296 233 281 c 0,30,31
 233 272 233 272 227 262 c 0,32,33
 204 206 204 206 197.5 169.5 c 128,-1,34
 191 133 191 133 191 66 c 0,35,36
 191 -24 191 -24 264 -83 c 0,37,38
 341 -144 341 -144 472 -144 c 0,39,40
 581 -144 581 -144 684 -117 c 128,-1,41
 787 -90 787 -90 875 -46 c 1,42,43
 875 62 875 62 840 160 c 0,44,45
 808 247 808 247 740 346 c 1,46,-1
 874 560 l 1,47,48
 908 466 908 466 929 427 c 0,49,50
 958 373 958 373 995 349.5 c 128,-1,51
 1032 326 1032 326 1098 326 c 0,52,53
 1114 326 1114 326 1124.5 310 c 128,-1,54
 1135 294 1135 294 1135 270 c 2,55,-1
 1135 56 l 2,0,1
620 519 m 1,56,-1
 506 388 l 1,57,-1
 353 521 l 1,58,-1
 466 652 l 1,59,-1
 620 519 l 1,56,-1
EndSplineSet
EndChar

StartChar: afii62828
Encoding: 65258 65258 253
Width: 779
GlyphClass: 2
Flags: W
AnchorPoint: "Anchor-3" 375 -465 basechar 0
AnchorPoint: "Anchor-2" 405 1020 basechar 0
LayerCount: 2
Fore
SplineSet
836 56 m 2,0,1
 836 34 836 34 822 17 c 128,-1,2
 808 0 808 0 781 0 c 2,3,-1
 727 0 l 2,4,5
 647 0 647 0 602.5 62.5 c 128,-1,6
 558 125 558 125 539 262 c 1,7,-1
 533 262 l 1,8,9
 512 203 512 203 455 118 c 0,10,11
 404 41 404 41 392 41 c 0,12,13
 365 41 365 41 302 54 c 0,14,15
 218 71 218 71 156 102 c 0,16,17
 73 143 73 143 44 199 c 1,18,19
 76 282 76 282 118 359 c 0,20,21
 156 430 156 430 176 446 c 0,22,23
 215 484 215 484 298 522 c 0,24,25
 366 553 366 553 487 594 c 1,26,-1
 469 701 l 1,27,-1
 595 893 l 1,28,-1
 631 491 l 2,29,30
 638 413 638 413 661 373 c 0,31,32
 690 326 690 326 744 326 c 2,33,-1
 800 326 l 2,34,35
 816 326 816 326 826 310 c 128,-1,36
 836 294 836 294 836 270 c 2,37,-1
 836 56 l 2,0,1
502 493 m 1,38,39
 448 467 448 467 409 438 c 0,40,41
 365 406 365 406 332 365 c 1,42,43
 378 338 378 338 428.5 325.5 c 128,-1,44
 479 313 479 313 533 313 c 1,45,-1
 502 493 l 1,38,39
EndSplineSet
EndChar

StartChar: afii57448
Encoding: 1608 1608 254
Width: 811
GlyphClass: 2
Flags: W
AnchorPoint: "Anchor-3" 315 -855 basechar 0
AnchorPoint: "Anchor-2" 495 990 basechar 0
LayerCount: 2
Fore
SplineSet
658 199 m 1,0,1
 606 149 606 149 552 119 c 0,2,3
 486 82 486 82 427 82 c 256,4,5
 368 82 368 82 317 137 c 0,6,7
 256 202 256 202 256 305 c 0,8,9
 256 446 256 446 348 589 c 0,10,11
 438 730 438 730 521 730 c 0,12,13
 590 730 590 730 648 634 c 0,14,15
 696 552 696 552 725 421 c 0,16,17
 751 306 751 306 751 212 c 0,18,19
 751 83 751 83 703 -60 c 128,-1,20
 655 -203 655 -203 569 -306 c 0,21,22
 472 -421 472 -421 370 -421 c 0,23,24
 277 -421 277 -421 170 -335 c 0,25,26
 77 -259 77 -259 18 -157 c 1,27,28
 73 -170 73 -170 125.5 -176 c 128,-1,29
 178 -182 178 -182 241 -182 c 0,30,31
 361 -182 361 -182 450 -122 c 0,32,33
 524 -73 524 -73 575 -9.5 c 128,-1,34
 626 54 626 54 672 191 c 1,35,-1
 658 199 l 1,0,1
380 401 m 1,36,37
 404 383 404 383 439.5 374.5 c 128,-1,38
 475 366 475 366 511 366 c 0,39,40
 524 366 524 366 535.5 368 c 128,-1,41
 547 370 547 370 575 376 c 1,42,43
 563 415 563 415 530 447.5 c 128,-1,44
 497 480 497 480 463 480 c 0,45,46
 432 480 432 480 410 457 c 0,47,48
 395 440 395 440 380 401 c 1,36,37
EndSplineSet
Substitution2: "'fina' Terminal Forms in Arabic lookup 2 subtable" afii62829
PairPos2: "'kern' Horizontal Kerning in Arabic lookup 0 subtable" afii57410 dx=0 dy=0 dh=0 dv=0 dx=0 dy=0 dh=-200 dv=0
PairPos2: "'kern' Horizontal Kerning in Arabic lookup 0 subtable" afii57434 dx=0 dy=0 dh=0 dv=0 dx=0 dy=0 dh=70 dv=0
PairPos2: "'kern' Horizontal Kerning in Arabic lookup 0 subtable" afii57433 dx=0 dy=0 dh=0 dv=0 dx=0 dy=0 dh=70 dv=0
PairPos2: "'kern' Horizontal Kerning in Arabic lookup 0 subtable" afii57422 dx=0 dy=0 dh=0 dv=0 dx=0 dy=0 dh=70 dv=0
PairPos2: "'kern' Horizontal Kerning in Arabic lookup 0 subtable" afii57421 dx=0 dy=0 dh=0 dv=0 dx=0 dy=0 dh=70 dv=0
PairPos2: "'kern' Horizontal Kerning in Arabic lookup 0 subtable" afii57420 dx=0 dy=0 dh=0 dv=0 dx=0 dy=0 dh=70 dv=0
PairPos2: "'kern' Horizontal Kerning in Arabic lookup 0 subtable" afii57413 dx=0 dy=0 dh=0 dv=0 dx=0 dy=0 dh=130 dv=0
PairPos2: "'kern' Horizontal Kerning in Arabic lookup 0 subtable" afii62965 dx=0 dy=0 dh=0 dv=0 dx=0 dy=0 dh=-200 dv=0
PairPos2: "'kern' Horizontal Kerning in Arabic lookup 0 subtable" afii57509 dx=0 dy=0 dh=0 dv=0 dx=0 dy=0 dh=-200 dv=0
PairPos2: "'kern' Horizontal Kerning in Arabic lookup 0 subtable" afii52305 dx=0 dy=0 dh=0 dv=0 dx=0 dy=0 dh=-200 dv=0
PairPos2: "'kern' Horizontal Kerning in Arabic lookup 0 subtable" afii57567 dx=0 dy=0 dh=0 dv=0 dx=0 dy=0 dh=-200 dv=0
PairPos2: "'kern' Horizontal Kerning in Arabic lookup 0 subtable" afii57507 dx=0 dy=0 dh=0 dv=0 dx=0 dy=0 dh=70 dv=0
EndChar

StartChar: afii62829
Encoding: 65262 65262 255
Width: 834
GlyphClass: 2
Flags: W
AnchorPoint: "Anchor-3" 345 -900 basechar 0
AnchorPoint: "Anchor-2" 525 945 basechar 0
LayerCount: 2
Fore
SplineSet
893 56 m 2,0,1
 893 32 893 32 879.5 16 c 128,-1,2
 866 0 866 0 839 0 c 2,3,-1
 722 0 l 1,4,5
 704 -104 704 -104 654 -211 c 0,6,7
 595 -336 595 -336 517 -408 c 0,8,9
 424 -494 424 -494 316 -494 c 0,10,11
 260 -494 260 -494 194 -450 c 0,12,13
 140 -414 140 -414 82 -350 c 0,14,15
 36 -301 36 -301 0 -247 c 1,16,17
 50 -262 50 -262 88.5 -269 c 128,-1,18
 127 -276 127 -276 152 -276 c 0,19,20
 322 -276 322 -276 450 -194 c 0,21,22
 564 -121 564 -121 622 0 c 1,23,-1
 472 0 l 2,24,25
 341 0 341 0 288 61 c 0,26,27
 248 107 248 107 248 206 c 0,28,29
 248 378 248 378 344 535 c 0,30,31
 434 684 434 684 521 684 c 0,32,33
 582 684 582 684 631 614 c 0,34,35
 671 558 671 558 700 463 c 0,36,37
 722 391 722 391 730 326 c 1,38,-1
 856 326 l 2,39,40
 872 326 872 326 882.5 310 c 128,-1,41
 893 294 893 294 893 270 c 2,42,-1
 893 56 l 2,0,1
469 436 m 256,43,44
 442 436 442 436 415 409 c 0,45,46
 394 386 394 386 373 347 c 1,47,48
 408 331 408 331 439 321 c 128,-1,49
 470 311 470 311 496 311 c 0,50,51
 520 311 520 311 539.5 313.5 c 128,-1,52
 559 316 559 316 575 320 c 1,53,54
 568 350 568 350 532 393 c 128,-1,55
 496 436 496 436 469 436 c 256,43,44
EndSplineSet
PairPos2: "'kern' Horizontal Kerning in Arabic lookup 0 subtable" afii62831 dx=0 dy=0 dh=0 dv=0 dx=0 dy=0 dh=60 dv=0
PairPos2: "'kern' Horizontal Kerning in Arabic lookup 0 subtable" afii57448 dx=0 dy=0 dh=0 dv=0 dx=0 dy=0 dh=-50 dv=0
PairPos2: "'kern' Horizontal Kerning in Arabic lookup 0 subtable" afii57410 dx=0 dy=0 dh=0 dv=0 dx=0 dy=0 dh=-200 dv=0
PairPos2: "'kern' Horizontal Kerning in Arabic lookup 0 subtable" afii57434 dx=0 dy=0 dh=0 dv=0 dx=0 dy=0 dh=100 dv=0
PairPos2: "'kern' Horizontal Kerning in Arabic lookup 0 subtable" afii57433 dx=0 dy=0 dh=0 dv=0 dx=0 dy=0 dh=100 dv=0
PairPos2: "'kern' Horizontal Kerning in Arabic lookup 0 subtable" afii57426 dx=0 dy=0 dh=0 dv=0 dx=0 dy=0 dh=-50 dv=0
PairPos2: "'kern' Horizontal Kerning in Arabic lookup 0 subtable" afii57425 dx=0 dy=0 dh=0 dv=0 dx=0 dy=0 dh=-50 dv=0
PairPos2: "'kern' Horizontal Kerning in Arabic lookup 0 subtable" afii57422 dx=0 dy=0 dh=0 dv=0 dx=0 dy=0 dh=130 dv=0
PairPos2: "'kern' Horizontal Kerning in Arabic lookup 0 subtable" afii57421 dx=0 dy=0 dh=0 dv=0 dx=0 dy=0 dh=130 dv=0
PairPos2: "'kern' Horizontal Kerning in Arabic lookup 0 subtable" afii57420 dx=0 dy=0 dh=0 dv=0 dx=0 dy=0 dh=130 dv=0
PairPos2: "'kern' Horizontal Kerning in Arabic lookup 0 subtable" afii62761 dx=0 dy=0 dh=0 dv=0 dx=0 dy=0 dh=60 dv=0
PairPos2: "'kern' Horizontal Kerning in Arabic lookup 0 subtable" afii57413 dx=0 dy=0 dh=0 dv=0 dx=0 dy=0 dh=120 dv=0
PairPos2: "'kern' Horizontal Kerning in Arabic lookup 0 subtable" afii62965 dx=0 dy=0 dh=0 dv=0 dx=0 dy=0 dh=-200 dv=0
PairPos2: "'kern' Horizontal Kerning in Arabic lookup 0 subtable" afii57509 dx=0 dy=0 dh=0 dv=0 dx=0 dy=0 dh=-200 dv=0
PairPos2: "'kern' Horizontal Kerning in Arabic lookup 0 subtable" afii52305 dx=0 dy=0 dh=0 dv=0 dx=0 dy=0 dh=-200 dv=0
PairPos2: "'kern' Horizontal Kerning in Arabic lookup 0 subtable" afii57567 dx=0 dy=0 dh=0 dv=0 dx=0 dy=0 dh=-200 dv=0
PairPos2: "'kern' Horizontal Kerning in Arabic lookup 0 subtable" afii57507 dx=0 dy=0 dh=0 dv=0 dx=0 dy=0 dh=130 dv=0
PairPos2: "'kern' Horizontal Kerning in Arabic lookup 0 subtable" afii62956 dx=0 dy=0 dh=0 dv=0 dx=0 dy=0 dh=60 dv=0
EndChar

StartChar: afii62840
Encoding: 65275 65275 268
Width: 872
GlyphClass: 3
Flags: W
AnchorPoint: "Anchor-1" 675 -345 baselig 0
AnchorPoint: "Anchor-0" 690 1290 baselig 0
AnchorPoint: "Anchor-1" 255 -390 baselig 1
AnchorPoint: "Anchor-0" 120 1290 baselig 1
LayerCount: 2
Fore
SplineSet
654 1198 m 1,0,1
 666 1128 666 1128 714 1074 c 0,2,3
 756 1024 756 1024 822 994 c 1,4,-1
 757 839 l 1,5,-1
 736 850 l 1,6,7
 724 769 724 769 695 690 c 128,-1,8
 666 611 666 611 626 541 c 1,9,10
 677 468 677 468 703.5 393 c 128,-1,11
 730 318 730 318 730 228 c 0,12,13
 730 65 730 65 659 24 c 0,14,15
 600 -11 600 -11 362 -11 c 0,16,17
 282 -11 282 -11 257 40 c 0,18,19
 229 96 229 96 204 330 c 1,20,-1
 292 322 l 2,21,22
 320 322 320 322 401 392.5 c 128,-1,23
 482 463 482 463 506 506 c 1,24,25
 439 593 439 593 385 650 c 0,26,27
 316 722 316 722 242 770 c 1,28,-1
 230 738 l 1,29,30
 180 767 180 767 128 816 c 0,31,32
 66 875 66 875 66 912 c 0,33,34
 66 953 66 953 99 1041.5 c 128,-1,35
 132 1130 132 1130 149 1130 c 0,36,37
 167 1130 167 1130 246 1042 c 0,38,39
 323 955 323 955 412.5 840.5 c 128,-1,40
 502 726 502 726 565 629 c 1,41,42
 586 679 586 679 599.5 744.5 c 128,-1,43
 613 810 613 810 613 874 c 0,44,45
 613 876 613 876 611.5 906 c 128,-1,46
 610 936 610 936 610 950 c 1,47,-1
 577 1010 l 1,48,-1
 654 1198 l 1,0,1
456 316 m 1,49,50
 479 313 479 313 488.5 312 c 128,-1,51
 498 311 498 311 515 311 c 0,52,53
 541 311 541 311 568 316.5 c 128,-1,54
 595 322 595 322 624 330 c 1,55,56
 613 360 613 360 596 389 c 0,57,58
 590 400 590 400 562 439 c 1,59,60
 550 425 550 425 524 392 c 0,61,62
 486 342 486 342 456 316 c 1,49,50
EndSplineSet
Ligature2: "'rlig' Required Ligatures in Arabic lookup 6 subtable" afii62817 afii62760
Substitution2: "'fina' Terminal Forms in Arabic lookup 2 subtable" afii62841
PairPos2: "'kern' Horizontal Kerning in Arabic lookup 0 subtable" afii62831 dx=0 dy=0 dh=0 dv=0 dx=0 dy=0 dh=-70 dv=0
PairPos2: "'kern' Horizontal Kerning in Arabic lookup 0 subtable" afii62817 dx=0 dy=0 dh=0 dv=0 dx=0 dy=0 dh=80 dv=0
PairPos2: "'kern' Horizontal Kerning in Arabic lookup 0 subtable" afii57443 dx=0 dy=0 dh=0 dv=0 dx=0 dy=0 dh=80 dv=0
PairPos2: "'kern' Horizontal Kerning in Arabic lookup 0 subtable" afii57434 dx=0 dy=0 dh=0 dv=0 dx=0 dy=0 dh=-100 dv=0
PairPos2: "'kern' Horizontal Kerning in Arabic lookup 0 subtable" afii57433 dx=0 dy=0 dh=0 dv=0 dx=0 dy=0 dh=-100 dv=0
PairPos2: "'kern' Horizontal Kerning in Arabic lookup 0 subtable" afii62761 dx=0 dy=0 dh=0 dv=0 dx=0 dy=0 dh=-70 dv=0
PairPos2: "'kern' Horizontal Kerning in Arabic lookup 0 subtable" afii62956 dx=0 dy=0 dh=0 dv=0 dx=0 dy=0 dh=-70 dv=0
EndChar

StartChar: afii62841
Encoding: 65276 65276 269
Width: 1015
GlyphClass: 3
Flags: W
AnchorPoint: "Anchor-1" 840 -420 baselig 0
AnchorPoint: "Anchor-0" 780 1305 baselig 0
AnchorPoint: "Anchor-1" 300 -435 baselig 1
AnchorPoint: "Anchor-0" 180 1230 baselig 1
LayerCount: 2
Fore
SplineSet
1075 56 m 1,0,1
 1075 32 1075 32 1061.5 16 c 128,-1,2
 1048 0 1048 0 1020 0 c 0,3,4
 931 0 931 0 874 76 c 0,5,6
 829 137 829 137 800 250 c 0,7,8
 791 293 791 293 767 442 c 1,9,-1
 756 442 l 1,10,11
 745 396 745 396 698 304 c 0,12,13
 660 226 660 226 611 150 c 0,14,15
 570 85 570 85 541 56 c 0,16,17
 498 11 498 11 440 -12 c 0,18,19
 374 -38 374 -38 281 -38 c 0,20,21
 192 -38 192 -38 102.5 -25 c 128,-1,22
 13 -12 13 -12 13 2 c 0,23,24
 13 13 13 13 67 32 c 0,25,26
 114 49 114 49 174 79 c 0,27,28
 256 120 256 120 337 179 c 0,29,30
 443 254 443 254 536 347 c 1,31,32
 498 462 498 462 432 554 c 0,33,34
 359 655 359 655 262 716 c 1,35,-1
 253 684 l 1,36,37
 157 774 157 774 132 802 c 0,38,39
 67 876 67 876 67 964 c 0,40,41
 67 1014 67 1014 88 1066 c 0,42,43
 104 1106 104 1106 138 1154 c 1,44,45
 288 1078 288 1078 425 869 c 0,46,47
 566 652 566 652 606 418 c 1,48,49
 659 476 659 476 694 534 c 0,50,51
 740 612 740 612 740 667 c 0,52,53
 740 716 740 716 729.5 838 c 128,-1,54
 719 960 719 960 710 1010 c 1,55,-1
 824 1198 l 1,56,-1
 889 418 l 1,57,58
 889 366 889 366 931 344 c 0,59,60
 968 326 968 326 1038 326 c 0,61,62
 1055 326 1055 326 1065 310 c 128,-1,63
 1075 294 1075 294 1075 270 c 2,64,-1
 1075 56 l 1,65,-1
 1075 56 l 1,0,1
EndSplineSet
Ligature2: "'rlig' Required Ligatures in Arabic lookup 6 subtable" afii62818 afii62760
EndChar

StartChar: afii59759
Encoding: 3663 3663 276
Width: 1233
GlyphClass: 2
Flags: W
LayerCount: 2
Fore
SplineSet
616 983 m 0,0,1
 823 983 823 983 969.5 836.5 c 128,-1,2
 1116 690 1116 690 1116 483 c 0,3,4
 1116 277 1116 277 969.5 130.5 c 128,-1,5
 823 -16 823 -16 616 -16 c 0,6,7
 410 -16 410 -16 263.5 130.5 c 128,-1,8
 117 277 117 277 117 483 c 0,9,10
 117 690 117 690 263.5 836.5 c 128,-1,11
 410 983 410 983 616 983 c 0,0,1
616 147 m 0,12,13
 758 147 758 147 849 242 c 128,-1,14
 940 337 940 337 940 483 c 256,15,16
 940 629 940 629 849 724 c 128,-1,17
 758 819 758 819 616 819 c 0,18,19
 475 819 475 819 384 724 c 128,-1,20
 293 629 293 629 293 483 c 256,21,22
 293 337 293 337 384 242 c 128,-1,23
 475 147 475 147 616 147 c 0,12,13
616 598 m 0,24,25
 664 598 664 598 697.5 565 c 128,-1,26
 731 532 731 532 731 485 c 256,27,28
 731 438 731 438 697.5 404.5 c 128,-1,29
 664 371 664 371 616 371 c 0,30,31
 569 371 569 371 535.5 404.5 c 128,-1,32
 502 438 502 438 502 485 c 256,33,34
 502 532 502 532 535.5 565 c 128,-1,35
 569 598 569 598 616 598 c 0,24,25
EndSplineSet
EndChar

StartChar: afii59760
Encoding: 3664 3664 277
Width: 1233
GlyphClass: 2
Flags: W
LayerCount: 2
Fore
SplineSet
616 924 m 0,0,1
 834 924 834 924 975 794.5 c 128,-1,2
 1116 665 1116 665 1116 453 c 0,3,4
 1116 242 1116 242 975 113 c 128,-1,5
 834 -16 834 -16 616 -16 c 0,6,7
 399 -16 399 -16 258 113 c 128,-1,8
 117 242 117 242 117 453 c 0,9,10
 117 665 117 665 258 794.5 c 128,-1,11
 399 924 399 924 616 924 c 0,0,1
616 150 m 0,12,13
 765 150 765 150 852.5 231 c 128,-1,14
 940 312 940 312 940 453 c 256,15,16
 940 594 940 594 852 677 c 128,-1,17
 764 760 764 760 616 760 c 0,18,19
 469 760 469 760 381 677 c 128,-1,20
 293 594 293 594 293 453 c 0,21,22
 293 310 293 310 381.5 230 c 128,-1,23
 470 150 470 150 616 150 c 0,12,13
EndSplineSet
EndChar

StartChar: glyph279
Encoding: 65559 -1 279
Width: 0
GlyphClass: 2
Flags: W
LayerCount: 2
Fore
SplineSet
36 1831 m 1,0,-1
 36 863 l 1,1,-1
 -36 863 l 1,2,-1
 -36 1831 l 1,3,-1
 36 1831 l 1,0,-1
36 543 m 1,4,-1
 36 -423 l 1,5,-1
 -36 -423 l 1,6,-1
 -36 543 l 1,7,-1
 36 543 l 1,4,-1
EndSplineSet
EndChar

StartChar: glyph280
Encoding: 65560 -1 280
Width: 0
GlyphClass: 2
Flags: W
LayerCount: 2
Fore
SplineSet
-234 -423 m 1,0,-1
 -234 -352 l 1,1,-1
 -36 -352 l 1,2,-1
 -36 1760 l 1,3,-1
 -234 1760 l 1,4,-1
 -234 1831 l 1,5,-1
 234 1831 l 1,6,-1
 234 1760 l 1,7,-1
 36 1760 l 1,8,-1
 36 -352 l 1,9,-1
 234 -352 l 1,10,-1
 234 -423 l 1,11,-1
 -234 -423 l 1,0,-1
EndSplineSet
EndChar

StartChar: glyph281
Encoding: 65561 -1 281
Width: 0
GlyphClass: 2
Flags: W
LayerCount: 2
Fore
SplineSet
224 1646 m 1,0,-1
 36 1504 l 1,1,-1
 36 -423 l 1,2,-1
 -36 -423 l 1,3,-1
 -36 1831 l 1,4,-1
 224 1646 l 1,0,-1
EndSplineSet
EndChar

StartChar: glyph282
Encoding: 65562 -1 282
Width: 0
GlyphClass: 2
Flags: W
LayerCount: 2
Fore
SplineSet
36 1831 m 1,0,-1
 36 -423 l 1,1,-1
 -36 -423 l 1,2,-1
 -36 1504 l 1,3,-1
 -224 1646 l 1,4,-1
 36 1831 l 1,0,-1
EndSplineSet
EndChar

StartChar: glyph283
Encoding: 65563 -1 283
Width: 0
GlyphClass: 2
Flags: W
LayerCount: 2
Fore
SplineSet
36 1831 m 1,0,-1
 36 -352 l 1,1,-1
 234 -352 l 1,2,-1
 234 -423 l 1,3,-1
 -36 -423 l 1,4,-1
 -36 1831 l 1,5,-1
 36 1831 l 1,0,-1
EndSplineSet
EndChar

StartChar: glyph284
Encoding: 65564 -1 284
Width: 0
GlyphClass: 2
Flags: W
LayerCount: 2
Fore
SplineSet
224 1646 m 1,0,-1
 36 1504 l 1,1,-1
 36 -423 l 1,2,-1
 -36 -423 l 1,3,-1
 -36 1504 l 1,4,-1
 -224 1641 l 1,5,-1
 0 1831 l 1,6,-1
 224 1646 l 1,0,-1
EndSplineSet
EndChar

StartChar: uni0670
Encoding: 1648 1648 297
Width: 0
GlyphClass: 4
Flags: W
AnchorPoint: "Anchor-2" 0 0 mark 0
AnchorPoint: "Anchor-0" 0 0 mark 0
LayerCount: 2
Fore
SplineSet
-14 5 m 1,0,1
 -5 110 -5 110 -13 147 c 1,2,3
 -16 192 -16 192 -53 264 c 1,4,-1
 -27 390 l 1,5,6
 40 310 40 310 51 239 c 0,7,8
 55 208 55 208 47.5 153.5 c 128,-1,9
 40 99 40 99 21 24 c 1,10,-1
 -14 5 l 1,0,1
EndSplineSet
EndChar

StartChar: glyph298
Encoding: 65565 -1 298
Width: 586
GlyphClass: 2
Flags: W
LayerCount: 2
Fore
SplineSet
83 1160 m 1,0,1
 98 1147 98 1147 130 1139.5 c 128,-1,2
 162 1132 162 1132 187 1131 c 1,3,4
 224 1175 224 1175 250 1197 c 0,5,6
 286 1226 286 1226 318 1242 c 0,7,8
 356 1261 356 1261 390 1261 c 256,9,10
 424 1261 424 1261 440 1239 c 0,11,12
 452 1223 452 1223 452 1200 c 0,13,14
 452 1170 452 1170 434.5 1131.5 c 128,-1,15
 417 1093 417 1093 393 1069 c 0,16,17
 384 1060 384 1060 354 1054 c 0,18,19
 261 1045 261 1045 185.5 1065 c 128,-1,20
 110 1085 110 1085 83 1160 c 1,0,1
227 1130 m 1,21,22
 242 1127 242 1127 282 1130.5 c 128,-1,23
 322 1134 322 1134 349.5 1140 c 128,-1,24
 377 1146 377 1146 404 1151 c 1,25,26
 399 1173 399 1173 386 1185 c 0,27,28
 371 1198 371 1198 349 1198 c 0,29,30
 320 1198 320 1198 288 1180 c 0,31,32
 259 1164 259 1164 227 1130 c 1,21,22
EndSplineSet
EndChar

StartChar: glyph299
Encoding: 65566 -1 299
Width: 1072
GlyphClass: 2
Flags: W
LayerCount: 2
Fore
SplineSet
641 292 m 0,0,1
 560 292 560 292 516 336 c 0,2,3
 474 377 474 377 474 442 c 0,4,5
 474 520 474 520 502 617 c 0,6,7
 532 726 532 726 580 796 c 0,8,9
 635 878 635 878 700 878 c 0,10,11
 752 878 752 878 821 811 c 0,12,13
 898 737 898 737 947 619 c 0,14,15
 1004 481 1004 481 1004 320 c 0,16,17
 1004 192 1004 192 967 75.5 c 128,-1,18
 930 -41 930 -41 852 -163 c 0,19,20
 842 -176 842 -176 779 -206 c 0,21,22
 702 -240 702 -240 624 -262 c 0,23,24
 526 -289 526 -289 444 -289 c 0,25,26
 268 -289 268 -289 174 -221 c 0,27,28
 67 -143 67 -143 67 28 c 0,29,30
 67 125 67 125 102 234 c 0,31,32
 127 316 127 316 168 386 c 0,33,34
 202 446 202 446 211 446 c 0,35,36
 228 446 228 446 228 433 c 0,37,38
 215 390 215 390 203.5 345.5 c 128,-1,39
 192 301 192 301 192 254 c 0,40,41
 192 155 192 155 234 100 c 0,42,43
 270 54 270 54 343 35 c 0,44,45
 397 22 397 22 492 22 c 0,46,47
 631 22 631 22 755 62 c 0,48,49
 860 97 860 97 900 139 c 1,50,51
 900 244 900 244 883 305 c 0,52,53
 869 353 869 353 835 408 c 1,54,55
 802 355 802 355 751 323.5 c 128,-1,56
 700 292 700 292 641 292 c 0,0,1
582 569 m 1,57,58
 616 551 616 551 641.5 546 c 128,-1,59
 667 541 667 541 712 541 c 0,60,61
 730 541 730 541 748.5 544.5 c 128,-1,62
 767 548 767 548 797 556 c 1,63,64
 769 598 769 598 740 619 c 0,65,66
 704 646 704 646 661 646 c 0,67,68
 629 646 629 646 607 622 c 0,69,70
 590 601 590 601 582 569 c 1,57,58
EndSplineSet
EndChar

StartChar: uni06DD
Encoding: 1757 1757 388
Width: 2300
GlyphClass: 2
Flags: W
LayerCount: 2
Fore
SplineSet
2250 715 m 256,0,1
 2250 469 2250 469 2146 249 c 0,2,3
 2046 35 2046 35 1867 -119 c 1,4,5
 1870 -133 1870 -133 1870 -148 c 0,6,7
 1870 -203 1870 -203 1831 -241.5 c 128,-1,8
 1792 -280 1792 -280 1737 -280 c 0,9,10
 1697 -280 1697 -280 1664 -258 c 1,11,12
 1424 -385 1424 -385 1149 -385 c 0,13,14
 876 -385 876 -385 636 -258 c 1,15,16
 603 -280 603 -280 563 -280 c 0,17,18
 508 -280 508 -280 469 -241.5 c 128,-1,19
 430 -203 430 -203 430 -148 c 0,20,21
 430 -133 430 -133 433 -119 c 1,22,23
 254 35 254 35 154 249 c 0,24,25
 50 469 50 469 50 715 c 256,26,27
 50 961 50 961 154 1181 c 0,28,29
 254 1394 254 1394 433 1548 c 1,30,31
 430 1562 430 1562 430 1577 c 0,32,33
 430 1632 430 1632 469 1670.5 c 128,-1,34
 508 1709 508 1709 563 1709 c 0,35,36
 603 1709 603 1709 636 1687 c 1,37,38
 876 1814 876 1814 1151 1814 c 0,39,40
 1424 1814 1424 1814 1664 1687 c 1,41,42
 1697 1709 1697 1709 1737 1709 c 0,43,44
 1792 1709 1792 1709 1831 1670.5 c 128,-1,45
 1870 1632 1870 1632 1870 1577 c 0,46,47
 1870 1562 1870 1562 1867 1548 c 1,48,49
 2046 1394 2046 1394 2146 1181 c 0,50,51
 2250 961 2250 961 2250 715 c 256,0,1
1816 1576 m 0,52,53
 1816 1609 1816 1609 1793 1632 c 128,-1,54
 1770 1655 1770 1655 1738 1655 c 256,55,56
 1706 1655 1706 1655 1682.5 1631.5 c 128,-1,57
 1659 1608 1659 1608 1659 1576 c 256,58,59
 1659 1544 1659 1544 1682 1521 c 128,-1,60
 1705 1498 1705 1498 1738 1498 c 0,61,62
 1770 1498 1770 1498 1793 1521 c 128,-1,63
 1816 1544 1816 1544 1816 1576 c 0,52,53
1602 1595 m 1,64,65
 1390 1704 1390 1704 1151 1704 c 0,66,67
 910 1704 910 1704 698 1595 c 1,68,-1
 1602 1595 l 1,64,65
641 1576 m 256,69,70
 641 1608 641 1608 617.5 1631.5 c 128,-1,71
 594 1655 594 1655 562 1655 c 256,72,73
 530 1655 530 1655 507 1632 c 128,-1,74
 484 1609 484 1609 484 1576 c 0,75,76
 484 1544 484 1544 507 1521 c 128,-1,77
 530 1498 530 1498 562 1498 c 0,78,79
 595 1498 595 1498 618 1521 c 128,-1,80
 641 1544 641 1544 641 1576 c 256,69,70
2140 714 m 0,81,82
 2140 933 2140 933 2048 1131 c 0,83,84
 1960 1321 1960 1321 1801 1460 c 1,85,86
 1772 1444 1772 1444 1737 1444 c 0,87,88
 1681 1444 1681 1444 1642 1485 c 1,89,-1
 658 1485 l 1,90,91
 619 1444 619 1444 563 1444 c 0,92,93
 528 1444 528 1444 499 1460 c 1,94,95
 340 1321 340 1321 252 1131 c 0,96,97
 160 933 160 933 160 714 c 0,98,99
 160 265 160 265 499 -31 c 1,100,101
 528 -15 528 -15 563 -15 c 0,102,103
 619 -15 619 -15 658 -56 c 1,104,-1
 1642 -56 l 1,105,106
 1681 -15 1681 -15 1737 -15 c 0,107,108
 1772 -15 1772 -15 1801 -31 c 1,109,110
 2140 265 2140 265 2140 714 c 0,81,82
1816 -147 m 0,111,112
 1816 -115 1816 -115 1793 -92 c 128,-1,113
 1770 -69 1770 -69 1738 -69 c 0,114,115
 1705 -69 1705 -69 1682 -92 c 128,-1,116
 1659 -115 1659 -115 1659 -147 c 256,117,118
 1659 -179 1659 -179 1682.5 -202.5 c 128,-1,119
 1706 -226 1706 -226 1738 -226 c 256,120,121
 1770 -226 1770 -226 1793 -203 c 128,-1,122
 1816 -180 1816 -180 1816 -147 c 0,111,112
1602 -166 m 1,123,-1
 698 -166 l 1,124,125
 910 -275 910 -275 1151 -275 c 0,126,127
 1390 -275 1390 -275 1602 -166 c 1,123,-1
641 -147 m 256,128,129
 641 -115 641 -115 618 -92 c 128,-1,130
 595 -69 595 -69 562 -69 c 0,131,132
 530 -69 530 -69 507 -92 c 128,-1,133
 484 -115 484 -115 484 -147 c 0,134,135
 484 -180 484 -180 507 -203 c 128,-1,136
 530 -226 530 -226 562 -226 c 256,137,138
 594 -226 594 -226 617.5 -202.5 c 128,-1,139
 641 -179 641 -179 641 -147 c 256,128,129
EndSplineSet
EndChar

StartChar: uni06DE
Encoding: 1758 1758 389
Width: 2221
GlyphClass: 2
Flags: W
LayerCount: 2
Fore
SplineSet
2171 750 m 1,0,-1
 1861 439 l 1,1,-1
 1861 0 l 1,2,-1
 1421 0 l 1,3,-1
 1111 -311 l 1,4,-1
 800 0 l 1,5,-1
 361 0 l 1,6,-1
 361 439 l 1,7,-1
 50 750 l 1,8,-1
 361 1061 l 1,9,-1
 361 1500 l 1,10,-1
 800 1500 l 1,11,-1
 1111 1811 l 1,12,-1
 1421 1500 l 1,13,-1
 1861 1500 l 1,14,-1
 1861 1061 l 1,15,-1
 2171 750 l 1,0,-1
436 364 m 1,16,-1
 436 75 l 1,17,-1
 725 75 l 1,18,-1
 436 364 l 1,16,-1
725 1425 m 1,19,-1
 436 1425 l 1,20,-1
 436 1136 l 1,21,-1
 725 1425 l 1,19,-1
1786 1136 m 1,22,-1
 1786 1425 l 1,23,-1
 1496 1425 l 1,24,-1
 1786 1136 l 1,22,-1
1786 75 m 1,25,-1
 1786 364 l 1,26,-1
 1496 75 l 1,27,-1
 1786 75 l 1,25,-1
906 0 m 1,28,-1
 1111 -205 l 1,29,-1
 1315 0 l 1,30,-1
 906 0 l 1,28,-1
361 955 m 1,31,-1
 156 750 l 1,32,-1
 361 545 l 1,33,-1
 361 955 l 1,31,-1
1315 1500 m 1,34,-1
 1111 1705 l 1,35,-1
 906 1500 l 1,36,-1
 1315 1500 l 1,34,-1
1786 1030 m 1,37,-1
 1390 1425 l 1,38,-1
 831 1425 l 1,39,-1
 436 1030 l 1,40,-1
 436 470 l 1,41,-1
 831 75 l 1,42,-1
 1390 75 l 1,43,-1
 1786 470 l 1,44,-1
 1786 1030 l 1,37,-1
2065 750 m 1,45,-1
 1861 955 l 1,46,-1
 1861 545 l 1,47,-1
 2065 750 l 1,45,-1
1328 750 m 256,48,49
 1328 660 1328 660 1264.5 596 c 128,-1,50
 1201 532 1201 532 1111 532 c 256,51,52
 1021 532 1021 532 957 596 c 128,-1,53
 893 660 893 660 893 750 c 256,54,55
 893 840 893 840 957 903.5 c 128,-1,56
 1021 967 1021 967 1111 967 c 256,57,58
 1201 967 1201 967 1264.5 903.5 c 128,-1,59
 1328 840 1328 840 1328 750 c 256,48,49
1253 750 m 256,60,61
 1253 809 1253 809 1211 850.5 c 128,-1,62
 1169 892 1169 892 1110 892 c 256,63,64
 1051 892 1051 892 1009 850.5 c 128,-1,65
 967 809 967 809 967 750 c 256,66,67
 967 691 967 691 1009 649 c 128,-1,68
 1051 607 1051 607 1110 607 c 256,69,70
 1169 607 1169 607 1211 649 c 128,-1,71
 1253 691 1253 691 1253 750 c 256,60,61
EndSplineSet
EndChar

StartChar: uni06DF
Encoding: 1759 1759 390
Width: 0
GlyphClass: 2
Flags: W
LayerCount: 2
Fore
SplineSet
75 1429 m 256,0,1
 75 1398 75 1398 53 1376 c 128,-1,2
 31 1354 31 1354 0 1354 c 256,3,4
 -31 1354 -31 1354 -53 1376 c 128,-1,5
 -75 1398 -75 1398 -75 1429 c 256,6,7
 -75 1460 -75 1460 -53 1482 c 128,-1,8
 -31 1504 -31 1504 0 1504 c 256,9,10
 31 1504 31 1504 53 1482 c 128,-1,11
 75 1460 75 1460 75 1429 c 256,0,1
EndSplineSet
EndChar

StartChar: uni06E9
Encoding: 1769 1769 391
Width: 1229
GlyphClass: 2
Flags: W
LayerCount: 2
Fore
SplineSet
1179 0 m 1,0,-1
 50 0 l 1,1,-1
 278 261 l 1,2,-1
 278 849 l 1,3,-1
 50 1108 l 1,4,-1
 614 1676 l 1,5,-1
 1179 1108 l 1,6,-1
 951 849 l 1,7,-1
 951 261 l 1,8,-1
 1179 0 l 1,0,-1
1101 1108 m 1,9,-1
 614 1598 l 1,10,-1
 128 1108 l 1,11,-1
 338 871 l 1,12,-1
 338 239 l 1,13,-1
 178 56 l 1,14,-1
 1051 56 l 1,15,-1
 891 239 l 1,16,-1
 891 871 l 1,17,-1
 1101 1108 l 1,9,-1
995 1108 m 1,18,-1
 845 937 l 1,19,-1
 845 131 l 1,20,-1
 384 131 l 1,21,-1
 384 937 l 1,22,-1
 234 1108 l 1,23,-1
 614 1489 l 1,24,-1
 995 1108 l 1,18,-1
922 1108 m 1,25,-1
 614 1416 l 1,26,-1
 307 1108 l 1,27,-1
 433 968 l 1,28,-1
 433 186 l 1,29,-1
 796 186 l 1,30,-1
 796 968 l 1,31,-1
 922 1108 l 1,25,-1
833 1108 m 1,32,-1
 745 1011 l 1,33,-1
 745 267 l 1,34,-1
 484 267 l 1,35,-1
 484 1011 l 1,36,-1
 396 1108 l 1,37,-1
 614 1331 l 1,38,-1
 833 1108 l 1,32,-1
780 1108 m 1,39,-1
 614 1278 l 1,40,-1
 449 1108 l 1,41,-1
 523 1027 l 1,42,-1
 523 309 l 1,43,-1
 705 309 l 1,44,-1
 705 1027 l 1,45,-1
 780 1108 l 1,39,-1
EndSplineSet
EndChar

StartChar: uni06EB
Encoding: 1771 1771 393
Width: 0
GlyphClass: 2
Flags: W
LayerCount: 2
Fore
SplineSet
168 1522 m 1,0,-1
 -1 1354 l 1,1,-1
 -168 1521 l 1,2,-1
 1 1689 l 1,3,-1
 168 1522 l 1,0,-1
104 1522 m 1,4,-1
 0 1626 l 1,5,-1
 -104 1521 l 1,6,-1
 0 1417 l 1,7,-1
 104 1522 l 1,4,-1
EndSplineSet
EndChar

StartChar: comma
Encoding: 44 44 402
Width: 435
Flags: W
LayerCount: 2
Fore
SplineSet
93 -289 m 1,0,-1
 93 -252 l 1,1,2
 180 -223 180 -223 228.5 -162.5 c 128,-1,3
 277 -102 277 -102 277 -34 c 0,4,5
 277 -18 277 -18 269 -6 c 0,6,7
 263 1 263 1 257 1 c 0,8,9
 248 1 248 1 216 -16 c 0,10,11
 201 -23 201 -23 184 -23 c 0,12,13
 142 -23 142 -23 117.5 1 c 128,-1,14
 93 25 93 25 93 69 c 0,15,16
 93 110 93 110 125 140 c 128,-1,17
 157 170 157 170 202 170 c 0,18,19
 259 170 259 170 302.5 121 c 128,-1,20
 346 72 346 72 346 -8 c 0,21,22
 346 -95 346 -95 285.5 -170.5 c 128,-1,23
 225 -246 225 -246 93 -289 c 1,0,-1
EndSplineSet
EndChar

StartChar: afii57407
Encoding: 1567 1567 403
Width: 1062
GlyphClass: 2
Flags: W
LayerCount: 2
Fore
SplineSet
347 901 m 0,0,1
 347 1034 347 1034 444.5 1139 c 128,-1,2
 542 1244 542 1244 687 1244 c 0,3,4
 809 1244 809 1244 897.5 1169 c 128,-1,5
 986 1094 986 1094 986 984 c 0,6,7
 986 914 986 914 935.5 858 c 128,-1,8
 885 802 885 802 815 802 c 0,9,10
 771 802 771 802 739 835 c 128,-1,11
 707 868 707 868 707 910 c 0,12,13
 707 955 707 955 741.5 987 c 128,-1,14
 776 1019 776 1019 825 1019 c 0,15,16
 842 1019 842 1019 867.5 1014 c 128,-1,17
 893 1009 893 1009 901 1009 c 0,18,19
 907 1009 907 1009 907 1023 c 0,20,21
 907 1058 907 1058 854 1105 c 0,22,23
 793 1159 793 1159 720 1159 c 0,24,25
 639 1159 639 1159 590.5 1108.5 c 128,-1,26
 542 1058 542 1058 542 982 c 0,27,28
 542 895 542 895 650.5 741 c 128,-1,29
 759 587 759 587 759 465 c 0,30,31
 759 389 759 389 729 296 c 1,32,-1
 648 315 l 1,33,34
 669 360 669 360 669 402 c 0,35,36
 669 465 669 465 586 546 c 0,37,38
 433 692 433 692 429 694 c 0,39,40
 347 792 347 792 347 901 c 0,0,1
546 109 m 0,41,42
 546 154 546 154 582.5 193.5 c 128,-1,43
 619 233 619 233 666 233 c 0,44,45
 715 233 715 233 753.5 195.5 c 128,-1,46
 792 158 792 158 792 109 c 256,47,48
 792 60 792 60 755 23.5 c 128,-1,49
 718 -13 718 -13 666 -13 c 0,50,51
 617 -13 617 -13 581.5 23.5 c 128,-1,52
 546 60 546 60 546 109 c 0,41,42
EndSplineSet
EndChar

StartChar: afii57392
Encoding: 1776 1776 404
Width: 942
Flags: W
LayerCount: 2
Fore
SplineSet
247 506 m 1,0,-1
 416 724 l 1,1,-1
 661 526 l 1,2,-1
 487 311 l 1,3,-1
 247 506 l 1,0,-1
EndSplineSet
EndChar

StartChar: afii57393
Encoding: 1777 1777 405
Width: 695
Flags: W
LayerCount: 2
Fore
SplineSet
272 1247 m 1,0,1
 408 954 408 954 458 750 c 0,2,3
 506 562 506 562 506 349 c 0,4,5
 506 215 506 215 468 118 c 0,6,7
 439 47 439 47 392 2 c 0,8,9
 359 -29 359 -29 341 -29 c 0,10,11
 335 -29 335 -29 332.5 -23.5 c 128,-1,12
 330 -18 330 -18 330 -8 c 2,13,-1
 335 34 l 2,14,15
 341 88 341 88 342.5 119 c 128,-1,16
 344 150 344 150 344 187 c 2,17,-1
 344 204 l 2,18,19
 344 332 344 332 311 482 c 0,20,21
 282 611 282 611 228 748 c 0,22,23
 185 863 185 863 131 970 c 1,24,-1
 272 1247 l 1,25,-1
 272 1247 l 1,0,1
EndSplineSet
EndChar

StartChar: afii57394
Encoding: 1778 1778 406
Width: 910
Flags: W
LayerCount: 2
Fore
SplineSet
329 1144 m 1,0,1
 395 1108 395 1108 444 1096 c 0,2,3
 482 1086 482 1086 539 1086 c 0,4,5
 620 1086 620 1086 679 1126 c 0,6,7
 733 1160 733 1160 762 1208 c 1,8,9
 776 1208 776 1208 778 1184 c 128,-1,10
 780 1160 780 1160 780 1105 c 0,11,12
 780 973 780 973 721 899 c 0,13,14
 673 838 673 838 586 812 c 0,15,16
 526 796 526 796 434 796 c 1,17,18
 478 666 478 666 506.5 538 c 128,-1,19
 535 410 535 410 535 349 c 0,20,21
 535 215 535 215 497 118 c 0,22,23
 468 47 468 47 421 2 c 0,24,25
 388 -29 388 -29 370 -29 c 0,26,27
 364 -29 364 -29 361.5 -23.5 c 128,-1,28
 359 -18 359 -18 359 -8 c 2,29,-1
 364 34 l 2,30,31
 370 88 370 88 371.5 119 c 128,-1,32
 373 150 373 150 373 187 c 2,33,-1
 373 204 l 2,34,35
 373 270 373 270 341 400 c 0,36,37
 306 539 306 539 250 672 c 0,38,39
 186 827 186 827 116 912 c 1,40,-1
 286 1228 l 1,41,-1
 329 1144 l 1,0,1
EndSplineSet
EndChar

StartChar: afii57395
Encoding: 1779 1779 407
Width: 1034
Flags: W
LayerCount: 2
Fore
SplineSet
317 1136 m 1,0,1
 348 1105 348 1105 372 1092 c 0,2,3
 407 1073 407 1073 448 1073 c 0,4,5
 532 1073 532 1073 570 1140.5 c 128,-1,6
 608 1208 608 1208 618 1208 c 0,7,8
 631 1208 631 1208 657 1143 c 128,-1,9
 683 1078 683 1078 758 1078 c 0,10,11
 823 1078 823 1078 851.5 1135.5 c 128,-1,12
 880 1193 880 1193 890 1193 c 0,13,14
 905 1193 905 1193 912 1176 c 128,-1,15
 919 1159 919 1159 919 1135 c 0,16,17
 919 1015 919 1015 869 918 c 0,18,19
 805 800 805 800 696 800 c 0,20,21
 668 800 668 800 639 810 c 128,-1,22
 610 820 610 820 563 847 c 1,23,24
 524 820 524 820 506 812 c 0,25,26
 473 796 473 796 437 796 c 1,27,28
 480 666 480 666 509 538 c 128,-1,29
 538 410 538 410 538 349 c 0,30,31
 538 215 538 215 499 118 c 0,32,33
 470 47 470 47 424 2 c 0,34,35
 390 -29 390 -29 372 -29 c 0,36,37
 366 -29 366 -29 363.5 -23.5 c 128,-1,38
 361 -18 361 -18 361 -8 c 2,39,-1
 366 34 l 2,40,41
 372 88 372 88 374 119 c 128,-1,42
 376 150 376 150 376 187 c 2,43,-1
 376 204 l 2,44,45
 376 270 376 270 343 400 c 0,46,47
 308 539 308 539 252 672 c 0,48,49
 188 827 188 827 119 912 c 1,50,-1
 288 1228 l 1,51,-1
 317 1136 l 1,0,1
EndSplineSet
EndChar

StartChar: afii62843
Encoding: 1780 1780 408
Width: 1104
Flags: W
LayerCount: 2
Fore
SplineSet
299 1244 m 2,0,1
 299 1247 299 1247 300 1248 c 1,2,3
 311 1237 311 1237 332 1209 c 128,-1,4
 353 1181 353 1181 372.5 1134 c 128,-1,5
 392 1087 392 1087 413 1056 c 128,-1,6
 434 1025 434 1025 461 1009 c 1,7,8
 601 1247 601 1247 745 1247 c 0,9,10
 769 1247 769 1247 794.5 1236.5 c 128,-1,11
 820 1226 820 1226 845 1205 c 0,12,13
 880 1182 880 1182 895.5 1159 c 128,-1,14
 911 1136 911 1136 911 1114 c 0,15,16
 911 1099 911 1099 899 1087.5 c 128,-1,17
 887 1076 887 1076 865 1076 c 0,18,19
 858 1076 858 1076 844 1079 c 128,-1,20
 830 1082 830 1082 816 1083 c 128,-1,21
 802 1084 802 1084 787.5 1087 c 128,-1,22
 773 1090 773 1090 763 1090 c 0,23,24
 737 1090 737 1090 711 1082.5 c 128,-1,25
 685 1075 685 1075 650 1061 c 1,26,27
 620 1043 620 1043 603.5 1025 c 128,-1,28
 587 1007 587 1007 587 983 c 0,29,30
 587 953 587 953 677 953 c 0,31,32
 721 953 721 953 805 983 c 0,33,34
 851 1003 851 1003 875 1011.5 c 128,-1,35
 899 1020 899 1020 902 1020 c 0,36,37
 936 1020 936 1020 936 985 c 0,38,39
 936 980 936 980 934 974 c 0,40,41
 931 965 931 965 925 952 c 0,42,43
 917 919 917 919 893.5 877 c 128,-1,44
 870 835 870 835 809.5 778.5 c 128,-1,45
 749 722 749 722 677 700 c 128,-1,46
 605 678 605 678 506 678 c 1,47,48
 535 520 535 520 532 349 c 0,49,50
 532 215 532 215 493 118 c 0,51,52
 464 47 464 47 418 2 c 0,53,54
 384 -29 384 -29 366 -29 c 0,55,56
 360 -29 360 -29 357.5 -23.5 c 128,-1,57
 355 -18 355 -18 355 -8 c 2,58,-1
 360 34 l 2,59,60
 366 88 366 88 368 119 c 128,-1,61
 370 150 370 150 370 187 c 2,62,-1
 370 204 l 2,63,64
 370 332 370 332 336 482 c 0,65,66
 307 611 307 611 253 748 c 0,67,68
 210 863 210 863 156 970 c 1,69,-1
 298 1247 l 1,70,-1
 299 1244 l 2,0,1
EndSplineSet
EndChar

StartChar: afii62844
Encoding: 1781 1781 409
Width: 1129
Flags: W
LayerCount: 2
Fore
SplineSet
954 401 m 0,0,1
 960 320 960 320 947.5 239 c 128,-1,2
 935 158 935 158 903.5 94.5 c 128,-1,3
 872 31 872 31 831 -8.5 c 128,-1,4
 790 -48 790 -48 721 -48 c 0,5,6
 664 -48 664 -48 625.5 -25 c 128,-1,7
 587 -2 587 -2 546 43 c 1,8,9
 485 -10 485 -10 440 -31.5 c 128,-1,10
 395 -53 395 -53 360 -53 c 0,11,12
 308 -53 308 -53 269 -32 c 128,-1,13
 230 -11 230 -11 202 24.5 c 128,-1,14
 174 60 174 60 160 105.5 c 128,-1,15
 146 151 146 151 146 199 c 0,16,17
 146 292 146 292 169.5 386.5 c 128,-1,18
 193 481 193 481 227.5 568 c 128,-1,19
 262 655 262 655 301 731.5 c 128,-1,20
 340 808 340 808 370 863 c 1,21,22
 361 874 361 874 340 887.5 c 128,-1,23
 319 901 319 901 318 910 c 1,24,25
 329 935 329 935 375.5 1019 c 128,-1,26
 422 1103 422 1103 442 1140 c 0,27,28
 464 1175 464 1175 493 1175 c 0,29,30
 503 1175 503 1175 516.5 1167 c 128,-1,31
 530 1159 530 1159 545 1145 c 0,32,33
 616 1090 616 1090 716 945 c 128,-1,34
 816 800 816 800 881 653 c 128,-1,35
 946 506 946 506 954 401 c 0,0,1
821 360 m 0,36,37
 822 386 822 386 805 425 c 128,-1,38
 788 464 788 464 757.5 510.5 c 128,-1,39
 727 557 727 557 691.5 604.5 c 128,-1,40
 656 652 656 652 614 696 c 128,-1,41
 572 740 572 740 536 770 c 128,-1,42
 500 800 500 800 472 812 c 1,43,44
 432 757 432 757 400 688 c 128,-1,45
 368 619 368 619 348.5 557.5 c 128,-1,46
 329 496 329 496 318 446.5 c 128,-1,47
 307 397 307 397 307 377 c 0,48,49
 307 361 307 361 313 343.5 c 128,-1,50
 319 326 319 326 330.5 312.5 c 128,-1,51
 342 299 342 299 356.5 289.5 c 128,-1,52
 371 280 371 280 386 280 c 0,53,54
 416 280 416 280 437 289.5 c 128,-1,55
 458 299 458 299 478 314 c 128,-1,56
 498 329 498 329 514 347.5 c 128,-1,57
 530 366 530 366 550 383 c 0,58,59
 556 383 556 383 577 355 c 0,60,61
 588 334 588 334 597 323 c 128,-1,62
 606 312 606 312 614 304 c 0,63,64
 638 283 638 283 672.5 276.5 c 128,-1,65
 707 270 707 270 740.5 276.5 c 128,-1,66
 774 283 774 283 798 304 c 128,-1,67
 822 325 822 325 821 360 c 0,36,37
EndSplineSet
EndChar

StartChar: afii62845
Encoding: 1782 1782 410
Width: 1043
Flags: W
LayerCount: 2
Fore
SplineSet
871 854 m 0,0,1
 887 854 887 854 892.5 844.5 c 128,-1,2
 898 835 898 835 898 818 c 1,3,-1
 750 580 l 2,4,5
 744 571 744 571 701 547 c 128,-1,6
 658 523 658 523 631 508 c 0,7,8
 568 473 568 473 459 368.5 c 128,-1,9
 350 264 350 264 294.5 180.5 c 128,-1,10
 239 97 239 97 179 -12 c 0,11,12
 173 -31 173 -31 163.5 -37.5 c 128,-1,13
 154 -44 154 -44 140 -44 c 0,14,15
 125 -44 125 -44 120 -37.5 c 128,-1,16
 115 -31 115 -31 115 -12 c 0,17,18
 115 107 115 107 164.5 239 c 128,-1,19
 214 371 214 371 318 511 c 1,20,21
 246 515 246 515 182 541.5 c 128,-1,22
 118 568 118 568 118 644 c 0,23,24
 116 715 116 715 236 969.5 c 128,-1,25
 356 1224 356 1224 534 1224 c 0,26,27
 611 1224 611 1224 675 1178.5 c 128,-1,28
 739 1133 739 1133 766 1051 c 2,29,-1
 772 1030 l 2,30,31
 772 1016 772 1016 763.5 1008 c 128,-1,32
 755 1000 755 1000 740 1000 c 0,33,34
 731 1000 731 1000 725 1003.5 c 128,-1,35
 719 1007 719 1007 715 1009 c 0,36,37
 676 1021 676 1021 635.5 1026.5 c 128,-1,38
 595 1032 595 1032 546 1032 c 0,39,40
 502 1032 502 1032 466.5 1023.5 c 128,-1,41
 431 1015 431 1015 394 998 c 0,42,43
 348 976 348 976 326.5 949 c 128,-1,44
 305 922 305 922 305 887 c 0,45,46
 305 859 305 859 325.5 842.5 c 128,-1,47
 346 826 346 826 392 810 c 1,48,49
 440 798 440 798 500 798 c 0,50,51
 558 798 558 798 644.5 807 c 128,-1,52
 731 816 731 816 859 852 c 0,53,54
 862 854 862 854 866 854 c 128,-1,55
 870 854 870 854 871 854 c 0,0,1
EndSplineSet
EndChar

StartChar: afii57399
Encoding: 1783 1783 411
Width: 1098
Flags: W
LayerCount: 2
Fore
SplineSet
182 1184 m 1,0,1
 259 1135 259 1135 332 1009 c 0,2,3
 397 894 397 894 445 743 c 0,4,5
 490 602 490 602 510 461 c 0,6,7
 514 436 514 436 518.5 421 c 128,-1,8
 523 406 523 406 529 406 c 0,9,10
 541 406 541 406 554.5 441 c 128,-1,11
 568 476 568 476 589 584 c 0,12,13
 608 674 608 674 653 788 c 0,14,15
 701 911 701 911 761 1012 c 0,16,17
 828 1126 828 1126 893 1184 c 1,18,-1
 1004 886 l 1,19,20
 893 791 893 791 804 646 c 0,21,22
 727 521 727 521 662 352 c 0,23,24
 614 230 614 230 559 41 c 0,25,26
 550 12 550 12 544 4 c 0,27,28
 535 -11 535 -11 521 -11 c 0,29,30
 500 -11 500 -11 481 60 c 0,31,32
 480 66 480 66 450 197 c 0,33,34
 427 301 427 301 378 428 c 0,35,36
 318 584 318 584 250 697 c 0,37,38
 168 835 168 835 88 878 c 1,39,-1
 182 1184 l 1,40,-1
 182 1184 l 1,0,1
EndSplineSet
EndChar

StartChar: afii57400
Encoding: 1784 1784 412
Width: 1175
Flags: W
LayerCount: 2
Fore
SplineSet
950 -11 m 1,0,1
 872 38 872 38 800 164 c 0,2,3
 736 278 736 278 689 430 c 0,4,5
 644 571 644 571 625 710 c 0,6,7
 622 738 622 738 616.5 752.5 c 128,-1,8
 611 767 611 767 601 767 c 0,9,10
 592 767 592 767 581 734 c 0,11,12
 568 694 568 694 547.5 596 c 128,-1,13
 527 498 527 498 480 384 c 0,14,15
 431 257 431 257 373 160 c 0,16,17
 306 46 306 46 241 -11 c 1,18,-1
 130 286 l 1,19,20
 240 382 240 382 328 527 c 0,21,22
 403 652 403 652 470 822 c 0,23,24
 518 946 518 946 575 1130 c 0,25,26
 582 1158 582 1158 589 1171 c 128,-1,27
 596 1184 596 1184 611 1184 c 0,28,29
 634 1184 634 1184 653 1111 c 0,30,31
 653 1109 653 1109 684 976 c 0,32,33
 707 874 707 874 757 744 c 0,34,35
 817 587 817 587 886 475 c 0,36,37
 968 337 968 337 1048 296 c 1,38,-1
 950 -11 l 1,39,-1
 950 -11 l 1,0,1
EndSplineSet
EndChar

StartChar: afii57401
Encoding: 1785 1785 413
Width: 922
Flags: W
LayerCount: 2
Fore
SplineSet
634 -29 m 1,0,1
 574 70 574 70 549 186 c 128,-1,2
 524 302 524 302 524 466 c 0,3,4
 524 530 524 530 527 589 c 128,-1,5
 530 648 530 648 535 674 c 1,6,-1
 522 676 l 1,7,8
 467 612 467 612 430 586 c 0,9,10
 376 548 376 548 310 548 c 0,11,12
 215 548 215 548 168 620 c 0,13,14
 131 677 131 677 131 768 c 0,15,16
 131 949 131 949 228.5 1081.5 c 128,-1,17
 326 1214 326 1214 463 1214 c 0,18,19
 554 1214 554 1214 607 1144 c 0,20,21
 672 1056 672 1056 672 860 c 0,22,23
 672 557 672 557 694 446.5 c 128,-1,24
 716 336 716 336 790 242 c 1,25,-1
 634 -29 l 1,0,1
402 784 m 0,26,27
 432 784 432 784 465 790 c 128,-1,28
 498 796 498 796 528 806 c 1,29,30
 528 875 528 875 505 920 c 0,31,32
 476 980 476 980 416 980 c 0,33,34
 376 980 376 980 325 937 c 0,35,36
 289 906 289 906 258 860 c 1,37,38
 288 828 288 828 322 808 c 0,39,40
 362 784 362 784 402 784 c 0,26,27
EndSplineSet
EndChar

StartChar: afii57392.001
Encoding: 1632 1632 414
Width: 942
Flags: W
LayerCount: 2
Fore
SplineSet
247 506 m 1,0,-1
 416 724 l 1,1,-1
 661 526 l 1,2,-1
 487 311 l 1,3,-1
 247 506 l 1,0,-1
EndSplineSet
EndChar

StartChar: afii57393.001
Encoding: 1633 1633 415
Width: 695
Flags: W
LayerCount: 2
Fore
SplineSet
272 1247 m 1,0,1
 408 954 408 954 458 750 c 0,2,3
 506 562 506 562 506 349 c 0,4,5
 506 215 506 215 468 118 c 0,6,7
 439 47 439 47 392 2 c 0,8,9
 359 -29 359 -29 341 -29 c 0,10,11
 335 -29 335 -29 332.5 -23.5 c 128,-1,12
 330 -18 330 -18 330 -8 c 2,13,-1
 335 34 l 2,14,15
 341 88 341 88 342.5 119 c 128,-1,16
 344 150 344 150 344 187 c 2,17,-1
 344 204 l 2,18,19
 344 332 344 332 311 482 c 0,20,21
 282 611 282 611 228 748 c 0,22,23
 185 863 185 863 131 970 c 1,24,-1
 272 1247 l 1,25,-1
 272 1247 l 1,0,1
EndSplineSet
EndChar

StartChar: afii57394.001
Encoding: 1634 1634 416
Width: 910
Flags: W
LayerCount: 2
Fore
SplineSet
329 1144 m 1,0,1
 395 1108 395 1108 444 1096 c 0,2,3
 482 1086 482 1086 539 1086 c 0,4,5
 620 1086 620 1086 679 1126 c 0,6,7
 733 1160 733 1160 762 1208 c 1,8,9
 776 1208 776 1208 778 1184 c 128,-1,10
 780 1160 780 1160 780 1105 c 0,11,12
 780 973 780 973 721 899 c 0,13,14
 673 838 673 838 586 812 c 0,15,16
 526 796 526 796 434 796 c 1,17,18
 478 666 478 666 506.5 538 c 128,-1,19
 535 410 535 410 535 349 c 0,20,21
 535 215 535 215 497 118 c 0,22,23
 468 47 468 47 421 2 c 0,24,25
 388 -29 388 -29 370 -29 c 0,26,27
 364 -29 364 -29 361.5 -23.5 c 128,-1,28
 359 -18 359 -18 359 -8 c 2,29,-1
 364 34 l 2,30,31
 370 88 370 88 371.5 119 c 128,-1,32
 373 150 373 150 373 187 c 2,33,-1
 373 204 l 2,34,35
 373 270 373 270 341 400 c 0,36,37
 306 539 306 539 250 672 c 0,38,39
 186 827 186 827 116 912 c 1,40,-1
 286 1228 l 1,41,-1
 329 1144 l 1,0,1
EndSplineSet
EndChar

StartChar: afii57395.001
Encoding: 1635 1635 417
Width: 1034
Flags: W
LayerCount: 2
Fore
SplineSet
317 1136 m 1,0,1
 348 1105 348 1105 372 1092 c 0,2,3
 407 1073 407 1073 448 1073 c 0,4,5
 532 1073 532 1073 570 1140.5 c 128,-1,6
 608 1208 608 1208 618 1208 c 0,7,8
 631 1208 631 1208 657 1143 c 128,-1,9
 683 1078 683 1078 758 1078 c 0,10,11
 823 1078 823 1078 851.5 1135.5 c 128,-1,12
 880 1193 880 1193 890 1193 c 0,13,14
 905 1193 905 1193 912 1176 c 128,-1,15
 919 1159 919 1159 919 1135 c 0,16,17
 919 1015 919 1015 869 918 c 0,18,19
 805 800 805 800 696 800 c 0,20,21
 668 800 668 800 639 810 c 128,-1,22
 610 820 610 820 563 847 c 1,23,24
 524 820 524 820 506 812 c 0,25,26
 473 796 473 796 437 796 c 1,27,28
 480 666 480 666 509 538 c 128,-1,29
 538 410 538 410 538 349 c 0,30,31
 538 215 538 215 499 118 c 0,32,33
 470 47 470 47 424 2 c 0,34,35
 390 -29 390 -29 372 -29 c 0,36,37
 366 -29 366 -29 363.5 -23.5 c 128,-1,38
 361 -18 361 -18 361 -8 c 2,39,-1
 366 34 l 2,40,41
 372 88 372 88 374 119 c 128,-1,42
 376 150 376 150 376 187 c 2,43,-1
 376 204 l 2,44,45
 376 270 376 270 343 400 c 0,46,47
 308 539 308 539 252 672 c 0,48,49
 188 827 188 827 119 912 c 1,50,-1
 288 1228 l 1,51,-1
 317 1136 l 1,0,1
EndSplineSet
EndChar

StartChar: afii57396
Encoding: 1636 1636 418
Width: 991
Flags: W
LayerCount: 2
Fore
SplineSet
648 277 m 0,0,1
 678 277 678 277 737 282.5 c 128,-1,2
 796 288 796 288 869 296 c 0,3,4
 881 296 881 296 881 277 c 0,5,6
 881 264 881 264 863 223 c 0,7,8
 848 192 848 192 826 150 c 0,9,10
 775 53 775 53 712 23 c 0,11,12
 638 -11 638 -11 452 -11 c 0,13,14
 350 -11 350 -11 280 24 c 0,15,16
 186 71 186 71 186 168 c 0,17,18
 186 248 186 248 229 337 c 0,19,20
 257 395 257 395 308 463 c 0,21,22
 352 520 352 520 352 526 c 0,23,24
 352 556 352 556 295 586 c 0,25,26
 244 612 244 612 192 638 c 1,27,28
 137 672 137 672 137 714 c 0,29,30
 137 748 137 748 204 858 c 0,31,32
 286 992 286 992 392 1090 c 0,33,34
 533 1218 533 1218 686 1247 c 1,35,36
 678 1163 678 1163 660.5 1099.5 c 128,-1,37
 643 1036 643 1036 611 980 c 1,38,39
 560 980 560 980 460 927 c 128,-1,40
 360 874 360 874 360 850 c 0,41,42
 360 841 360 841 432 810 c 0,43,44
 524 769 524 769 564 744 c 0,45,46
 635 700 635 700 635 659 c 0,47,48
 635 619 635 619 577 556 c 0,49,50
 523 500 523 500 469 446 c 1,51,52
 412 380 412 380 412 330 c 0,53,54
 412 304 412 304 478 290.5 c 128,-1,55
 544 277 544 277 648 277 c 0,0,1
EndSplineSet
EndChar

StartChar: afii57397
Encoding: 1637 1637 419
Width: 1027
Flags: W
LayerCount: 2
Fore
SplineSet
502 1144 m 0,0,1
 589 1144 589 1144 685 1026 c 0,2,3
 774 916 774 916 834 753 c 128,-1,4
 894 590 894 590 894 452 c 0,5,6
 894 275 894 275 816 176 c 0,7,8
 752 95 752 95 632 62 c 0,9,10
 552 41 552 41 422 41 c 0,11,12
 306 41 306 41 241 94 c 0,13,14
 186 139 186 139 166 229 c 0,15,16
 150 294 150 294 150 414 c 0,17,18
 150 686 150 686 258 915 c 128,-1,19
 366 1144 366 1144 502 1144 c 0,0,1
491 362 m 0,20,21
 559 362 559 362 644 378 c 0,22,23
 763 401 763 401 763 439 c 0,24,25
 763 533 763 533 692 660 c 0,26,27
 614 800 614 800 536 800 c 0,28,29
 432 800 432 800 366 656 c 0,30,31
 313 539 313 539 313 413 c 0,32,33
 313 384 313 384 364 372 c 0,34,35
 404 362 404 362 491 362 c 0,20,21
EndSplineSet
EndChar

StartChar: afii57398
Encoding: 1638 1638 420
Width: 1030
Flags: W
LayerCount: 2
Fore
SplineSet
371 833 m 0,0,1
 178 833 178 833 120 884 c 0,2,3
 82 919 82 919 82 1032 c 0,4,5
 82 1078 82 1078 88.5 1125 c 128,-1,6
 95 1172 95 1172 112 1214 c 1,7,8
 166 1171 166 1171 242 1154 c 0,9,10
 298 1144 298 1144 386 1144 c 0,11,12
 444 1144 444 1144 506.5 1151 c 128,-1,13
 569 1158 569 1158 596 1158 c 0,14,15
 646 1158 646 1158 672 1130 c 0,16,17
 703 1100 703 1100 703 1040 c 2,18,-1
 698 730 l 2,19,20
 698 667 698 667 706 598 c 0,21,22
 716 498 716 498 740 413 c 0,23,24
 769 306 769 306 817 238 c 1,25,26
 778 179 778 179 745 112 c 0,27,28
 719 54 719 54 686 -29 c 1,29,30
 643 30 643 30 618 94 c 0,31,32
 586 175 586 175 569.5 296.5 c 128,-1,33
 553 418 553 418 553 614 c 0,34,35
 553 738 553 738 565 858 c 1,36,37
 520 847 520 847 460.5 840 c 128,-1,38
 401 833 401 833 371 833 c 0,0,1
EndSplineSet
EndChar

StartChar: afii57399.001
Encoding: 1639 1639 421
Width: 1098
Flags: W
LayerCount: 2
Fore
SplineSet
182 1184 m 1,0,1
 259 1135 259 1135 332 1009 c 0,2,3
 397 894 397 894 445 743 c 0,4,5
 490 602 490 602 510 461 c 0,6,7
 514 436 514 436 518.5 421 c 128,-1,8
 523 406 523 406 529 406 c 0,9,10
 541 406 541 406 554.5 441 c 128,-1,11
 568 476 568 476 589 584 c 0,12,13
 608 674 608 674 653 788 c 0,14,15
 701 911 701 911 761 1012 c 0,16,17
 828 1126 828 1126 893 1184 c 1,18,-1
 1004 886 l 1,19,20
 893 791 893 791 804 646 c 0,21,22
 727 521 727 521 662 352 c 0,23,24
 614 230 614 230 559 41 c 0,25,26
 550 12 550 12 544 4 c 0,27,28
 535 -11 535 -11 521 -11 c 0,29,30
 500 -11 500 -11 481 60 c 0,31,32
 480 66 480 66 450 197 c 0,33,34
 427 301 427 301 378 428 c 0,35,36
 318 584 318 584 250 697 c 0,37,38
 168 835 168 835 88 878 c 1,39,-1
 182 1184 l 1,40,-1
 182 1184 l 1,0,1
EndSplineSet
EndChar

StartChar: afii57400.001
Encoding: 1640 1640 422
Width: 1175
Flags: W
LayerCount: 2
Fore
SplineSet
950 -11 m 1,0,1
 872 38 872 38 800 164 c 0,2,3
 736 278 736 278 689 430 c 0,4,5
 644 571 644 571 625 710 c 0,6,7
 622 738 622 738 616.5 752.5 c 128,-1,8
 611 767 611 767 601 767 c 0,9,10
 592 767 592 767 581 734 c 0,11,12
 568 694 568 694 547.5 596 c 128,-1,13
 527 498 527 498 480 384 c 0,14,15
 431 257 431 257 373 160 c 0,16,17
 306 46 306 46 241 -11 c 1,18,-1
 130 286 l 1,19,20
 240 382 240 382 328 527 c 0,21,22
 403 652 403 652 470 822 c 0,23,24
 518 946 518 946 575 1130 c 0,25,26
 582 1158 582 1158 589 1171 c 128,-1,27
 596 1184 596 1184 611 1184 c 0,28,29
 634 1184 634 1184 653 1111 c 0,30,31
 653 1109 653 1109 684 976 c 0,32,33
 707 874 707 874 757 744 c 0,34,35
 817 587 817 587 886 475 c 0,36,37
 968 337 968 337 1048 296 c 1,38,-1
 950 -11 l 1,39,-1
 950 -11 l 1,0,1
EndSplineSet
EndChar

StartChar: afii57401.001
Encoding: 1641 1641 423
Width: 922
Flags: W
LayerCount: 2
Fore
SplineSet
634 -29 m 1,0,1
 574 70 574 70 549 186 c 128,-1,2
 524 302 524 302 524 466 c 0,3,4
 524 530 524 530 527 589 c 128,-1,5
 530 648 530 648 535 674 c 1,6,-1
 522 676 l 1,7,8
 467 612 467 612 430 586 c 0,9,10
 376 548 376 548 310 548 c 0,11,12
 215 548 215 548 168 620 c 0,13,14
 131 677 131 677 131 768 c 0,15,16
 131 949 131 949 228.5 1081.5 c 128,-1,17
 326 1214 326 1214 463 1214 c 0,18,19
 554 1214 554 1214 607 1144 c 0,20,21
 672 1056 672 1056 672 860 c 0,22,23
 672 557 672 557 694 446.5 c 128,-1,24
 716 336 716 336 790 242 c 1,25,-1
 634 -29 l 1,0,1
402 784 m 0,26,27
 432 784 432 784 465 790 c 128,-1,28
 498 796 498 796 528 806 c 1,29,30
 528 875 528 875 505 920 c 0,31,32
 476 980 476 980 416 980 c 0,33,34
 376 980 376 980 325 937 c 0,35,36
 289 906 289 906 258 860 c 1,37,38
 288 828 288 828 322 808 c 0,39,40
 362 784 362 784 402 784 c 0,26,27
EndSplineSet
EndChar

StartChar: guillemotleft
Encoding: 171 171 424
Width: 836
Flags: W
LayerCount: 2
Fore
SplineSet
442 616 m 1,0,1
 387 507 387 507 387 393 c 0,2,3
 387 255 387 255 518 82 c 1,4,-1
 518 83 l 1,5,6
 538 60 538 60 547.5 44 c 128,-1,7
 557 28 557 28 560 20 c 0,8,9
 560 -5 560 -5 534 -5 c 0,10,11
 528 -5 528 -5 513 1 c 0,12,13
 377 71 377 71 294 168 c 1,14,-1
 294 167 l 1,15,16
 202 276 202 276 202 396 c 0,17,18
 203 448 203 448 222.5 500 c 128,-1,19
 242 552 242 552 280 603 c 0,20,21
 307 640 307 640 344.5 676.5 c 128,-1,22
 382 713 382 713 426 745 c 0,23,24
 499 799 499 799 528 799 c 0,25,26
 563 799 563 799 563 775 c 0,27,28
 563 765 563 765 555 757 c 0,29,30
 528 730 528 730 509 708 c 128,-1,31
 490 686 490 686 477 668.5 c 128,-1,32
 464 651 464 651 455.5 638 c 128,-1,33
 447 625 447 625 441 615 c 2,34,-1
 442 616 l 1,0,1
721 616 m 1,35,36
 666 507 666 507 666 393 c 0,37,38
 666 255 666 255 797 82 c 1,39,-1
 797 83 l 1,40,41
 817 60 817 60 826.5 44 c 128,-1,42
 836 28 836 28 839 20 c 0,43,44
 839 -5 839 -5 813 -5 c 0,45,46
 806 -5 806 -5 793 1 c 0,47,48
 725 36 725 36 670 77 c 128,-1,49
 615 118 615 118 573 168 c 1,50,-1
 573 167 l 1,51,52
 481 276 481 276 481 396 c 0,53,54
 482 448 482 448 501.5 500 c 128,-1,55
 521 552 521 552 559 603 c 0,56,57
 586 640 586 640 623.5 676.5 c 128,-1,58
 661 713 661 713 705 745 c 0,59,60
 778 799 778 799 807 799 c 0,61,62
 842 799 842 799 842 775 c 0,63,64
 842 765 842 765 834 757 c 0,65,66
 807 730 807 730 788 708 c 128,-1,67
 769 686 769 686 756 668.5 c 128,-1,68
 743 651 743 651 734.5 638 c 128,-1,69
 726 625 726 625 720 615 c 2,70,-1
 721 616 l 1,35,36
EndSplineSet
EndChar

StartChar: guillemotright
Encoding: 187 187 425
Width: 836
Flags: W
LayerCount: 2
Fore
SplineSet
573 622 m 1,0,1
 561 641 561 641 537.5 674.5 c 128,-1,2
 514 708 514 708 460 762 c 0,3,4
 452 770 452 770 452 780 c 0,5,6
 452 804 452 804 487 804 c 0,7,8
 514 804 514 804 588 751 c 0,9,10
 631 719 631 719 668 683 c 128,-1,11
 705 647 705 647 732 610 c 0,12,13
 769 559 769 559 788.5 508 c 128,-1,14
 808 457 808 457 809 406 c 0,15,16
 809 287 809 287 718 179 c 1,17,-1
 718 180 l 1,18,19
 636 83 636 83 501 15 c 0,20,21
 487 9 487 9 481 9 c 0,22,23
 455 9 455 9 455 34 c 0,24,25
 458 42 458 42 467.5 57.5 c 128,-1,26
 477 73 477 73 497 96 c 1,27,-1
 497 95 l 1,28,29
 626 266 626 266 626 403 c 0,30,31
 626 515 626 515 572 623 c 1,32,-1
 573 622 l 1,0,1
297 622 m 1,33,34
 285 641 285 641 261.5 674.5 c 128,-1,35
 238 708 238 708 184 762 c 0,36,37
 176 770 176 770 176 780 c 0,38,39
 176 804 176 804 211 804 c 0,40,41
 238 804 238 804 312 751 c 0,42,43
 355 719 355 719 392 683 c 128,-1,44
 429 647 429 647 456 610 c 0,45,46
 493 559 493 559 512.5 508 c 128,-1,47
 532 457 532 457 533 406 c 0,48,49
 533 287 533 287 442 179 c 1,50,-1
 442 180 l 1,51,52
 360 83 360 83 225 15 c 0,53,54
 211 9 211 9 205 9 c 0,55,56
 179 9 179 9 179 34 c 0,57,58
 182 42 182 42 191.5 57.5 c 128,-1,59
 201 73 201 73 221 96 c 1,60,-1
 221 95 l 1,61,62
 350 266 350 266 350 403 c 0,63,64
 350 515 350 515 296 623 c 1,65,-1
 297 622 l 1,33,34
EndSplineSet
EndChar

StartChar: quoteleft
Encoding: 8216 8216 426
Width: 425
Flags: W
LayerCount: 2
Fore
SplineSet
121 993 m 0,0,1
 122 1058 122 1058 166 1121.5 c 128,-1,2
 210 1185 210 1185 265 1211 c 1,3,-1
 296 1153 l 1,4,5
 280 1144 280 1144 258 1120 c 128,-1,6
 236 1096 236 1096 226 1058 c 1,7,8
 292 1030 292 1030 289 975 c 0,9,10
 289 959 289 959 282.5 944.5 c 128,-1,11
 276 930 276 930 265 919 c 128,-1,12
 254 908 254 908 239 901.5 c 128,-1,13
 224 895 224 895 208 895 c 0,14,15
 188 895 188 895 171.5 903.5 c 128,-1,16
 155 912 155 912 144 925.5 c 128,-1,17
 133 939 133 939 127 957 c 128,-1,18
 121 975 121 975 121 993 c 0,0,1
EndSplineSet
EndChar

StartChar: quoteright
Encoding: 8217 8217 427
Width: 372
Flags: W
LayerCount: 2
Fore
SplineSet
311 1113 m 0,0,1
 310 1048 310 1048 266 984.5 c 128,-1,2
 222 921 222 921 167 895 c 1,3,-1
 136 953 l 1,4,5
 152 962 152 962 174 986 c 128,-1,6
 196 1010 196 1010 206 1048 c 1,7,8
 140 1076 140 1076 143 1131 c 0,9,10
 143 1147 143 1147 149.5 1161.5 c 128,-1,11
 156 1176 156 1176 167 1187 c 128,-1,12
 178 1198 178 1198 192.5 1204.5 c 128,-1,13
 207 1211 207 1211 224 1211 c 0,14,15
 244 1211 244 1211 260 1202.5 c 128,-1,16
 276 1194 276 1194 287.5 1180.5 c 128,-1,17
 299 1167 299 1167 305 1149 c 128,-1,18
 311 1131 311 1131 311 1113 c 0,0,1
EndSplineSet
EndChar

StartChar: afii57451
Encoding: 1611 1611 428
Width: 0
GlyphClass: 4
Flags: W
AnchorPoint: "Anchor-2" 0 0 mark 0
AnchorPoint: "Anchor-0" 0 0 mark 0
LayerCount: 2
Fore
SplineSet
168 279 m 1,0,1
 168 207 168 207 130 184 c 2,2,-1
 -200 0 l 1,3,4
 -200 40 -200 40 -187 60.5 c 128,-1,5
 -174 81 -174 81 -128 110 c 2,6,-1
 168 279 l 1,0,1
168 439 m 1,7,8
 168 367 168 367 130 344 c 2,9,-1
 -200 158 l 1,10,11
 -200 199 -200 199 -187 219.5 c 128,-1,12
 -174 240 -174 240 -128 268 c 2,13,-1
 168 439 l 1,7,8
EndSplineSet
EndChar

StartChar: afii57454
Encoding: 1614 1614 429
Width: 0
GlyphClass: 4
Flags: W
AnchorPoint: "Anchor-2" 0 0 mark 0
AnchorPoint: "Anchor-0" 0 0 mark 0
LayerCount: 2
Fore
SplineSet
188 317 m 1,0,1
 188 237 188 237 146 212 c 2,2,-1
 -222 5 l 1,3,4
 -222 50 -222 50 -207.5 72.5 c 128,-1,5
 -193 95 -193 95 -142 127 c 2,6,-1
 188 317 l 1,0,1
EndSplineSet
EndChar

StartChar: afii57455
Encoding: 1615 1615 430
Width: 0
GlyphClass: 4
Flags: W
AnchorPoint: "Anchor-2" 0 0 mark 0
AnchorPoint: "Anchor-0" 0 0 mark 0
LayerCount: 2
Fore
SplineSet
158 218 m 1,0,-1
 147 102 l 1,1,-1
 104 130 l 1,2,-1
 53 164 l 1,3,4
 -11 84 -11 84 -59 45 c 0,5,6
 -122 -6 -122 -6 -177 -6 c 0,7,8
 -194 -6 -194 -6 -217 0 c 2,9,-1
 -245 9 l 1,10,11
 -169 50 -169 50 -123 83 c 0,12,13
 -87 108 -87 108 4 191 c 1,14,15
 -37 222 -37 222 -52.5 245 c 128,-1,16
 -68 268 -68 268 -68 296 c 0,17,18
 -68 350 -68 350 -26 426 c 0,19,20
 -5 461 -5 461 18 476.5 c 128,-1,21
 41 492 41 492 68 492 c 0,22,23
 147 492 147 492 147 389 c 0,24,25
 147 362 147 362 140 331 c 128,-1,26
 133 300 133 300 112 254 c 1,27,-1
 158 218 l 1,0,-1
76 321 m 0,28,29
 76 348 76 348 57 370.5 c 128,-1,30
 38 393 38 393 14 393 c 0,31,32
 7 393 7 393 -2 386 c 0,33,34
 -5 382 -5 382 -8 369 c 0,35,36
 -8 347 -8 347 5.5 331.5 c 128,-1,37
 19 316 19 316 68 281 c 1,38,39
 76 305 76 305 76 321 c 0,28,29
EndSplineSet
EndChar

StartChar: afii57452
Encoding: 1612 1612 431
Width: 0
GlyphClass: 4
Flags: W
AnchorPoint: "Anchor-2" 0 0 mark 0
AnchorPoint: "Anchor-0" 0 0 mark 0
LayerCount: 2
Fore
SplineSet
138 87 m 1,0,-1
 96 108 l 1,1,-1
 51 141 l 1,2,3
 -12 72 -12 72 -59.5 43.5 c 128,-1,4
 -107 15 -107 15 -171 5 c 1,5,6
 -160 33 -160 33 -152 49 c 128,-1,7
 -144 65 -144 65 -137.5 85 c 128,-1,8
 -131 105 -131 105 -131 126 c 0,9,10
 -131 143 -131 143 -145.5 160 c 128,-1,11
 -160 177 -160 177 -177 177 c 0,12,13
 -190 177 -190 177 -205 156.5 c 128,-1,14
 -220 136 -220 136 -222 106 c 1,15,-1
 -229 134 l 1,16,-1
 -232 154 l 1,17,18
 -232 196 -232 196 -209.5 226.5 c 128,-1,19
 -187 257 -187 257 -153 257 c 0,20,21
 -123 257 -123 257 -107 232.5 c 128,-1,22
 -91 208 -91 208 -91 164 c 2,23,-1
 -93 138 l 1,24,-1
 -97 77 l 1,25,26
 -60 93 -60 93 -39.5 107.5 c 128,-1,27
 -19 122 -19 122 18 161 c 1,28,29
 -17 185 -17 185 -30 204 c 0,30,31
 -42 226 -42 226 -42 250 c 0,32,33
 -42 298 -42 298 -5.5 342 c 128,-1,34
 31 386 31 386 71 386 c 0,35,36
 92 386 92 386 113 362 c 128,-1,37
 134 338 134 338 134 312 c 0,38,39
 134 282 134 282 123 257 c 2,40,-1
 103 206 l 1,41,42
 125 188 125 188 132 175 c 128,-1,43
 139 162 139 162 139 141 c 2,44,-1
 138 87 l 1,0,-1
69 274 m 2,45,46
 69 297 69 297 59 310.5 c 128,-1,47
 49 324 49 324 31 324 c 0,48,49
 20 324 20 324 13.5 318 c 128,-1,50
 7 312 7 312 7 303 c 0,51,52
 7 282 7 282 31 263 c 2,53,-1
 66 238 l 1,54,-1
 68 257 l 1,55,-1
 69 274 l 2,45,46
EndSplineSet
EndChar

StartChar: afii57456
Encoding: 1616 1616 432
Width: 0
GlyphClass: 4
Flags: W
AnchorPoint: "Anchor-3" 0 0 mark 0
AnchorPoint: "Anchor-1" 0 0 mark 0
LayerCount: 2
Fore
SplineSet
188 317 m 1,0,1
 188 237 188 237 146 212 c 2,2,-1
 -222 5 l 1,3,4
 -222 50 -222 50 -207.5 72.5 c 128,-1,5
 -193 95 -193 95 -142 127 c 2,6,-1
 188 317 l 1,0,1
EndSplineSet
EndChar

StartChar: afii57457
Encoding: 1617 1617 433
Width: 0
GlyphClass: 4
Flags: W
AnchorPoint: "Anchor-2" 0 0 mark 0
AnchorPoint: "Anchor-0" 0 0 mark 0
LayerCount: 2
Fore
SplineSet
182 257 m 1,0,1
 182 173 182 173 152 124.5 c 128,-1,2
 122 76 122 76 69 76 c 0,3,4
 45 76 45 76 32.5 80.5 c 128,-1,5
 20 85 20 85 1 97 c 1,6,7
 -7 62 -7 62 -41 33.5 c 128,-1,8
 -75 5 -75 5 -112 5 c 0,9,10
 -151 5 -151 5 -176 37.5 c 128,-1,11
 -201 70 -201 70 -201 121 c 0,12,13
 -201 154 -201 154 -189 193 c 2,14,-1
 -177 230 l 1,15,-1
 -152 235 l 1,16,17
 -152 173 -152 173 -142.5 144 c 128,-1,18
 -133 115 -133 115 -110 115 c 0,19,20
 -75 115 -75 115 -52 155.5 c 128,-1,21
 -29 196 -29 196 -13 290 c 1,22,-1
 7 296 l 1,23,24
 20 238 20 238 34.5 214.5 c 128,-1,25
 49 191 49 191 69 191 c 0,26,27
 141 191 141 191 141 349 c 1,28,-1
 166 360 l 1,29,-1
 178 302 l 1,30,-1
 182 257 l 1,0,1
EndSplineSet
EndChar

StartChar: afii57458
Encoding: 1618 1618 434
Width: 0
GlyphClass: 4
Flags: W
AnchorPoint: "Anchor-2" 0 0 mark 0
AnchorPoint: "Anchor-0" 0 0 mark 0
LayerCount: 2
Fore
SplineSet
160 178 m 0,0,1
 160 110 160 110 112 56.5 c 128,-1,2
 64 3 64 3 -2 3 c 0,3,4
 -56 3 -56 3 -85.5 35.5 c 128,-1,5
 -115 68 -115 68 -115 133 c 0,6,7
 -115 224 -115 224 -75 280 c 128,-1,8
 -35 336 -35 336 30 336 c 0,9,10
 81 336 81 336 120.5 288 c 128,-1,11
 160 240 160 240 160 178 c 0,0,1
102 153 m 0,12,13
 102 178 102 178 55.5 210.5 c 128,-1,14
 9 243 9 243 -17 243 c 0,15,16
 -45 243 -45 243 -62 222.5 c 128,-1,17
 -79 202 -79 202 -79 171 c 0,18,19
 -79 109 -79 109 19 109 c 0,20,21
 60 109 60 109 81 121 c 128,-1,22
 102 133 102 133 102 153 c 0,12,13
EndSplineSet
EndChar

StartChar: exclam
Encoding: 33 33 437
Width: 751
GlyphClass: 2
Flags: W
LayerCount: 2
Fore
SplineSet
379 1026 m 0,0,1
 379 1260 379 1260 498 1260 c 256,2,3
 617 1260 617 1260 617 1026 c 0,4,5
 617 969 617 969 576.5 725 c 128,-1,6
 536 481 536 481 535 292 c 1,7,-1
 461 292 l 1,8,9
 459 481 459 481 419 725 c 128,-1,10
 379 969 379 969 379 1026 c 0,0,1
392 118 m 0,11,12
 392 157 392 157 425 191.5 c 128,-1,13
 458 226 458 226 499 226 c 0,14,15
 542 226 542 226 574 193.5 c 128,-1,16
 606 161 606 161 606 118 c 256,17,18
 606 75 606 75 574 43 c 128,-1,19
 542 11 542 11 499 11 c 256,20,21
 456 11 456 11 424 43 c 128,-1,22
 392 75 392 75 392 118 c 0,11,12
EndSplineSet
EndChar

StartChar: afii64060
Encoding: 64830 64830 438
Width: 575
GlyphClass: 2
Flags: W
LayerCount: 2
Fore
SplineSet
462 1109 m 1,0,1
 364 955 364 955 311 769.5 c 128,-1,2
 258 584 258 584 258 401 c 0,3,4
 258 259 258 259 292 109 c 0,5,6
 319 -20 319 -20 367 -138 c 0,7,8
 408 -240 408 -240 456 -313 c 1,9,-1
 420 -313 l 1,10,11
 263 -173 263 -173 177.5 10 c 128,-1,12
 92 193 92 193 92 397 c 0,13,14
 92 608 92 608 182 796 c 0,15,16
 268 973 268 973 424 1109 c 1,17,-1
 462 1109 l 1,18,-1
 462 1109 l 1,0,1
EndSplineSet
EndChar

StartChar: afii64061
Encoding: 64831 64831 439
Width: 575
GlyphClass: 2
Flags: W
LayerCount: 2
Fore
SplineSet
152 1109 m 1,0,1
 312 973 312 973 396 796 c 0,2,3
 484 611 484 611 484 397 c 0,4,5
 484 193 484 193 399 9 c 128,-1,6
 314 -175 314 -175 158 -313 c 1,7,-1
 122 -313 l 1,8,9
 170 -240 170 -240 211 -138 c 0,10,11
 260 -17 260 -17 288 109 c 0,12,13
 320 257 320 257 320 401 c 0,14,15
 320 586 320 586 267 770.5 c 128,-1,16
 214 955 214 955 115 1109 c 1,17,-1
 152 1109 l 1,18,-1
 152 1109 l 1,0,1
EndSplineSet
EndChar

StartChar: afii62821
Encoding: 65252 65252 440
Width: 914
GlyphClass: 2
Flags: W
AnchorPoint: "Anchor-3" 465 -510 basechar 0
AnchorPoint: "Anchor-2" 465 930 basechar 0
LayerCount: 2
Fore
SplineSet
972 56 m 2,0,1
 972 32 972 32 958 16 c 128,-1,2
 944 0 944 0 918 0 c 0,3,4
 854 0 854 0 818 20 c 0,5,6
 794 35 794 35 756 83 c 1,7,-1
 744 82 l 1,8,-1
 685 -49 l 1,9,10
 572 -49 572 -49 466 -24.5 c 128,-1,11
 360 0 360 0 246 49 c 1,12,-1
 212 156 l 1,13,-1
 202 150 l 1,14,15
 158 58 158 58 113 26 c 0,16,17
 73 0 73 0 -4 0 c 0,18,19
 -31 0 -31 0 -44.5 16 c 128,-1,20
 -58 32 -58 32 -58 56 c 2,21,-1
 -58 270 l 2,22,23
 -58 295 -58 295 -48 310.5 c 128,-1,24
 -38 326 -38 326 -22 326 c 0,25,26
 98 326 98 326 142.5 348.5 c 128,-1,27
 187 371 187 371 294 482 c 0,28,29
 367 560 367 560 440 599 c 0,30,31
 498 631 498 631 545 631 c 0,32,33
 600 631 600 631 652 575 c 0,34,35
 690 534 690 534 721 470 c 0,36,37
 764 376 764 376 801.5 351 c 128,-1,38
 839 326 839 326 935 326 c 0,39,40
 952 326 952 326 962 310 c 128,-1,41
 972 294 972 294 972 270 c 2,42,-1
 972 56 l 2,0,1
607 277 m 1,43,44
 602 332 602 332 586 377 c 0,45,46
 560 444 560 444 517 444 c 0,47,48
 481 444 481 444 419 403 c 0,49,50
 367 368 367 368 331 332 c 1,51,52
 395 302 395 302 461.5 289.5 c 128,-1,53
 528 277 528 277 607 277 c 1,43,44
EndSplineSet
EndChar

StartChar: uni25CC
Encoding: 9676 9676 441
Width: 911
Flags: W
AnchorPoint: "Anchor-3" 450 -390 basechar 0
AnchorPoint: "Anchor-2" 480 990 basechar 0
LayerCount: 2
Fore
SplineSet
771 629 m 256,0,1
 771 592 771 592 734 592 c 0,2,3
 695 592 695 592 695 629 c 256,4,5
 695 666 695 666 734 666 c 0,6,7
 771 666 771 666 771 629 c 256,0,1
658 703 m 0,8,9
 658 666 658 666 621 666 c 0,10,11
 582 666 582 666 582 703 c 0,12,13
 582 742 582 742 621 742 c 0,14,15
 658 742 658 742 658 703 c 0,8,9
847 516 m 0,16,17
 847 477 847 477 808 477 c 0,18,19
 771 477 771 477 771 516 c 0,20,21
 771 553 771 553 810 553 c 0,22,23
 847 553 847 553 847 516 c 0,16,17
873 384 m 256,24,25
 873 347 873 347 836 347 c 0,26,27
 797 347 797 347 797 384 c 256,28,29
 797 421 797 421 836 421 c 0,30,31
 873 421 873 421 873 384 c 256,24,25
525 731 m 0,32,33
 525 692 525 692 488 692 c 256,34,35
 451 692 451 692 451 731 c 0,36,37
 451 768 451 768 488 768 c 256,38,39
 525 768 525 768 525 731 c 0,32,33
847 251 m 0,40,41
 847 214 847 214 808 214 c 0,42,43
 771 214 771 214 771 251 c 0,44,45
 771 290 771 290 808 290 c 0,46,47
 847 290 847 290 847 251 c 0,40,41
394 703 m 0,48,49
 394 666 394 666 356 666 c 0,50,51
 319 666 319 666 319 703 c 0,52,53
 319 742 319 742 356 742 c 0,54,55
 394 742 394 742 394 703 c 0,48,49
282 629 m 256,56,57
 282 592 282 592 243 592 c 0,58,59
 206 592 206 592 206 627 c 0,60,61
 206 666 206 666 243 666 c 0,62,63
 282 666 282 666 282 629 c 256,56,57
771 138 m 0,64,65
 771 101 771 101 734 101 c 256,66,67
 697 101 697 101 697 138 c 0,68,69
 697 177 697 177 734 177 c 256,70,71
 771 177 771 177 771 138 c 0,64,65
658 64 m 0,72,73
 658 27 658 27 621 27 c 256,74,75
 584 27 584 27 584 64 c 0,76,77
 584 103 584 103 621 103 c 256,78,79
 658 103 658 103 658 64 c 0,72,73
206 516 m 0,80,81
 206 477 206 477 171 477 c 0,82,83
 132 477 132 477 132 516 c 0,84,85
 132 553 132 553 169 553 c 256,86,87
 206 553 206 553 206 516 c 0,80,81
180 384 m 256,88,89
 180 347 180 347 143 347 c 0,90,91
 104 347 104 347 104 384 c 256,92,93
 104 421 104 421 143 421 c 0,94,95
 180 421 180 421 180 384 c 256,88,89
525 38 m 0,96,97
 525 -1 525 -1 488 -1 c 256,98,99
 451 -1 451 -1 451 38 c 0,100,101
 451 75 451 75 488 75 c 256,102,103
 525 75 525 75 525 38 c 0,96,97
394 66 m 0,104,105
 394 27 394 27 356 27 c 0,106,107
 319 27 319 27 319 64 c 0,108,109
 319 103 319 103 356 103 c 0,110,111
 394 103 394 103 394 66 c 0,104,105
206 251 m 0,112,113
 206 214 206 214 169 214 c 256,114,115
 132 214 132 214 132 251 c 0,116,117
 132 290 132 290 169 290 c 256,118,119
 206 290 206 290 206 251 c 0,112,113
282 138 m 0,120,121
 282 101 282 101 245 101 c 0,122,123
 206 101 206 101 206 138 c 0,124,125
 206 177 206 177 243 177 c 0,126,127
 282 177 282 177 282 138 c 0,120,121
EndSplineSet
EndChar

StartChar: afii62819
Encoding: 65246 65246 442
Width: 994
GlyphClass: 2
Flags: W
AnchorPoint: "Anchor-3" 450 -780 basechar 0
AnchorPoint: "Anchor-2" 450 1170 basechar 0
LayerCount: 2
Fore
SplineSet
1051 56 m 1,0,1
 1051 34 1051 34 1036.5 17 c 128,-1,2
 1022 0 1022 0 996 0 c 0,3,4
 960 0 960 0 928 25 c 0,5,6
 904 44 904 44 880 82 c 1,7,-1
 874 82 l 1,8,9
 852 -24 852 -24 802 -139 c 0,10,11
 756 -245 756 -245 734 -257 c 0,12,13
 637 -308 637 -308 563 -332 c 0,14,15
 470 -361 470 -361 373 -361 c 0,16,17
 228 -361 228 -361 147.5 -282.5 c 128,-1,18
 67 -204 67 -204 67 -65 c 0,19,20
 67 16 67 16 102 121 c 0,21,22
 128 206 128 206 170 281 c 0,23,24
 206 347 206 347 220 347 c 0,25,26
 236 347 236 347 236 337 c 0,27,28
 221 289 221 289 205 241 c 0,29,30
 192 190 192 190 192 131 c 0,31,32
 192 58 192 58 245 10 c 0,33,34
 308 -49 308 -49 432 -49 c 0,35,36
 506 -49 506 -49 608 -22 c 0,37,38
 721 10 721 10 790 58 c 1,39,-1
 691 1013 l 1,40,-1
 808 1198 l 1,41,-1
 871 408 l 2,42,43
 871 359 871 359 913 340 c 0,44,45
 944 326 944 326 1015 326 c 0,46,47
 1031 326 1031 326 1041 310 c 128,-1,48
 1051 294 1051 294 1051 270 c 2,49,-1
 1051 56 l 1,50,-1
 1051 56 l 1,0,1
EndSplineSet
EndChar

StartChar: braceright
Encoding: 125 125 445
Width: 685
GlyphClass: 2
Flags: W
LayerCount: 2
Fore
SplineSet
77 -351 m 1,0,-1
 77 -312 l 1,1,2
 161 -296 161 -296 202 -252.5 c 128,-1,3
 243 -209 243 -209 243 -153 c 0,4,5
 243 -96 243 -96 222 -12 c 128,-1,6
 201 72 201 72 201 135 c 0,7,8
 201 193 201 193 235 253 c 128,-1,9
 269 313 269 313 335 355 c 0,10,11
 379 384 379 384 478 411 c 1,12,13
 373 444 373 444 325 477 c 0,14,15
 262 519 262 519 230.5 578 c 128,-1,16
 199 637 199 637 199 689 c 0,17,18
 199 740 199 740 220 824.5 c 128,-1,19
 241 909 241 909 241 972 c 0,20,21
 241 1032 241 1032 202.5 1075.5 c 128,-1,22
 164 1119 164 1119 77 1137 c 1,23,-1
 77 1177 l 1,24,-1
 107 1177 l 2,25,26
 193 1178 193 1178 271 1137 c 128,-1,27
 349 1096 349 1096 388 1032.5 c 128,-1,28
 427 969 427 969 427 907 c 0,29,30
 427 850 427 850 401 748 c 0,31,32
 382 672 382 672 382 613 c 0,33,34
 382 546 382 546 423.5 499 c 128,-1,35
 465 452 465 452 548 439 c 1,36,-1
 548 387 l 1,37,38
 465 373 465 373 423.5 324 c 128,-1,39
 382 275 382 275 382 205 c 0,40,41
 382 146 382 146 401 74 c 0,42,43
 426 -27 426 -27 426 -78 c 0,44,45
 426 -135 426 -135 393 -191.5 c 128,-1,46
 360 -248 360 -248 310.5 -283.5 c 128,-1,47
 261 -319 261 -319 201 -335 c 0,48,49
 155 -348 155 -348 77 -351 c 1,0,-1
EndSplineSet
EndChar

StartChar: uni0656
Encoding: 1622 1622 452
Width: 0
GlyphClass: 4
Flags: W
AnchorPoint: "Anchor-3" 0 0 mark 0
AnchorPoint: "Anchor-1" 0 0 mark 0
LayerCount: 2
Fore
SplineSet
-14 5 m 1,0,1
 -5 110 -5 110 -13 147 c 1,2,3
 -16 192 -16 192 -53 264 c 1,4,-1
 -27 390 l 1,5,6
 40 310 40 310 51 239 c 0,7,8
 55 208 55 208 47.5 153.5 c 128,-1,9
 40 99 40 99 21 24 c 1,10,-1
 -14 5 l 1,0,1
EndSplineSet
EndChar

StartChar: E005
Encoding: 65578 -1 470
Width: 476
GlyphClass: 3
Flags: W
LayerCount: 2
Fore
SplineSet
-43 0 m 1,0,-1
 -43 207 l 1,1,-1
 581 207 l 1,2,-1
 581 0 l 1,3,-1
 -43 0 l 1,0,-1
EndSplineSet
EndChar

